<?xml version="1.0" encoding="utf-8"?>
<!-- Generator: Adobe Illustrator 27.2.0, SVG Export Plug-In . SVG Version: 6.00 Build 0)  -->
<svg version="1.1" id="Capa_1" xmlns="http://www.w3.org/2000/svg" xmlns:xlink="http://www.w3.org/1999/xlink" x="0px" y="0px"
	 viewBox="0 0 1125 2436" style="enable-background:new 0 0 1125 2436;" xml:space="preserve">
<style type="text/css">
	.st0{clip-path:url(#SVGID_00000065034507011849975660000009990881061137720967_);}
	.st1{fill:#FFDAAA;}
	.st2{fill:#DF8AA7;}
	.st3{fill:#FFB6B6;}
	.st4{fill:#B08097;}
	.st5{fill:#DA7EA6;}
	.st6{fill:#905975;}
	.st7{fill:#A27489;}
	.st8{fill:#FF8F9F;}
	.st9{fill:#7D395C;}
	.st10{opacity:0.13;fill:#606060;}
	.st11{fill:#D1538D;}
	.st12{fill:#DF6A8C;}
	.st13{fill:#E2518D;}
	.st14{fill:#AC518D;}
	.st15{fill:#BA518D;}
	.st16{fill:#E2517A;}
	.st17{fill:#C4518D;}
	.st18{fill:#ED6A8C;}
	.st19{opacity:0.3;}
	.st20{fill:#B0518D;}
	.st21{fill:#E25170;}
	.st22{opacity:0.26;fill:#B0518D;}
	.st23{fill:#AE778D;}
	.st24{opacity:0.26;fill:#606060;}
	.st25{opacity:0.55;fill:#FFECDB;}
	.st26{fill:#FFAAB5;}
	.st27{fill:#CF628D;}
	.st28{display:none;}
	.st29{display:inline;}
	.st30{display:inline;clip-path:url(#SVGID_00000003825531937822320820000003025613619286912898_);fill:#98518D;}
	.st31{display:inline;clip-path:url(#SVGID_00000003825531937822320820000003025613619286912898_);fill:#BC518D;}
	.st32{display:inline;clip-path:url(#SVGID_00000003825531937822320820000003025613619286912898_);fill:#E2518D;}
	.st33{display:inline;opacity:0.46;clip-path:url(#SVGID_00000003825531937822320820000003025613619286912898_);}
	.st34{fill:#FFB2BF;}
	.st35{fill:#C65EA7;}
	.st36{opacity:9.000000e-02;}
	.st37{fill:#040404;}
	.st38{opacity:0.31;}
	.st39{fill:#E06181;}
	.st40{opacity:0.38;}
	.st41{fill:#313534;}
	.st42{fill:#F3EEEA;}
	.st43{opacity:0.17;}
	.st44{fill:#73355F;}
	.st45{opacity:0.4;}
	.st46{clip-path:url(#SVGID_00000093156384753801196890000015792366439043622586_);}
	.st47{fill:#F7D0CB;}
	.st48{opacity:0.34;fill:#FFFDF9;}
	.st49{opacity:0.59;fill:#FFFDF9;}
	.st50{clip-path:url(#SVGID_00000171691306760259930120000002841261830721547953_);}
</style>
<image style="overflow:visible;" width="1037" height="1941" xlink:href="C5FDFA99.png"  transform="matrix(0.9442 0 0 0.9442 72.9099 441.6559)">
</image>
<g>
	<defs>
		<rect id="SVGID_00000035499719762596687410000014945316876164100992_" x="1937.3" y="-36.7" width="1240.6" height="2509.5"/>
	</defs>
	<clipPath id="SVGID_00000176738009721688577630000017498272864575839656_">
		<use xlink:href="#SVGID_00000035499719762596687410000014945316876164100992_"  style="overflow:visible;"/>
	</clipPath>
	<g style="clip-path:url(#SVGID_00000176738009721688577630000017498272864575839656_);">
		<rect x="73.2" y="-82.5" class="st47" width="4318.9" height="2600.9"/>
		<path class="st48" d="M72.9,815.7c10-5.8,20.2-7.9,30.5-5.7c219,45.7,282.9,256.1,282.9,256.1s-15.5-509,504.8-463.2
			c520.2,45.7,526.6,463.2,526.6,463.2c237.3-365.9,529.4,0,529.4,0c27.4-173.8,173.4-100.6,173.4-100.6
			c-45.6-173.8,270.9-437.5,626.9-272.9c356,164.6,276.7,364.3,358.9,364.3c82.1,0,92-305.2,516.4-422.8
			c357.7-99.1,629.5,72.8,773.4,210.7v1673.5H72.9V815.7z"/>
		<path class="st49" d="M4396,1151.3c-175.4,9.2-297.2,202.3-297.2,202.3c-179.1-228.5-341.9-326.4-545.7-274.2
			c-203.8,52.2-358,331.3-358,331.3c-40.7-138.7-309.4-326.4-512.9-228.5c-203.5,97.9-252.4,310.1-252.4,310.1
			s-48.8-179.5-293.1-269.3c-244.2-89.8-423.4,163.2-423.4,163.2c-203.5-408-561.8-138.7-561.8-138.7s-81.4-212.1-260.5-171.3
			c-179.1,40.8-208.6,223.4-208.6,223.4L72.9,2271.6v246.8H4396V1151.3z"/>
	</g>
</g>
</svg>
