<?xml version="1.0" encoding="utf-8"?>
<!-- Generator: Adobe Illustrator 27.2.0, SVG Export Plug-In . SVG Version: 6.00 Build 0)  -->
<svg version="1.1" xmlns="http://www.w3.org/2000/svg" xmlns:xlink="http://www.w3.org/1999/xlink" x="0px" y="0px"
	 viewBox="0 0 750 500" style="enable-background:new 0 0 750 500;" xml:space="preserve">
<style type="text/css">
	.st0{fill:#EDD0CB;}
	.st1{opacity:0.34;fill:#FFFEFA;}
	.st2{opacity:0.59;fill:#FFFEFA;}
	.st3{fill:#FFDAAC;}
	.st4{fill:#CB8AA5;}
	.st5{fill:#F6B6B6;}
	.st6{fill:#A48096;}
	.st7{fill:#C57DA4;}
	.st8{fill:#835973;}
	.st9{fill:#967388;}
	.st10{fill:#E78F9E;}
	.st11{fill:#6E3C5B;}
	.st12{opacity:0.13;fill:#606060;}
	.st13{fill:#B8548B;}
	.st14{fill:#C66A8B;}
	.st15{fill:#C6528B;}
	.st16{fill:#98528B;}
	.st17{fill:#A4528B;}
	.st18{fill:#C65278;}
	.st19{fill:#AC528B;}
	.st20{fill:#D26A8B;}
	.st21{opacity:0.3;}
	.st22{fill:#9C528B;}
	.st23{fill:#C6526E;}
	.st24{opacity:0.26;fill:#9C528B;}
	.st25{fill:#A0768C;}
	.st26{opacity:0.26;fill:#606060;}
	.st27{opacity:0.55;fill:#FFECDC;}
	.st28{fill:#EDA9B4;}
	.st29{fill:#B8628B;}
	.st30{clip-path:url(#SVGID_00000044863118820791916690000013373866163487930507_);fill:#88528B;}
	.st31{clip-path:url(#SVGID_00000044863118820791916690000013373866163487930507_);fill:#A6528B;}
	.st32{clip-path:url(#SVGID_00000044863118820791916690000013373866163487930507_);fill:#C6528B;}
	.st33{opacity:0.46;clip-path:url(#SVGID_00000044863118820791916690000013373866163487930507_);}
	.st34{fill:#FFB2BE;}
	.st35{fill:#B05EA4;}
	.st36{opacity:9.000000e-02;}
	.st37{fill:#0C0C0C;}
	.st38{opacity:0.31;}
	.st39{fill:#C66180;}
	.st40{opacity:0.38;}
	.st41{fill:#353837;}
	.st42{fill:#F2EFEB;}
	.st43{opacity:0.17;}
	.st44{fill:#66385E;}
	.st45{opacity:0.4;}
	.st46{clip-path:url(#SVGID_00000060716928715485135960000005643697126102462380_);fill:#88528B;}
	.st47{clip-path:url(#SVGID_00000060716928715485135960000005643697126102462380_);fill:#A6528B;}
	.st48{clip-path:url(#SVGID_00000060716928715485135960000005643697126102462380_);fill:#C6528B;}
	.st49{opacity:0.46;clip-path:url(#SVGID_00000060716928715485135960000005643697126102462380_);}
</style>
<g id="BACKGROUND">
</g>
<g id="OBJECTS">
	<g>
		<g>
			<path class="st15" d="M244,72.4c0,0-10.2,5.6-10.1,14.6c0.2,9,0.2,9,0.2,9s6.3-6.5,8.9-11.9C245.6,78.6,244,72.4,244,72.4z"/>
			<path class="st15" d="M8.1,110.6c0,0-10.2,5.6-10.1,14.6c0.2,9,0.2,9,0.2,9s6.3-6.5,8.9-11.9C9.7,116.9,8.1,110.6,8.1,110.6z"/>
			<path class="st7" d="M63.2,86.3c0,0-11.6,1.7-14.5,10.2c-3,8.5-3,8.5-3,8.5s8.1-3.9,12.5-8.1C62.6,92.7,63.2,86.3,63.2,86.3z"/>
			<path class="st7" d="M228.9,52.4c0,0-6.3,5.3-3.7,11.3C225.2,63.8,230.7,60.7,228.9,52.4z"/>
			<path class="st7" d="M255.9,194.7c0,0-6.3,5.3-3.7,11.3C252.2,206.1,257.6,203,255.9,194.7z"/>
			<path class="st7" d="M19.1,161.6c0,0-6.3,5.3-3.7,11.3C15.4,172.9,20.9,169.9,19.1,161.6z"/>
			<path class="st35" d="M82.8,71.8c0,0-6.3,5.3-3.7,11.3C79.2,83.2,84.6,80.1,82.8,71.8z"/>
			<path class="st7" d="M278.1,51.7c0,0-7.7-8.9-16.2-5C262,46.7,266.4,54.3,278.1,51.7z"/>
			<path class="st15" d="M114.8,49.5c0,0-2.1,11.5,6.2,15.7C121,65.3,124.2,57.1,114.8,49.5z"/>
			<path class="st7" d="M314.2,201.5c0,0-2.1,11.5,6.2,15.7C320.4,217.3,323.6,209.1,314.2,201.5z"/>
			<path class="st7" d="M303.4,97.4c0,0-9,8.5-0.1,22C303.4,119.4,311.7,105.3,303.4,97.4z"/>
			<path class="st7" d="M361.7,148.7c0,0,1.2,12.3,17.4,13.5C379,162.2,373,147.1,361.7,148.7z"/>
			<path class="st7" d="M291.8,115.2c0,0-4.2,2.4-2,6.1C289.8,121.4,292.8,119.3,291.8,115.2z"/>
			<path class="st7" d="M216.3,164.8c0,0-4.2,2.4-2,6.1C214.3,171,217.3,168.9,216.3,164.8z"/>
			<path class="st7" d="M161,53.9c0,0-4.2,2.4-2,6.1C159,60.1,162,58.1,161,53.9z"/>
			<path class="st7" d="M98.8,83.4c0,0-4.2,2.4-2,6.1C96.8,89.6,99.8,87.5,98.8,83.4z"/>
			<path class="st7" d="M354,64c0,0-1.3-4.6-5.4-3.5C348.6,60.5,349.8,64,354,64z"/>
			<path class="st35" d="M273.9,125c0,0,4.5,1.5,9.7,2.6c5.3,1.1,10.3,9.3,10.3,9.3s-4.3,1.8-8.9-0.4c-4.6-2.1-8.1-8.7-8.1-8.7
				l-4.2-1.9L273.9,125z"/>
		</g>
		<g>
			<path class="st7" d="M485.3,177.4c0,0,11.6-1.3,14.9-9.7c3.3-8.4,3.3-8.4,3.3-8.4s-8.3,3.6-12.8,7.6
				C486.1,171,485.3,177.4,485.3,177.4z"/>
			<path class="st15" d="M585.7,76c0,0,11.3,2.8,17.3-3.9c6-6.7,6-6.7,6-6.7s-9,0.6-14.6,2.7C588.7,70.3,585.7,76,585.7,76z"/>
			<path class="st7" d="M488.2,203c0,0,7.9-2.5,7.7-9.1C495.9,194,489.7,194.7,488.2,203z"/>
			<path class="st7" d="M517.2,61.2c0,0,7.9-2.5,7.7-9.1C524.9,52.1,518.8,52.8,517.2,61.2z"/>
			<path class="st35" d="M743.1,136.4c0,0,7.9-2.5,7.7-9.1C750.8,127.3,744.7,128,743.1,136.4z"/>
			<path class="st7" d="M442.3,185c0,0,3.7,11.1,13.1,10.7C455.4,195.8,454.2,187,442.3,185z"/>
			<path class="st15" d="M596.2,127.1c0,0,6.4-9.9,0.2-16.9C596.4,110.2,590.4,116.6,596.2,127.1z"/>
			<path class="st15" d="M436.3,236.1c0,0,6.4-9.9,0.2-16.9C436.6,219.2,430.5,225.6,436.3,236.1z"/>
			<path class="st15" d="M439,130.5c0,0,11.5-4.4,8.4-20.3C447.4,110.2,434.4,120,439,130.5z"/>
			<path class="st7" d="M404,65.9c0,0,3.5-11.8-10.9-19.1C393,46.8,392.8,63.1,404,65.9z"/>
			<path class="st7" d="M453.8,121.1c0,0,4.8-0.7,4.2-4.9C458,116.2,454.4,116.9,453.8,121.1z"/>
			<path class="st7" d="M542.5,103.9c0,0,4.8-0.7,4.2-4.9C546.7,98.9,543.1,99.7,542.5,103.9z"/>
			<path class="st7" d="M643.7,157.3c0,0,4.8-0.7,4.2-4.9C647.9,152.4,644.3,153.1,643.7,157.3z"/>
			<path class="st7" d="M376.8,144.9c0,0-0.5,4.8,3.7,5.3C380.5,150.1,380.7,146.5,376.8,144.9z"/>
			<path class="st7" d="M474.1,118.8c0,0-3.6-3.1-8-6.1c-4.4-3.1-6-12.5-6-12.5s4.7,0,8.1,3.7c3.4,3.7,4.2,11.1,4.2,11.1l3.2,3.3
				L474.1,118.8z"/>
			<path class="st7" d="M29.3,81.6c0,0-3.6-3.1-8-6.1c-4.4-3.1-6-12.5-6-12.5s4.7,0,8.1,3.7c3.4,3.7,4.2,11.1,4.2,11.1l3.2,3.3
				L29.3,81.6z"/>
		</g>
	</g>
</g>
</svg>
