<?xml version="1.0" encoding="utf-8"?>
<!-- Generator: Adobe Illustrator 27.2.0, SVG Export Plug-In . SVG Version: 6.00 Build 0)  -->
<svg version="1.1" xmlns="http://www.w3.org/2000/svg" xmlns:xlink="http://www.w3.org/1999/xlink" x="0px" y="0px"
	 viewBox="0 0 750 500" style="enable-background:new 0 0 750 500;" xml:space="preserve">
<style type="text/css">
	.st0{fill:#EDD0CB;}
	.st1{opacity:0.34;fill:#FFFEFA;}
	.st2{opacity:0.59;fill:#FFFEFA;}
	.st3{fill:#FFDAAC;}
	.st4{fill:#CB8AA5;}
	.st5{fill:#F6B6B6;}
	.st6{fill:#A48096;}
	.st7{fill:#C57DA4;}
	.st8{fill:#835973;}
	.st9{fill:#967388;}
	.st10{fill:#E78F9E;}
	.st11{fill:#6E3C5B;}
	.st12{opacity:0.13;fill:#606060;}
	.st13{fill:#B8548B;}
	.st14{fill:#C66A8B;}
	.st15{fill:#C6528B;}
	.st16{fill:#98528B;}
	.st17{fill:#A4528B;}
	.st18{fill:#C65278;}
	.st19{fill:#AC528B;}
	.st20{fill:#D26A8B;}
	.st21{opacity:0.3;}
	.st22{fill:#9C528B;}
	.st23{fill:#C6526E;}
	.st24{opacity:0.26;fill:#9C528B;}
	.st25{fill:#A0768C;}
	.st26{opacity:0.26;fill:#606060;}
	.st27{opacity:0.55;fill:#FFECDC;}
	.st28{fill:#EDA9B4;}
	.st29{fill:#B8628B;}
	.st30{clip-path:url(#SVGID_00000157302979869827247610000002807488490686237629_);fill:#88528B;}
	.st31{clip-path:url(#SVGID_00000157302979869827247610000002807488490686237629_);fill:#A6528B;}
	.st32{clip-path:url(#SVGID_00000157302979869827247610000002807488490686237629_);fill:#C6528B;}
	.st33{opacity:0.46;clip-path:url(#SVGID_00000157302979869827247610000002807488490686237629_);}
	.st34{fill:#FFB2BE;}
	.st35{fill:#B05EA4;}
	.st36{opacity:9.000000e-02;}
	.st37{fill:#0C0C0C;}
	.st38{opacity:0.31;}
	.st39{fill:#C66180;}
	.st40{opacity:0.38;}
	.st41{fill:#353837;}
	.st42{fill:#F2EFEB;}
	.st43{opacity:0.17;}
	.st44{fill:#66385E;}
	.st45{opacity:0.4;}
	.st46{clip-path:url(#SVGID_00000139293849094049909680000016068560392262502033_);fill:#88528B;}
	.st47{clip-path:url(#SVGID_00000139293849094049909680000016068560392262502033_);fill:#A6528B;}
	.st48{clip-path:url(#SVGID_00000139293849094049909680000016068560392262502033_);fill:#C6528B;}
	.st49{opacity:0.46;clip-path:url(#SVGID_00000139293849094049909680000016068560392262502033_);}
</style>
<g id="BACKGROUND">
	<g>
		<rect x="0.6" y="1.1" class="st0" width="747.7" height="503.9"/>
		<path class="st1" d="M0.8,219.3c1.7-1,3.5-1.4,5.3-1c37.9,7.9,49,44.3,49,44.3s-2.7-88.1,87.4-80.2c90.1,7.9,91.2,80.2,91.2,80.2
			c41.1-63.3,91.6,0,91.6,0c4.7-30.1,30-17.4,30-17.4c-7.9-30.1,46.9-75.7,108.5-47.2c61.6,28.5,47.9,63.1,62.1,63.1
			c14.2,0,15.9-52.8,89.4-73.2c61.9-17.2,109,12.6,133.9,36.5v289.7H0.8V219.3z"/>
		<path class="st2" d="M749.2,277.4c-30.4,1.6-51.4,35-51.4,35c-31-39.6-59.2-56.5-94.5-47.5c-35.3,9-62,57.4-62,57.4
			c-7-24-53.6-56.5-88.8-39.6c-35.2,17-43.7,53.7-43.7,53.7s-8.5-31.1-50.7-46.6c-42.3-15.5-73.3,28.3-73.3,28.3
			c-35.2-70.6-97.3-24-97.3-24s-14.1-36.7-45.1-29.7c-31,7.1-36.1,38.7-36.1,38.7L0.8,471.4v42.7h748.4V277.4z"/>
	</g>
</g>
<g id="OBJECTS">
</g>
</svg>
