<?xml version="1.0" encoding="utf-8"?>
<!-- Generator: Adobe Illustrator 27.2.0, SVG Export Plug-In . SVG Version: 6.00 Build 0)  -->
<svg version="1.1" xmlns="http://www.w3.org/2000/svg" xmlns:xlink="http://www.w3.org/1999/xlink" x="0px" y="0px"
	 viewBox="0 0 750 500" style="enable-background:new 0 0 750 500;" xml:space="preserve">
<style type="text/css">
	.st0{fill:#EDD0CB;}
	.st1{opacity:0.34;fill:#FFFEFA;}
	.st2{opacity:0.59;fill:#FFFEFA;}
	.st3{fill:#FFDAAC;}
	.st4{fill:#CB8AA5;}
	.st5{fill:#F6B6B6;}
	.st6{fill:#A48096;}
	.st7{fill:#C57DA4;}
	.st8{fill:#835973;}
	.st9{fill:#967388;}
	.st10{fill:#E78F9E;}
	.st11{fill:#6E3C5B;}
	.st12{opacity:0.13;fill:#606060;}
	.st13{fill:#B8548B;}
	.st14{fill:#C66A8B;}
	.st15{fill:#C6528B;}
	.st16{fill:#98528B;}
	.st17{fill:#A4528B;}
	.st18{fill:#C65278;}
	.st19{fill:#AC528B;}
	.st20{fill:#D26A8B;}
	.st21{opacity:0.3;}
	.st22{fill:#9C528B;}
	.st23{fill:#C6526E;}
	.st24{opacity:0.26;fill:#9C528B;}
	.st25{fill:#A0768C;}
	.st26{opacity:0.26;fill:#606060;}
	.st27{opacity:0.55;fill:#FFECDC;}
	.st28{fill:#EDA9B4;}
	.st29{fill:#B8628B;}
	.st30{clip-path:url(#SVGID_00000040569494217889523120000002697421420498327180_);fill:#88528B;}
	.st31{clip-path:url(#SVGID_00000040569494217889523120000002697421420498327180_);fill:#A6528B;}
	.st32{clip-path:url(#SVGID_00000040569494217889523120000002697421420498327180_);fill:#C6528B;}
	.st33{opacity:0.46;clip-path:url(#SVGID_00000040569494217889523120000002697421420498327180_);}
	.st34{fill:#FFB2BE;}
	.st35{fill:#B05EA4;}
	.st36{opacity:9.000000e-02;}
	.st37{fill:#0C0C0C;}
	.st38{opacity:0.31;}
	.st39{fill:#C66180;}
	.st40{opacity:0.38;}
	.st41{fill:#353837;}
	.st42{fill:#F2EFEB;}
	.st43{opacity:0.17;}
	.st44{fill:#66385E;}
	.st45{opacity:0.4;}
	.st46{clip-path:url(#SVGID_00000176012523904728098200000012245207301999845800_);fill:#88528B;}
	.st47{clip-path:url(#SVGID_00000176012523904728098200000012245207301999845800_);fill:#A6528B;}
	.st48{clip-path:url(#SVGID_00000176012523904728098200000012245207301999845800_);fill:#C6528B;}
	.st49{opacity:0.46;clip-path:url(#SVGID_00000176012523904728098200000012245207301999845800_);}
</style>
<g id="BACKGROUND">
</g>
<g id="OBJECTS">
	<g>
		<defs>
			<rect id="SVGID_00000081641493239071968890000017821139749827539629_" x="-5.9" y="307.1" width="762.5" height="197.9"/>
		</defs>
		<clipPath id="SVGID_00000102534323205609460760000013674976611735912843_">
			<use xlink:href="#SVGID_00000081641493239071968890000017821139749827539629_"  style="overflow:visible;"/>
		</clipPath>
		<path style="clip-path:url(#SVGID_00000102534323205609460760000013674976611735912843_);fill:#88528B;" d="M622.9,527.4
			c0,0,2.2-87.3,24.8-98.1c22.6-10.8,36.7,18.3,16.2,52.8c0,0,23.7-30.2,44.2-10.8c20.5,19.4-25.9,49.6-25.9,49.6L622.9,527.4z"/>
		<path style="clip-path:url(#SVGID_00000102534323205609460760000013674976611735912843_);fill:#A6528B;" d="M621.8,517.7
			c0,0-4.3-88.9-41-105.1c-36.7-16.2-37.7,24.3-27,34c0,0-23.1-23.7-35-3.2c-11.3,19.4,16.7,36.7,16.7,36.7s-30.2,12.9-8.6,36.7
			C548.5,540.4,621.8,517.7,621.8,517.7z"/>
		<path style="clip-path:url(#SVGID_00000102534323205609460760000013674976611735912843_);fill:#C6528B;" d="M591,508.7
			c0,0-20.1-18.9-41.4-28.4c-21.3-9.5-1.2-42.6,24.9-10.7c26,32,27.2,52.1,27.2,52.1s0-46.2-14.2-69.8
			c-14.2-23.7-6.3-47.3,14.2-39.1c27.6,11.1,8.3,90,8.3,90s4.7-40.2,28.4-40.2c23.7,0,10.7,28.4-8.3,49.7
			C611.2,533.6,607.6,535.9,591,508.7z"/>
		<g style="opacity:0.46;clip-path:url(#SVGID_00000102534323205609460760000013674976611735912843_);">
			<path class="st34" d="M590.6,500.8c0.1-0.1,0.2-0.2,0.2-0.4c-0.5-4.4-2.2-8.4-2.2-8.5c-0.1-0.2-0.3-0.3-0.5-0.2
				c-0.2,0.1-0.3,0.3-0.2,0.5c0,0,1.4,3.5,2,7.6c-3.2-4.4-6.7-8.5-10.2-12.1c0,0,0-0.1,0-0.1c-0.6-6-1.8-8.6-1.8-8.7
				c-0.1-0.2-0.3-0.3-0.5-0.2c-0.2,0.1-0.3,0.3-0.2,0.5c0,0,1,2.4,1.7,7.7c-3.5-3.5-7.1-6.6-10.4-9.2c-1.3-6.2-3.7-10.5-3.7-10.6
				c-0.1-0.2-0.3-0.3-0.5-0.2c-0.2,0.1-0.3,0.3-0.2,0.5c0,0,2.1,3.9,3.4,9.4c-4.2-3.3-8-5.9-10.8-7.6c0-0.1,0-0.1,0-0.2
				c-0.6-2.1-1.5-3.2-1.5-3.2c-0.1-0.2-0.4-0.2-0.6,0c-0.2,0.1-0.2,0.4,0,0.6c0,0,0.7,0.8,1.2,2.3c-2.2-1.3-3.5-2.1-3.6-2.1
				c-0.2-0.1-0.4,0-0.5,0.2c-0.1,0.2,0,0.4,0.2,0.5c0.1,0.1,3.2,1.7,7.7,4.7c-3.4,0.8-6.2,0.5-6.2,0.5c-0.2,0-0.4,0.1-0.4,0.3
				c0,0.2,0.1,0.4,0.3,0.4c0.1,0,0.6,0.1,1.5,0.1c1.3,0,3.3-0.1,5.5-0.7c0,0,0.1,0,0.1,0c3.7,2.5,8.2,5.9,12.9,10
				c-3.4,0.2-7.1-1.2-7.1-1.2c-0.2-0.1-0.4,0-0.5,0.2c-0.1,0.2,0,0.4,0.2,0.5c0.2,0.1,3.3,1.3,6.7,1.3c0.5,0,1,0,1.6-0.1
				c3.8,3.4,7.7,7.4,11.4,11.9c-2.8,0.4-5.5-1-5.5-1c-0.2-0.1-0.4,0-0.5,0.2c-0.1,0.2,0,0.4,0.2,0.5c0.1,0.1,2.3,1.2,4.8,1.2
				c0.5,0,1.1-0.1,1.6-0.2c6.8,8.4,12.6,18.6,15.2,30.3c0,0.2,0.2,0.3,0.4,0.3c0,0,0.1,0,0.1,0c0.2,0,0.3-0.3,0.3-0.5
				C599.8,516.6,595.6,508.2,590.6,500.8z"/>
			<path class="st34" d="M574.3,436.8c-4-0.7-6.6-2.5-6.6-2.5c-0.2-0.1-0.4-0.1-0.5,0.1c-0.1,0.2-0.1,0.4,0.1,0.5
				c0.1,0.1,3,2.1,7.5,2.8c0,0,0,0,0.1,0c0,0,0,0,0,0c3.7,6.3,8,14.3,12,23.7c-7.8-2.5-13.2-9.9-13.2-9.9c-0.1-0.2-0.4-0.2-0.5-0.1
				c-0.2,0.1-0.2,0.4-0.1,0.5c0.2,0.3,5.8,8,14.1,10.4c0,0,0.1,0,0.1,0c0,0,0,0,0,0c2.4,5.6,4.7,11.7,6.7,18.1
				c-3.8-0.6-7.5-4.3-7.5-4.3c-0.2-0.2-0.4-0.2-0.6,0c-0.2,0.2-0.2,0.4,0,0.6c0.2,0.2,4.2,4.1,8.3,4.6c2,6.5,3.8,13.5,5.1,20.7
				c0,0.2,0.2,0.3,0.4,0.3c0,0,0,0,0.1,0c0.2,0,0.4-0.2,0.3-0.5c-3.8-21.2-11.4-39.8-18.6-53.8c1.3-6.9-0.4-10.1-0.5-10.2
				c-0.1-0.2-0.3-0.3-0.5-0.2c-0.2,0.1-0.3,0.3-0.2,0.5c0,0,1.4,2.8,0.6,8.7c-3.6-6.9-7.1-12.6-9.8-16.9c0,0,0.1-0.1,0.1-0.2
				c0.9-4.6-0.2-7.3-0.2-7.4c-0.1-0.2-0.3-0.3-0.5-0.2c-0.2,0.1-0.3,0.3-0.2,0.5c0,0,0.9,2.4,0.3,6.4c-3.2-4.9-5.4-7.6-5.4-7.7
				c-0.1-0.2-0.4-0.2-0.6-0.1c-0.2,0.1-0.2,0.4-0.1,0.6C564.5,422,568.7,427.5,574.3,436.8z"/>
			<path class="st34" d="M567.5,504.5c-3.4-7.6-9.4-14-9.5-14.1c-0.1-0.2-0.4-0.2-0.6,0c-0.2,0.1-0.2,0.4,0,0.6
				c0.1,0.1,5.6,6,9,13.1c-4.8-1.9-9.3-3.2-13.4-4.1c-0.1,0-0.1,0-0.2,0c-5.5-1.2-10.3-1.7-14-1.8c0-0.1,0-0.2-0.1-0.3
				c-3.1-2.6-4.7-3.4-4.8-3.4c-0.2-0.1-0.4,0-0.5,0.2c-0.1,0.2,0,0.4,0.2,0.5c0,0,1.5,0.7,4.2,3c-4.9,0-7.7,0.5-7.8,0.5
				c-0.2,0-0.3,0.3-0.3,0.5c0,0.2,0.3,0.3,0.5,0.3c0.2,0,8.6-1.7,21.8,1.1c-4.4,3.9-11,4.7-11.1,4.7c-0.2,0-0.4,0.2-0.3,0.4
				c0,0.2,0.2,0.3,0.4,0.3c0,0,0,0,0,0c0.3,0,7.3-0.9,11.9-5.3c11.4,2.6,26.3,8.4,42.6,21.4c0.1,0.1,0.2,0.1,0.2,0.1
				c0.1,0,0.2-0.1,0.3-0.1c0.1-0.2,0.1-0.4-0.1-0.6C585.8,513.4,576.1,508,567.5,504.5z"/>
			<path class="st34" d="M639.4,484.2c0,0-3.6,3.6-13.2,8c3.7-5.8,7.7-11.5,12-16.8c0.1-0.2,0.1-0.4-0.1-0.6
				c-0.2-0.1-0.4-0.1-0.6,0.1c-1.5,1.8-2.9,3.7-4.3,5.6c-0.2-2.7,0.3-5.2,0.3-5.2c0-0.2-0.1-0.4-0.3-0.5c-0.2,0-0.4,0.1-0.5,0.3
				c0,0.1-0.6,3.2-0.2,6.2c0,0,0,0,0,0c-5.7,7.8-10.7,16.1-14.9,23.6c-0.2-8,2-19.6,2-19.7c0-0.2-0.1-0.4-0.3-0.5
				c-0.2,0-0.4,0.1-0.5,0.3c0,0.1-2.5,13.1-2,21.1c0,0,0,0,0,0c-5.2,9.4-9,17.5-10.7,21.3c1.6-14.5,1.6-28.7,0.6-41.8
				c0,0,0.1-0.1,0.1-0.1c3.7-9.2,5-16.2,5.1-16.2c0-0.2-0.1-0.4-0.3-0.5c-0.2,0-0.4,0.1-0.5,0.3c0,0.1-1.2,6.3-4.5,14.8
				c-0.7-8.4-1.7-16.3-3-23.4c0.1,0,0.1-0.1,0.1-0.2c4.2-11.5,3.4-20.2,3.3-20.3c0-0.2-0.2-0.4-0.4-0.3c-0.2,0-0.4,0.2-0.3,0.4
				c0,0.1,0.8,8.2-2.9,18.9c-2.1-12-4.6-21.8-6.4-28.1c0,0,0.1-0.1,0.1-0.1c1.3-2,1.5-5.3,1.5-5.4c0-0.2-0.2-0.4-0.4-0.4
				c-0.2,0-0.4,0.2-0.4,0.4c0,0-0.2,2.7-1.1,4.5c-1.3-4.3-2.1-6.8-2.2-6.9c-0.1-0.2-0.3-0.3-0.5-0.2c-0.2,0.1-0.3,0.3-0.2,0.5
				c0.1,0.2,2.5,7.1,5.3,18.6c-4.2-3.1-9.5-8.7-9.6-8.7c-0.1-0.2-0.4-0.2-0.6,0c-0.2,0.1-0.2,0.4,0,0.6c0.1,0.1,5.8,6.1,10.1,9.1
				c0.1,0.1,0.1,0.1,0.2,0.1c0,0,0,0,0,0c1.9,7.9,3.8,17.7,5.3,28.9c-6.1-7.2-10.5-15.8-10.6-15.9c-0.1-0.2-0.3-0.3-0.5-0.2
				c-0.2,0.1-0.3,0.3-0.2,0.5c0,0.1,4.9,9.5,11.5,17c0.9,7.5,1.6,15.6,1.9,24.1c-2.4-3.5-4.2-8.5-4.2-8.6c-0.1-0.2-0.3-0.3-0.5-0.2
				c-0.2,0.1-0.3,0.3-0.2,0.5c0.1,0.2,2.1,5.8,4.8,9.4c0,0.1,0.1,0.1,0.2,0.1c0.2,10.1-0.2,20.6-1.5,31.3l-0.4,2.8l1.1-2.6
				c0.1-0.1,2.3-5.4,6.2-13.1c0,0,0,0,0,0c12.6-6.3,15.7-9.8,15.8-10c0.1-0.2,0.1-0.4,0-0.6c-0.2-0.1-0.4-0.1-0.6,0
				c0,0-3,3.5-14.7,9.3c3.3-6.5,7.6-14.5,12.7-22.6c0.1,0,0.1,0,0.1,0c10.4-4.7,14.2-8.5,14.3-8.6c0.2-0.2,0.2-0.4,0-0.6
				C639.8,484,639.5,484,639.4,484.2z"/>
			<path class="st34" d="M533.8,451c3,1.8,6.4,4.4,8.9,8c0.1,0.1,0.2,0.2,0.3,0.2c0.1,0,0.2,0,0.2-0.1c0.2-0.1,0.2-0.4,0.1-0.5
				c-0.8-1.1-1.6-2.2-2.6-3.1c0,0,0-0.1,0-0.1c-0.1-4.1-1.2-6.7-1.3-6.8c-0.1-0.2-0.3-0.3-0.5-0.2c-0.2,0.1-0.3,0.3-0.2,0.5
				c0,0,1,2.3,1.2,5.8c-5.9-5.7-13.3-7.7-13.4-7.8c-0.2-0.1-0.4,0.1-0.5,0.3c-0.1,0.2,0.1,0.4,0.3,0.5c0.1,0,3,0.8,6.6,2.9
				c-2.9,1.5-5.3,1.8-5.4,1.8c-0.2,0-0.4,0.2-0.4,0.4c0,0.2,0.2,0.4,0.4,0.4c0,0,0,0,0,0C527.9,453.1,530.6,452.8,533.8,451
				C533.8,451,533.8,451,533.8,451z"/>
			<path class="st34" d="M647.6,462.9c0.1,0.1,0.2,0.1,0.2,0.1c0,0,0,0,0,0c-0.1,0.2-0.1,0.4-0.2,0.7c-0.1,0.2,0.1,0.4,0.3,0.5
				c0,0,0.1,0,0.1,0c0.2,0,0.3-0.1,0.4-0.3c0.6-2.1,1.2-4.2,1.9-6.1c0,0,0,0,0,0c0,0,0,0,0,0c8.3-0.7,12.3-4.6,12.5-4.8
				c0.2-0.2,0.2-0.4,0-0.6c-0.2-0.2-0.4-0.2-0.6,0c0,0-3.9,3.8-11.7,4.5c4.3-11.8,10.2-19,10.3-19.1c0.1-0.2,0.1-0.4-0.1-0.6
				c-0.2-0.1-0.4-0.1-0.6,0.1c0,0.1-2.8,3.4-5.9,9.3c-1.8-3.8-0.3-10.1-0.3-10.2c0.1-0.2-0.1-0.4-0.3-0.5c-0.2,0-0.4,0.1-0.5,0.3
				c-0.1,0.3-1.6,6.8,0.4,10.9c0.1,0.1,0.1,0.2,0.2,0.2c-2.1,4-4.3,9.1-6,14.9c-6.9-5.2-5.8-13.7-5.7-13.8c0-0.2-0.1-0.4-0.3-0.4
				c-0.2,0-0.4,0.1-0.4,0.3C641.5,448.4,640.3,457.4,647.6,462.9z"/>
			<path class="st34" d="M699.8,492.3c-0.1-0.2-0.3-0.3-0.5-0.3c-0.1,0-10.5,3-20.2,0.7c10.9-9.5,19.4-14.9,19.8-15.1
				c0.2,0,0.3-0.2,0.3-0.4c0-0.2-0.2-0.4-0.4-0.4c-0.3,0-3.3,1.8-7.8,5.2c0.3-4.8,2.9-8.2,2.9-8.3c0.1-0.2,0.1-0.4-0.1-0.5
				c-0.2-0.1-0.4-0.1-0.5,0.1c-0.1,0.2-3,4-3.1,9.3c-5.8,4.4-14,11.1-22.3,19.6c-0.9-9.4,2.3-18.6,2.3-18.7c0.1-0.2,0-0.4-0.2-0.5
				c-0.2-0.1-0.4,0-0.5,0.2c0,0.1-3.4,9.7-2.4,19.4c0,0.1,0.1,0.2,0.1,0.2c-10,10.3-20.2,23.1-26.8,37.4c-0.1,0.2,0,0.4,0.2,0.5
				c0.1,0,0.1,0,0.2,0c0.1,0,0.3-0.1,0.4-0.2c9.3-20,24.7-36.3,37.2-47.3c2.9,0.8,6,1.1,8.8,1.1c6.8,0,12.3-1.6,12.4-1.6
				C699.7,492.7,699.8,492.5,699.8,492.3z"/>
		</g>
	</g>
</g>
</svg>
