<?xml version="1.0" encoding="utf-8"?>
<!-- Generator: Adobe Illustrator 27.2.0, SVG Export Plug-In . SVG Version: 6.00 Build 0)  -->
<svg version="1.1" id="Capa_1" xmlns="http://www.w3.org/2000/svg" xmlns:xlink="http://www.w3.org/1999/xlink" x="0px" y="0px"
	 viewBox="0 0 1125 2436" style="enable-background:new 0 0 1125 2436;" xml:space="preserve">
<style type="text/css">
	.st0{clip-path:url(#SVGID_00000005959695467766128260000010606750810125763003_);}
	.st1{fill:#FFDAAA;}
	.st2{fill:#DF8AA7;}
	.st3{fill:#FFB6B6;}
	.st4{fill:#B08097;}
	.st5{fill:#DA7EA6;}
	.st6{fill:#905975;}
	.st7{fill:#A27489;}
	.st8{fill:#FF8F9F;}
	.st9{fill:#7D395C;}
	.st10{opacity:0.13;fill:#606060;}
	.st11{fill:#D1538D;}
	.st12{fill:#DF6A8C;}
	.st13{fill:#E2518D;}
	.st14{fill:#AC518D;}
	.st15{fill:#BA518D;}
	.st16{fill:#E2517A;}
	.st17{fill:#C4518D;}
	.st18{fill:#ED6A8C;}
	.st19{opacity:0.3;}
	.st20{fill:#B0518D;}
	.st21{fill:#E25170;}
	.st22{opacity:0.26;fill:#B0518D;}
	.st23{fill:#AE778D;}
	.st24{opacity:0.26;fill:#606060;}
	.st25{opacity:0.55;fill:#FFECDB;}
	.st26{fill:#FFAAB5;}
	.st27{fill:#CF628D;}
	.st28{display:none;}
	.st29{display:inline;}
	.st30{display:inline;clip-path:url(#SVGID_00000012463639853103505730000003383174147794183052_);fill:#98518D;}
	.st31{display:inline;clip-path:url(#SVGID_00000012463639853103505730000003383174147794183052_);fill:#BC518D;}
	.st32{display:inline;clip-path:url(#SVGID_00000012463639853103505730000003383174147794183052_);fill:#E2518D;}
	.st33{display:inline;opacity:0.46;clip-path:url(#SVGID_00000012463639853103505730000003383174147794183052_);}
	.st34{fill:#FFB2BF;}
	.st35{fill:#C65EA7;}
	.st36{opacity:9.000000e-02;}
	.st37{fill:#040404;}
	.st38{opacity:0.31;}
	.st39{fill:#E06181;}
	.st40{opacity:0.38;}
	.st41{fill:#313534;}
	.st42{fill:#F3EEEA;}
	.st43{opacity:0.17;}
	.st44{fill:#73355F;}
	.st45{opacity:0.4;}
	.st46{clip-path:url(#SVGID_00000135688883867683123340000000866285085255780757_);}
	.st47{fill:#F7D0CB;}
	.st48{opacity:0.34;fill:#FFFDF9;}
	.st49{opacity:0.59;fill:#FFFDF9;}
	.st50{clip-path:url(#SVGID_00000000922761187358852590000004787497620114931385_);}
</style>
<g>
	<defs>
		<rect id="SVGID_00000035499719762596687410000014945316876164100992_" x="-62.2" y="-36.7" width="1240.6" height="2509.5"/>
	</defs>
	<clipPath id="SVGID_00000120532815297189757100000002319351595499969668_">
		<use xlink:href="#SVGID_00000035499719762596687410000014945316876164100992_"  style="overflow:visible;"/>
	</clipPath>
	<g style="clip-path:url(#SVGID_00000120532815297189757100000002319351595499969668_);">
		<rect x="-1926.3" y="-82.5" class="st47" width="4318.9" height="2600.9"/>
		<path class="st48" d="M-1926.6,815.7c10-5.8,20.2-7.9,30.5-5.7c219,45.7,282.9,256.1,282.9,256.1s-15.5-509,504.8-463.2
			c520.2,45.7,526.6,463.2,526.6,463.2c237.3-365.9,529.4,0,529.4,0C-25,892.4,121,965.5,121,965.5
			C75.4,791.7,391.9,528,747.9,692.7c356,164.6,276.7,364.3,358.9,364.3c82.1,0,92-305.2,516.4-422.8
			c357.7-99.1,629.5,72.8,773.4,210.7v1673.5h-4323.1V815.7z"/>
		<path class="st49" d="M2396.5,1151.3c-175.4,9.2-297.2,202.3-297.2,202.3c-179.1-228.5-341.9-326.4-545.7-274.2
			c-203.8,52.2-358,331.3-358,331.3c-40.7-138.7-309.4-326.4-512.9-228.5c-203.5,97.9-252.4,310.1-252.4,310.1
			s-48.8-179.5-293.1-269.3c-244.2-89.8-423.4,163.2-423.4,163.2c-203.5-408-561.8-138.7-561.8-138.7s-81.4-212.1-260.5-171.3
			c-179.1,40.8-208.6,223.4-208.6,223.4l-609.6,972.1v246.8h4323.1V1151.3z"/>
	</g>
</g>
<g>
	<defs>
		<rect id="SVGID_00000160148108364130279450000012275157113651206058_" x="1720.7" y="-42.8" width="1164.8" height="1029.4"/>
	</defs>
	<clipPath id="SVGID_00000178904895374013321670000003669168019243541137_">
		<use xlink:href="#SVGID_00000160148108364130279450000012275157113651206058_"  style="overflow:visible;"/>
	</clipPath>
	<g style="clip-path:url(#SVGID_00000178904895374013321670000003669168019243541137_);">
		<g>
			<path class="st13" d="M574.4,262.8c0,0-48.2,26.4-47.5,68.7c0.7,42.2,0.7,42.2,0.7,42.2s29.4-30.6,42-56.1
				C582.1,292.1,574.4,262.8,574.4,262.8z"/>
			<path class="st5" d="M833.8,148c0,0-54.4,8.1-68.4,47.9c-14,39.9-14,39.9-14,39.9s38.2-18.5,58.8-38.1
				C830.9,178.2,833.8,148,833.8,148z"/>
			<path class="st5" d="M626.3,502.8c0,0-29.8,25-17.3,53.4C608.9,556.1,634.5,541.8,626.3,502.8z"/>
			<path class="st35" d="M926.4,80.1c0,0-29.8,25-17.3,53.4C909,133.5,934.6,119.2,926.4,80.1z"/>
			<path class="st13" d="M1076.8-24.9c0,0-10.1,54.3,29.1,74.1C1105.9,49.3,1121,10.5,1076.8-24.9z"/>
			<path class="st5" d="M1001.5,134.7c0,0-19.6,11.4-9.4,28.9C992.1,163.6,1006.4,154.1,1001.5,134.7z"/>
		</g>
		<g>
			<path class="st5" d="M674.2,126.1c0,0-16.8-14.5-37.7-28.9c-20.9-14.4-28.1-58.7-28.1-58.7s21.9,0,38.1,17.6
				c16.2,17.6,19.6,52.3,19.6,52.3l14.9,15.7L674.2,126.1z"/>
		</g>
	</g>
</g>
</svg>
