<?xml version="1.0" encoding="utf-8"?>
<!-- Generator: Adobe Illustrator 27.2.0, SVG Export Plug-In . SVG Version: 6.00 Build 0)  -->
<svg version="1.1" xmlns="http://www.w3.org/2000/svg" xmlns:xlink="http://www.w3.org/1999/xlink" x="0px" y="0px"
	 viewBox="0 0 1125 2436" style="enable-background:new 0 0 1125 2436;" xml:space="preserve">
<style type="text/css">
	.st0{clip-path:url(#SVGID_00000137812246560159027510000009500340410483896500_);}
	.st1{fill:#FFDAAA;}
	.st2{fill:#DF8AA7;}
	.st3{fill:#FFB6B6;}
	.st4{fill:#B08097;}
	.st5{fill:#DA7EA6;}
	.st6{fill:#905975;}
	.st7{fill:#A27489;}
	.st8{fill:#FF8F9F;}
	.st9{fill:#7D395C;}
	.st10{opacity:0.13;fill:#606060;}
	.st11{fill:#D1538D;}
	.st12{fill:#DF6A8C;}
	.st13{fill:#E2518D;}
	.st14{fill:#AC518D;}
	.st15{fill:#BA518D;}
	.st16{fill:#E2517A;}
	.st17{fill:#C4518D;}
	.st18{fill:#ED6A8C;}
	.st19{opacity:0.3;}
	.st20{fill:#B0518D;}
	.st21{fill:#E25170;}
	.st22{opacity:0.26;fill:#B0518D;}
	.st23{fill:#AE778D;}
	.st24{opacity:0.26;fill:#606060;}
	.st25{opacity:0.55;fill:#FFECDB;}
	.st26{fill:#FFAAB5;}
	.st27{fill:#CF628D;}
	.st28{display:none;}
	.st29{display:inline;}
	.st30{display:inline;clip-path:url(#SVGID_00000139252500446301337330000015825582329344334978_);fill:#98518D;}
	.st31{display:inline;clip-path:url(#SVGID_00000139252500446301337330000015825582329344334978_);fill:#BC518D;}
	.st32{display:inline;clip-path:url(#SVGID_00000139252500446301337330000015825582329344334978_);fill:#E2518D;}
	.st33{display:inline;opacity:0.46;clip-path:url(#SVGID_00000139252500446301337330000015825582329344334978_);}
	.st34{fill:#FFB2BF;}
	.st35{fill:#C65EA7;}
	.st36{opacity:9.000000e-02;}
	.st37{fill:#040404;}
	.st38{opacity:0.31;}
	.st39{fill:#E06181;}
	.st40{opacity:0.38;}
	.st41{fill:#313534;}
	.st42{fill:#F3EEEA;}
	.st43{opacity:0.17;}
	.st44{fill:#73355F;}
	.st45{opacity:0.4;}
	.st46{clip-path:url(#SVGID_00000133503575564585111300000010014744938950263968_);}
	.st47{fill:#F7D0CB;}
	.st48{opacity:0.34;fill:#FFFDF9;}
	.st49{opacity:0.59;fill:#FFFDF9;}
	.st50{clip-path:url(#SVGID_00000099628078078601027090000007514619147778446996_);}
</style>
<g id="Capa_1">
</g>
<g id="Capa_2">
	<g>
		<defs>
			<rect id="SVGID_00000052793366873833094080000006285812215846309294_" x="-16.1" y="-42.8" width="1164.8" height="1029.4"/>
		</defs>
		<clipPath id="SVGID_00000044857632229291536320000010719604422561586573_">
			<use xlink:href="#SVGID_00000052793366873833094080000006285812215846309294_"  style="overflow:visible;"/>
		</clipPath>
		<g style="clip-path:url(#SVGID_00000044857632229291536320000010719604422561586573_);">
			<g>
				<path class="st5" d="M4.3,658.8c0,0-29.8,25-17.3,53.4C-13,712.2,12.5,697.9,4.3,658.8z"/>
				<path class="st5" d="M279.1,690.9c0,0-10.1,54.3,29.1,74.1C308.2,765,323.3,726.3,279.1,690.9z"/>
				<path class="st5" d="M228.2,200.4c0,0-42.2,39.8-0.3,103.6C228,304,267.1,237.9,228.2,200.4z"/>
				<path class="st5" d="M502.5,442.3c0,0,5.7,57.7,81.8,63.6C584.3,505.9,555.9,434.5,502.5,442.3z"/>
				<path class="st5" d="M173.3,284.5c0,0-19.6,11.4-9.4,28.9C163.9,313.4,178.2,303.8,173.3,284.5z"/>
				<path class="st5" d="M466.4,43.2c0,0-6.3-21.8-25.7-16.3C440.8,26.9,446.4,43.1,466.4,43.2z"/>
				<path class="st35" d="M89.3,330.6c0,0,21,7,45.8,12.4c24.8,5.4,48.3,43.7,48.3,43.7s-20.3,8.3-41.9-1.8
					c-21.7-10.1-37.9-40.9-37.9-40.9l-19.8-8.9L89.3,330.6z"/>
			</g>
			<g>
				<path class="st5" d="M1084.7,577.1c0,0,54.7-6.1,70-45.5c15.4-39.3,15.4-39.3,15.4-39.3s-38.9,17.2-60.2,35.9
					C1088.7,547,1084.7,577.1,1084.7,577.1z"/>
				<path class="st5" d="M1098.1,698c0,0,37.1-11.8,36.3-42.8C1134.4,655.2,1105.4,658.7,1098.1,698z"/>
				<path class="st5" d="M882.3,613.2c0,0,17.6,52.4,61.5,50.6C943.9,663.8,938.2,622.6,882.3,613.2z"/>
				<path class="st13" d="M854,853.8c0,0,30-46.4,1.2-79.7C855.1,774.1,826.5,804.2,854,853.8z"/>
				<path class="st13" d="M866.6,356.3c0,0,54.1-20.8,39.6-95.7C906.1,260.6,844.9,306.9,866.6,356.3z"/>
				<path class="st5" d="M701.6,52.2c0,0,16.6-55.6-51.5-89.8C650.1-37.6,649.3,39.2,701.6,52.2z"/>
				<path class="st5" d="M936.6,312.1c0,0,22.5-3.2,19.7-23.1C956.2,288.9,939.4,292.3,936.6,312.1z"/>
				<path class="st5" d="M573.8,424.1c0,0-2.5,22.6,17.6,24.8C591.4,448.9,592.3,431.7,573.8,424.1z"/>
				<path class="st5" d="M1031.8,301.3c0,0-16.8-14.5-37.7-28.9c-20.9-14.4-28.1-58.7-28.1-58.7s21.9,0,38.1,17.6
					c16.2,17.6,19.6,52.3,19.6,52.3l14.9,15.7L1031.8,301.3z"/>
			</g>
		</g>
	</g>
</g>
</svg>
