<?xml version="1.0" encoding="utf-8"?>
<!-- Generator: Adobe Illustrator 27.2.0, SVG Export Plug-In . SVG Version: 6.00 Build 0)  -->
<svg version="1.1" id="Capa_1" xmlns="http://www.w3.org/2000/svg" xmlns:xlink="http://www.w3.org/1999/xlink" x="0px" y="0px"
	 viewBox="0 0 1125 2436" style="enable-background:new 0 0 1125 2436;" xml:space="preserve">
<style type="text/css">
	.st0{clip-path:url(#SVGID_00000075868960059548633230000001706243080179290518_);}
	.st1{fill:#FFDAAA;}
	.st2{fill:#DF8AA7;}
	.st3{fill:#FFB6B6;}
	.st4{fill:#B08097;}
	.st5{fill:#DA7EA6;}
	.st6{fill:#905975;}
	.st7{fill:#A27489;}
	.st8{fill:#FF8F9F;}
	.st9{fill:#7D395C;}
	.st10{opacity:0.13;fill:#606060;}
	.st11{fill:#D1538D;}
	.st12{fill:#DF6A8C;}
	.st13{fill:#E2518D;}
	.st14{fill:#AC518D;}
	.st15{fill:#BA518D;}
	.st16{fill:#E2517A;}
	.st17{fill:#C4518D;}
	.st18{fill:#ED6A8C;}
	.st19{opacity:0.3;}
	.st20{fill:#B0518D;}
	.st21{fill:#E25170;}
	.st22{opacity:0.26;fill:#B0518D;}
	.st23{fill:#AE778D;}
	.st24{opacity:0.26;fill:#606060;}
	.st25{opacity:0.55;fill:#FFECDB;}
	.st26{fill:#FFAAB5;}
	.st27{fill:#CF628D;}
	.st28{display:none;}
	.st29{display:inline;}
	.st30{display:inline;clip-path:url(#SVGID_00000129182382697831859670000000328825047398576827_);fill:#98518D;}
	.st31{display:inline;clip-path:url(#SVGID_00000129182382697831859670000000328825047398576827_);fill:#BC518D;}
	.st32{display:inline;clip-path:url(#SVGID_00000129182382697831859670000000328825047398576827_);fill:#E2518D;}
	.st33{display:inline;opacity:0.46;clip-path:url(#SVGID_00000129182382697831859670000000328825047398576827_);}
	.st34{fill:#FFB2BF;}
	.st35{fill:#C65EA7;}
	.st36{opacity:9.000000e-02;}
	.st37{fill:#040404;}
	.st38{opacity:0.31;}
	.st39{fill:#E06181;}
	.st40{opacity:0.38;}
	.st41{fill:#313534;}
	.st42{fill:#F3EEEA;}
	.st43{opacity:0.17;}
	.st44{fill:#73355F;}
	.st45{opacity:0.4;}
	.st46{clip-path:url(#SVGID_00000139258929532235489220000013614913579539341696_);}
	.st47{fill:#F7D0CB;}
	.st48{opacity:0.34;fill:#FFFDF9;}
	.st49{opacity:0.59;fill:#FFFDF9;}
	.st50{clip-path:url(#SVGID_00000091705292213763475020000015160804084348741794_);}
</style>
<g>
	<defs>
		<rect id="SVGID_1_" x="-38.8" y="-36.7" width="1202.7" height="2509.5"/>
	</defs>
	<clipPath id="SVGID_00000024685733815801180640000006959113878406642863_">
		<use xlink:href="#SVGID_1_"  style="overflow:visible;"/>
	</clipPath>
	<g style="clip-path:url(#SVGID_00000024685733815801180640000006959113878406642863_);">
		<rect x="-2524.4" y="1501.8" class="st1" width="3819.5" height="991.1"/>
		<path class="st2" d="M-1248.5,61.8c97.2,97.2,178.2,27,178.2,27s0,129.6,102.6,151.2c102.6,21.6,129.6-37.8,129.6-37.8
			s97.2,54,172.8-5.4c75.6-59.4,75.6-129.6,75.6-129.6s5.4,70.2,75.6,70.2c50.6,0,67.5-28,73-43.7c-6.1,30.7-11.7,119.3,126.8,119.3
			c0,0,10.8,102.6,135,91.8c124.2-10.8,135-113.4,135-113.4s10.8,91.8,91.8,113.4c81,21.6,135-75.6,135-75.6s-16.2,70.2,54,64.8
			c70.2-5.4,64.8-59.4,64.8-59.4s108,86.4,145.8-48.6c0,0,113.4,118.8,189-10.8c0,0,10.8,135,113.4,118.8
			c102.6-16.2,113.4-59.4,113.4-59.4s0,151.2,135,167.4c135,16.2,151.2-43.2,151.2-43.2s-8.7,148,145.9,131.3V-53.4H-1313
			C-1307.7-21.3-1291.1,19.2-1248.5,61.8z"/>
		<path class="st3" d="M-1851.5,1278.6c0,0,295.2,86.4,540,36c244.8-50.4,439.2,115.2,554.4,122.4c115.2,7.2,388.8,57.6,655.2,28.8
			c266.4-28.8,511.2,79.2,511.2,79.2l-468,93.6c0,0-194.4-86.4-439.2-86.4s-720,28.8-720,28.8L-1851.5,1278.6z"/>
		<path class="st7" d="M756.4-53.4c0.7,28.6,10.9,420.8,17.1,561c6.4,145.5,47.1,556.3,49.2,673.9c2.1,117.7,15,404.4,15,417.2
			c0,12.8,19.3-21.4,49.2-15c30,6.4,55.6,10.7,55.6,10.7l-2.1-19.3l21.4,8.6c0,0-62-432.2-79.2-652.5
			c-17.1-220.4-36.4-699.6-40.7-789.5c-2.6-55.3,2-139,6-195.1H756.4z"/>
		<path class="st7" d="M910.4,520.4c27.8,205.4,30,455.7,32.1,609.8c2.1,154,6.4,438.6,6.4,438.6l53.5-2.1l59.9-892.2L969.8-53.4
			H848.9C853.4-4.8,884.7,330.2,910.4,520.4z"/>
		<path class="st6" d="M645.3,616.7c-8.6,128.4-32.1,997-32.1,997s117.7,6.4,111.3-32.1c-6.4-38.5-30-633.3-23.5-817.3
			c5.6-159.1,1.5-679.8,0.3-817.7h-43.4C646.1,120.1,652.5,508.8,645.3,616.7z"/>
		<path class="st6" d="M324.2,342.8c12.8,98.4,49.2,415.1,68.5,554.1c19.3,139.1,51.3,736,51.3,736c21.4,12.8,83.4-15,83.4-15
			s-25.7-119.8-30-213.9c-4.3-94.1-23.5-626.9-89.9-866.5c-53.5-193.2-62.4-485-63.9-590.9h-51.5
			C287.3,49.1,313.4,259.9,324.2,342.8z"/>
		<path class="st8" d="M934.9,1437c-162,14.4-262.8,7.2-360,36c-97.2,28.8-230.4-7.2-334.8,28.8c-104.4,36-180,25.2-334.8,61.2
			c-154.8,36-457.2,162-579.6,208.8c-122.4,46.8-291.6,75.6-486,75.6c-194.4,0-457.2,104.4-284.4,147.6c172.8,43.2,576,0,576,0
			s-10.8,10.8-190.8,72c-180,61.2-457.2,64.8-421.2,147.6c36,82.8,252,86.4,669.6,158.4c186,32.1,282.7,78.4,332.7,119.9h1773.4
			V1409C1209.9,1428.5,1079.6,1424.1,934.9,1437z"/>
		<path class="st9" d="M978.9,190.9c21.4,162.6,30,320.9,17.1,432.2c-12.8,111.3,17.1,586.2,8.6,740.3
			c-8.6,154-81.3,483.5-47.1,496.4c34.2,12.8,55.6-81.3,55.6-81.3s17.1,74.9,27.8,85.6c10.7,10.7,30-83.4,30-83.4l42.8,79.2
			c0,0,25.7-66.3,23.5-83.4c-2.1-17.1,85.6,89.9,83.4,74.9c-2.1-15-2.1-87.7-2.1-87.7l27.8,6.4c0,0-57.8-282.4-53.5-633.3
			c4.3-350.9-23.5-917.8-32.1-1039.8c-4.5-64.7-14.5-116.1-22.9-150.2H942.8C949.6-12.7,963.6,74.9,978.9,190.9z"/>
		<path class="st9" d="M514.1-53.4c-20.8,277.4,29,850.1,39,1025.2c10.7,186.1,55.6,703.9,55.6,703.9s0,0,15-21.4
			c15-21.4,47.1,6.4,47.1,0c0-6.4,27.8-25.7,42.8-25.7c15,0,42.8,0,42.8,0c-68.5-85.6-126.2-504.9-160.5-1035.5
			C573,238.2,579.8,39.4,586.8-53.4H514.1z"/>
		<path class="st9" d="M171.8-53.4H32.9C31.7,34.7,26.6,330.2,14,460.5c-15,154-2.1,299.5-8.6,522C-1,1205-28.8,1699.3-31,1714.2
			c-2.1,15,38.5-12.8,38.5-12.8s17.1,32.1,25.7,17.1c8.6-15,15-17.1,23.5-4.3c8.6,12.8,19.3,21.4,19.3,21.4l23.5-23.5
			c0,0,27.8,19.3,17.1-10.7c-10.7-30-4.3-843,0-1080.4C120.4,415.2,161,42.6,171.8-53.4z"/>
		<g>
			<path class="st11" d="M-380.9-53.4c-36,21.4-35,117.4,19.8,135.5c86.4,28.5,95.4-40.4,95.4-40.4s0.1-0.2,0.2-0.5
				c2,16.4,8.2,35.8,25,45.7c32.4,19,54-14.3,54-14.3s16.2,64.2,63,52.3c23.7-6,38.7-18.2,47.6-28.7c4.7,32.8,19.3,74.9,80.2,83.4
				C106.9,193.8,106.9,55.9,106.9,55.9s16.2,114.1,97.2,114.1c78.6,0,91.8-64.2,91.8-64.2s86.4,142.6,151.2-21.4
				c0,0,118.8,71.3,167.4-7.1c0,0,102.6,57.1,129.6-49.9c0,0,91.2,0,96.9-80.8H-380.9z"/>
		</g>
		<path class="st13" d="M1295.1-53.4H996.9c-5.8,20.8-5.1,43.4,17.2,55.8c48.6,27,86.4,0,86.4,0s-32.4,64.8,10.8,86.4
			s91.8-21.6,91.8-21.6s-32.4,43.2,43.2,86.4c15.1,8.6,31.8,10.8,48.7,8.7V-53.4z"/>
		<path class="st14" d="M-98.1,2393c0,0-6.9-113.1-51.4-147.3s0-92.5,34.3-54.8c34.3,37.7,24,157.6,24,157.6s22.5-76.5,54.4-110
			c32-33.5,63.9-19.8,63.9,11.4c0,31.2-39.6,37.3-57.9,50.2c-18.3,12.9-40.3,23.6-53.3,60.9c-12.9,37.3-6.1,36.5-6.1,36.5
			L-98.1,2393z"/>
		<path class="st16" d="M951.1,2151.2c0,0-5.3-82.7-35.3-106.8c-30.1-24.1-29.5-56.4-4.5-61.7c36.1-7.5,52.6,46.6,49.6,120.3
			c0,0,15-72.2,52.6-109.8c37.6-37.6,82.7-40.6,76.7,13.5c-4.4,39.2-76.7,45.1-112.8,121.8c0,0,61.7-46.6,100.8-19.5
			c39.1,27.1,4.5,57.1-42.1,42.1c-46.6-15-75.2,4.5-75.2,4.5L951.1,2151.2z"/>
		<g>
			<path class="st17" d="M382.3,1917c0,0-4.8-68.4-64.8-97.2c-60-28.8-91.2,4.8-70.8,31.2c20.4,26.4,48,9.6,86.4,32.4
				C371.5,1906.2,382.3,1917,382.3,1917z"/>
			<path class="st17" d="M414.7,1905c0,0,13.2-49.2-6-128.4c-19.2-79.2-105.6-103.2-115.2-57.6c-9.6,45.6,73.2,66,88.8,94.8
				C397.9,1842.6,405.1,1849.8,414.7,1905z"/>
			<path class="st17" d="M437.5,1909.8c0,0-7.2-56.4,30-92.4c37.2-36,69.6-6,54,21.6C505.9,1866.6,456.7,1866.6,437.5,1909.8z"/>
		</g>
		<path class="st18" d="M420.7,1561.8c0,0,2.4-56.4-39.6-106.8c-42-50.4-70.8-32.4-80.4-8.4c-9.6,24,57.6,39.6,73.2,52.8
			c0,0-48,0-42,20.4C337.9,1540.2,396.7,1506.6,420.7,1561.8z"/>
		<g class="st28">
			<defs>
				<rect id="SVGID_00000044174194349056689630000005532104149913237386_" x="-2524.4" y="1501.8" width="3819.5" height="991.1"/>
			</defs>
			<clipPath id="SVGID_00000105419954185523750870000017001638740219058620_" class="st29">
				<use xlink:href="#SVGID_00000044174194349056689630000005532104149913237386_"  style="overflow:visible;"/>
			</clipPath>
			<path style="display:inline;clip-path:url(#SVGID_00000105419954185523750870000017001638740219058620_);fill:#98518D;" d="
				M625.3,2605.2c0,0,10.8-437.4,124.2-491.4c113.4-54,183.6,91.8,81,264.6c0,0,118.8-151.2,221.4-54
				c102.6,97.2-129.6,248.4-129.6,248.4L625.3,2605.2z"/>
			<path style="display:inline;clip-path:url(#SVGID_00000105419954185523750870000017001638740219058620_);fill:#BC518D;" d="
				M619.9,2556.6c0,0-21.6-445.5-205.2-526.5c-183.6-81-189,121.5-135,170.1c0,0-115.8-118.5-175.5-16.2
				c-56.7,97.2,83.7,183.6,83.7,183.6s-151.2,64.8-43.2,183.6C252.7,2670,619.9,2556.6,619.9,2556.6z"/>
			<path style="display:inline;clip-path:url(#SVGID_00000105419954185523750870000017001638740219058620_);fill:#E2518D;" d="
				M465.9,2511.5c0,0-100.8-94.9-207.5-142.3c-106.7-47.4-5.9-213.5,124.5-53.4c130.5,160.1,136.4,260.9,136.4,260.9
				s0-231.3-71.2-349.8c-71.2-118.6-31.5-236.9,71.2-195.7c138.4,55.6,41.5,450.7,41.5,450.7s23.7-201.6,142.3-201.6
				s53.4,142.3-41.5,249C566.7,2636,548.9,2647.9,465.9,2511.5z"/>
			<g style="display:inline;opacity:0.46;clip-path:url(#SVGID_00000105419954185523750870000017001638740219058620_);">
				<path class="st34" d="M463.5,2471.8c0.6-0.4,1-1.1,0.9-1.9c-2.7-22.1-10.9-42.2-10.9-42.4c-0.4-1-1.6-1.5-2.6-1.1
					c-1,0.4-1.5,1.6-1.1,2.6c0.1,0.2,7.2,17.7,10.2,37.8c-15.9-22.3-33.3-42.5-51-60.6c0.1-0.2,0.1-0.5,0.1-0.7
					c-3.1-30.1-8.9-43.3-9.2-43.8c-0.4-1-1.6-1.4-2.6-1c-1,0.4-1.4,1.6-1,2.6c0.1,0.1,5.2,12,8.4,38.6c-17.6-17.6-35.4-33.1-52-46.3
					c-6.7-30.9-18.5-52.8-18.6-53c-0.5-1-1.7-1.3-2.7-0.8c-1,0.5-1.3,1.7-0.8,2.7c0.1,0.2,10.4,19.5,17.1,47.3
					c-21.2-16.6-40.2-29.3-54-38c0-0.3,0-0.5,0-0.8c-2.8-10.7-7.5-15.9-7.6-16.1c-0.7-0.8-2-0.9-2.8-0.1c-0.8,0.7-0.9,2-0.1,2.8
					c0,0,3.3,3.8,5.8,11.3c-11-6.7-17.6-10.3-18-10.5c-0.9-0.5-2.1-0.1-2.6,0.8c-0.5,1-0.1,2.1,0.8,2.6c0.6,0.3,15.8,8.4,38.6,23.8
					c-17,3.9-30.9,2.4-31,2.4c-1.1-0.1-2.1,0.7-2.2,1.7c-0.1,1.1,0.7,2.1,1.7,2.2c0.3,0,3.1,0.3,7.7,0.3c6.5,0,16.5-0.6,27.6-3.5
					c0.1,0,0.3-0.1,0.4-0.2c18.3,12.6,40.9,29.4,64.4,50.3c-17.2,1.1-35.6-6-35.8-6.1c-1-0.4-2.1,0.1-2.5,1.1
					c-0.4,1,0.1,2.1,1.1,2.5c0.8,0.3,16.7,6.5,33.3,6.5c2.6,0,5.2-0.2,7.8-0.5c19.1,17.3,38.7,37.2,57.1,59.5
					c-14,2.1-27.6-5.1-27.7-5.2c-1-0.5-2.1-0.2-2.7,0.8c-0.5,1-0.2,2.1,0.8,2.7c0.5,0.3,11.4,6.1,24.2,6.1c2.7,0,5.4-0.3,8.2-0.9
					c34,42.2,63.2,93.1,76.3,151.6c0.2,0.9,1,1.5,1.9,1.5c0.1,0,0.3,0,0.4,0c1.1-0.2,1.7-1.3,1.5-2.3
					C509.9,2550.9,488.9,2508.7,463.5,2471.8z"/>
				<path class="st34" d="M382,2151.4c-20.1-3.5-33-12.6-33.2-12.7c-0.9-0.6-2.1-0.4-2.7,0.5c-0.6,0.9-0.4,2.1,0.4,2.7
					c0.6,0.4,15.1,10.7,37.8,13.8c0.1,0,0.2,0,0.3,0c0,0,0,0,0,0c18.7,31.7,40.1,71.8,60.2,118.6c-38.9-12.6-66-49.4-66.3-49.7
					c-0.6-0.9-1.9-1.1-2.7-0.4c-0.9,0.6-1.1,1.9-0.4,2.7c1.2,1.6,29.2,39.8,70.8,52c0.2,0.1,0.4,0.1,0.6,0.1c0,0,0.1,0,0.1,0
					c11.9,28.1,23.4,58.4,33.5,90.7c-18.9-3.1-37.4-21.4-37.6-21.6c-0.8-0.8-2-0.8-2.8,0c-0.8,0.8-0.8,2,0,2.8
					c0.9,0.9,20.9,20.6,41.7,22.9c10.1,32.8,18.9,67.5,25.4,103.8c0.2,1,1,1.6,1.9,1.6c0.1,0,0.2,0,0.3,0c1.1-0.2,1.8-1.2,1.6-2.3
					c-19.1-106.3-57.3-199.5-93.3-269.4c6.3-34.4-2.1-50.4-2.5-51.1c-0.5-1-1.7-1.3-2.7-0.8c-1,0.5-1.3,1.7-0.8,2.7
					c0.1,0.1,7.2,14.1,2.9,43.4c-18.1-34.6-35.4-63.2-49.2-84.5c0.2-0.2,0.4-0.5,0.4-0.8c4.6-22.8-0.8-36.5-1-37.1
					c-0.4-1-1.5-1.5-2.5-1.1c-1,0.4-1.5,1.5-1.1,2.5c0.1,0.1,4.6,12.2,1.3,32.1c-16.1-24.5-26.8-38.2-27.2-38.6
					c-0.7-0.9-1.9-1-2.8-0.3c-0.9,0.7-1,1.9-0.3,2.8C332.7,2077.3,354,2104.4,382,2151.4z"/>
				<path class="st34" d="M348,2490.3c-17.1-38-47.2-70.2-47.5-70.5c-0.7-0.8-2-0.8-2.8-0.1c-0.8,0.7-0.8,2-0.1,2.8
					c0.3,0.3,28,29.9,45,65.7c-24.2-9.5-46.7-16.1-67-20.6c-0.3-0.1-0.6-0.2-0.9-0.2c-27.8-6.1-51.5-8.4-70-8.8
					c0-0.6-0.2-1.1-0.7-1.5c-15.3-13.1-23.5-16.8-23.9-16.9c-1-0.4-2.1,0-2.6,1c-0.4,1,0,2.2,1,2.6c0.1,0,7.5,3.5,21,14.8
					c-24.5-0.2-38.6,2.6-39.1,2.6c-1.1,0.2-1.7,1.3-1.5,2.3c0.2,1.1,1.3,1.7,2.3,1.5c0.8-0.2,42.8-8.5,109.2,5.5
					c-22.3,19.5-55.1,23.4-55.4,23.5c-1.1,0.1-1.9,1.1-1.7,2.2c0.1,1,1,1.7,1.9,1.7c0.1,0,0.1,0,0.2,0c1.5-0.2,36.5-4.3,59.7-26.3
					c57.3,12.8,131.8,42.3,213.2,107.1c0.4,0.3,0.8,0.4,1.2,0.4c0.6,0,1.1-0.3,1.5-0.7c0.7-0.8,0.5-2.1-0.3-2.8
					C439.8,2534.7,391.3,2507.9,348,2490.3z"/>
				<path class="st34" d="M708.1,2388.7c-0.2,0.2-18.3,17.8-65.9,40.2c18.4-28.8,38.6-57.8,60.3-84.4c0.7-0.8,0.6-2.1-0.3-2.8
					c-0.8-0.7-2.1-0.6-2.8,0.3c-7.4,9.1-14.7,18.5-21.7,28.1c-1.2-13.4,1.3-25.8,1.3-26c0.2-1.1-0.5-2.1-1.5-2.3
					c-1.1-0.2-2.1,0.5-2.3,1.5c-0.1,0.6-3.2,15.8-0.9,31.3c0,0,0,0.1,0,0.1c-28.4,38.9-53.8,80.5-74.7,118.1
					c-1.2-39.9,10-98.1,10.1-98.8c0.2-1.1-0.5-2.1-1.6-2.3c-1-0.2-2.1,0.5-2.3,1.6c-0.1,0.7-12.6,65.5-9.9,105.8c0,0.1,0,0.1,0,0.2
					c-26.1,47.3-44.9,87.5-53.5,106.6c8.2-72.7,7.8-143.9,2.8-209.2c0.1-0.2,0.3-0.3,0.4-0.5c18.8-46,25.3-81,25.3-81.4
					c0.2-1.1-0.5-2.1-1.6-2.3c-1.1-0.2-2.1,0.5-2.3,1.6c-0.1,0.3-5.9,31.8-22.5,74.2c-3.5-42.1-8.8-81.6-14.8-117.3
					c0.3-0.2,0.5-0.5,0.6-0.8c21.1-57.4,16.8-101.2,16.8-101.7c-0.1-1.1-1.1-1.9-2.2-1.7c-1.1,0.1-1.9,1.1-1.7,2.2
					c0,0.4,4,40.9-14.7,94.9c-10.5-60.2-23.1-109.1-32.1-140.8c0.2-0.1,0.4-0.3,0.5-0.5c6.5-10.2,7.5-26.4,7.5-27
					c0.1-1.1-0.8-2-1.9-2.1c-1-0.1-2,0.8-2.1,1.9c0,0.1-0.8,13.4-5.6,22.8c-6.3-21.7-10.7-34-10.9-34.6c-0.4-1-1.5-1.5-2.5-1.2
					c-1,0.4-1.5,1.5-1.2,2.5c0.3,0.9,12.6,35.8,26.3,93c-20.9-15.7-47.7-43.5-48-43.8c-0.7-0.8-2-0.8-2.8-0.1
					c-0.8,0.7-0.8,2-0.1,2.8c0.3,0.3,29.2,30.3,50.7,45.8c0.3,0.3,0.8,0.4,1.1,0.4c0.1,0,0.1,0,0.2-0.1
					c9.3,39.4,19.1,88.8,26.3,144.6c-30.3-36.3-52.8-79.2-53-79.6c-0.5-1-1.7-1.3-2.6-0.8c-1,0.5-1.3,1.7-0.8,2.6
					c0.2,0.5,24.8,47.4,57.4,84.9c4.7,37.8,8.1,78.3,9.3,120.7c-12-17.6-21.1-42.7-21.2-42.9c-0.4-1-1.5-1.5-2.5-1.2
					c-1,0.4-1.5,1.5-1.2,2.5c0.4,1.2,10.6,29.3,24.1,47.3c0.2,0.3,0.6,0.5,0.9,0.6c1.2,50.4-0.8,103.3-7.6,156.8l-1.8,14.1l5.5-13
					c0.3-0.6,11.5-26.9,30.9-65.6c0,0,0.1,0,0.1,0c63.1-31.3,78.7-49.2,79.4-50c0.7-0.8,0.6-2.1-0.2-2.8c-0.8-0.7-2.1-0.6-2.8,0.2
					c-0.1,0.2-15.2,17.3-73.5,46.7c16.4-32.4,38.2-72.5,63.8-113.2c0.3,0,0.5-0.1,0.8-0.2c51.9-23.7,70.9-42.4,71.7-43.1
					c0.8-0.8,0.8-2,0-2.8C710.1,2387.9,708.8,2387.9,708.1,2388.7z"/>
				<path class="st34" d="M179.4,2222.2c15.1,9,32.1,22,44.7,40.3c0.4,0.5,1,0.8,1.6,0.8c0.4,0,0.8-0.1,1.1-0.3
					c0.9-0.6,1.1-1.8,0.5-2.7c-3.9-5.6-8.2-10.8-12.8-15.5c0-0.2,0.1-0.3,0.1-0.5c-0.5-20.4-6.2-33.5-6.5-34.1c-0.4-1-1.6-1.4-2.6-1
					c-1,0.4-1.4,1.6-1,2.6c0,0.1,5,11.5,6,29c-29.7-28.4-66.7-38.8-67.1-38.9c-1.1-0.3-2.1,0.3-2.4,1.4c-0.3,1,0.3,2.1,1.4,2.4
					c0.3,0.1,15,4.2,33.1,14.3c-14.5,7.5-26.8,8.8-26.9,8.8c-1.1,0.1-1.9,1.1-1.8,2.1c0.1,1,1,1.8,1.9,1.8c0.1,0,0.1,0,0.2,0
					c0.6-0.1,14.1-1.5,30-10.1C179.1,2222.5,179.3,2222.4,179.4,2222.2z"/>
				<path class="st34" d="M749.2,2281.8c0.4,0.3,0.8,0.4,1.2,0.4c0,0,0,0,0,0c-0.3,1.1-0.6,2.2-0.9,3.3c-0.3,1,0.3,2.1,1.4,2.4
					c0.2,0,0.3,0.1,0.5,0.1c0.9,0,1.7-0.6,1.9-1.5c2.8-10.7,6.1-20.9,9.5-30.5c0.1,0,0.1,0,0.2,0c0.1,0,0.1,0,0.2,0
					c41.6-3.6,61.6-23.1,62.4-24c0.8-0.8,0.8-2,0-2.8c-0.8-0.8-2-0.8-2.8,0c-0.2,0.2-19.3,18.8-58.5,22.7
					c21.8-58.9,51.1-95.3,51.5-95.7c0.7-0.8,0.6-2.1-0.3-2.8c-0.8-0.7-2.1-0.6-2.8,0.3c-0.2,0.3-13.8,17.2-29.4,46.4
					c-8.8-19-1.3-50.5-1.3-50.9c0.3-1.1-0.4-2.1-1.4-2.4c-1.1-0.2-2.1,0.4-2.4,1.4c-0.3,1.4-8.2,34.2,2,54.4
					c0.3,0.5,0.7,0.8,1.2,0.9c-10.4,20-21.5,45.3-29.9,74.8c-34.4-26-28.9-68.7-28.8-69.1c0.1-1.1-0.6-2.1-1.7-2.2
					c-1.1-0.1-2.1,0.6-2.2,1.7C718.7,2209.4,712.7,2254.5,749.2,2281.8z"/>
				<path class="st34" d="M1010.6,2429.1c-0.3-1-1.4-1.6-2.4-1.3c-0.5,0.2-52.7,15.3-101.2,3.4c54.4-47.5,97.4-74.6,99.2-75.5
					c0.9-0.2,1.5-1,1.5-1.9c0-1.1-0.9-2-2-2c-1.6,0-16.4,9.2-39,26c1.4-23.8,14.6-41.2,14.7-41.4c0.7-0.9,0.5-2.1-0.4-2.8
					c-0.9-0.7-2.1-0.5-2.8,0.4c-0.6,0.8-15.2,20.1-15.7,46.8c-29.2,22-69.9,55.8-111.5,98.3c-4.7-47,11.6-93.3,11.8-93.7
					c0.4-1-0.2-2.1-1.2-2.5c-1-0.3-2.1,0.2-2.5,1.2c-0.2,0.5-17.2,48.7-11.8,97.2c0,0.5,0.3,0.8,0.6,1.1
					c-50,51.6-101,115.8-134.5,187.4c-0.5,1,0,2.2,0.9,2.6c0.3,0.1,0.6,0.2,0.8,0.2c0.7,0,1.4-0.4,1.8-1.1
					c46.8-100,123.6-181.8,186.2-237c14.8,3.9,29.9,5.3,44,5.3c33.9,0,61.5-8,61.9-8.1C1010.3,2431.3,1010.9,2430.2,1010.6,2429.1z"
					/>
			</g>
		</g>
		<g class="st28">
			<g class="st29">
				<path class="st5" d="M-63.7,851.7c0,0,58.2-6.5,74.5-48.4c16.4-41.8,16.4-41.8,16.4-41.8s-41.3,18.3-64,38.2
					C-59.5,819.7-63.7,851.7-63.7,851.7z"/>
				<path class="st13" d="M439,344.1c0,0,56.8,14,86.6-19.6c29.8-33.6,29.8-33.6,29.8-33.6s-45.1,2.8-73.3,13.7
					C454,315.5,439,344.1,439,344.1z"/>
				<path class="st5" d="M96.2,269.6c0,0,39.4-12.6,38.6-45.5C134.8,224.1,103.9,227.9,96.2,269.6z"/>
				<path class="st13" d="M491.7,600c0,0,31.9-49.4,1.3-84.7C493,515.2,462.5,547.3,491.7,600z"/>
				<path class="st5" d="M222.6,483.4c0,0,23.9-3.4,20.9-24.6C243.6,458.8,225.7,462.4,222.6,483.4z"/>
				<path class="st5" d="M729.6,751.3c0,0,23.9-3.4,20.9-24.6C750.5,726.7,732.6,730.3,729.6,751.3z"/>
			</g>
		</g>
		<g class="st36">
			<path class="st37" d="M18.3,26.7c-2-2.1-5.4-3.7-8.4-3.7c-3,0.1-6.1,1-8.3,3.2c-2.2,2.3-3.7,5.2-3.7,8.4v5.4c0,3,1.2,6.1,3.2,8.3
				c2,2.1,5.4,3.7,8.4,3.7c3-0.1,6.1-1,8.3-3.2c2.2-2.3,3.7-5.2,3.7-8.4v-5.4C21.5,32,20.3,28.8,18.3,26.7z"/>
			<path class="st37" d="M212.2-17c-2.2-2.1-5.2-3.8-8.4-3.7c-3,0.1-6.1,1.1-8.3,3.2c-1.8,1.8-3.6,3.6-5.4,5.4
				c-2.2,2.2-3.6,5.3-3.7,8.4c0,2.8,1.2,6.3,3.2,8.3c2.2,2.1,5.2,3.8,8.4,3.7c3-0.1,6.1-1.1,8.3-3.2c1.8-1.8,3.6-3.6,5.4-5.4
				c2.2-2.2,3.6-5.3,3.7-8.4C215.5-11.5,214.3-15,212.2-17z"/>
			<path class="st37" d="M468.8,46.7c-0.4-1.5-1.2-2.8-2.3-3.9l-2.5-2c-1.8-1.1-3.8-1.6-5.9-1.7c-1,0.1-2,0.2-3,0.4
				c-2,0.5-3.8,1.5-5.3,2.9c-0.9,0.9-1.8,1.8-2.7,2.7c-1.2,1.1-2.1,2.4-2.6,3.9c-0.7,1.4-1.1,2.9-1.1,4.5c-0.1,1.6,0.2,3,0.9,4.4
				c0.4,1.5,1.2,2.8,2.3,3.9c0.8,0.7,1.6,1.3,2.5,2c1.8,1.1,3.8,1.6,5.9,1.7c1-0.1,2-0.2,3-0.4c2-0.5,3.8-1.5,5.3-2.9
				c0.9-0.9,1.8-1.8,2.7-2.7c1.2-1.1,2.1-2.4,2.6-3.9c0.7-1.4,1.1-2.9,1.1-4.5C469.8,49.6,469.5,48.1,468.8,46.7z"/>
			<path class="st37" d="M744.7,159.1c-2.2-2.1-5.2-3.8-8.4-3.7c-3,0.1-6.1,1-8.3,3.2c-1.8,1.8-3.6,3.6-5.4,5.4
				c-2.2,2.2-3.6,5.3-3.7,8.4c0,2.8,1.2,6.3,3.2,8.3c2.2,2.1,5.2,3.8,8.4,3.7c3-0.1,6.1-1,8.3-3.2c1.8-1.8,3.6-3.6,5.4-5.4
				c2.2-2.2,3.6-5.3,3.7-8.4C748,164.6,746.8,161.1,744.7,159.1z"/>
			<path class="st37" d="M568.1,35.6c-0.3-1.3-1-2.5-1.9-3.5l-1.6-1.3c-1.2-0.7-2.5-1.1-3.9-1.1h-2.7c-1,0-2,0.2-2.9,0.6
				c-1,0.3-1.8,0.8-2.6,1.6c-0.8,0.7-1.4,1.6-1.7,2.6c-0.5,0.9-0.7,1.9-0.7,3c0.1,0.7,0.2,1.3,0.2,2c0.3,1.3,1,2.5,1.9,3.5
				c0.5,0.4,1.1,0.9,1.6,1.3c1.2,0.7,2.5,1.1,3.9,1.1h2.7c1,0,2-0.2,2.9-0.6c1-0.3,1.8-0.8,2.6-1.6c0.8-0.7,1.4-1.6,1.7-2.6
				c0.5-0.9,0.7-1.9,0.7-3C568.3,36.9,568.2,36.3,568.1,35.6z"/>
			<path class="st37" d="M338.6-2.2c-0.3-1.3-1-2.5-1.9-3.5L335.1-7c-1.2-0.7-2.5-1.1-3.9-1.1h-2.7c-1,0-2,0.2-2.9,0.6
				c-1,0.3-1.8,0.8-2.6,1.6c-0.8,0.7-1.4,1.6-1.7,2.6c-0.5,0.9-0.7,1.9-0.7,3c0.1,0.7,0.2,1.3,0.2,2c0.3,1.3,1,2.5,1.9,3.5l1.6,1.3
				c1.2,0.7,2.5,1.1,3.9,1.1h2.7c1,0,2-0.2,2.9-0.6c1-0.3,1.8-0.8,2.6-1.6c0.8-0.7,1.4-1.6,1.7-2.6c0.5-0.9,0.7-1.9,0.7-3
				C338.8-0.9,338.7-1.5,338.6-2.2z"/>
			<path class="st37" d="M192.5,102.2c-0.3-1-0.8-1.8-1.6-2.6l-1.6-1.3c-1.2-0.7-2.5-1.1-3.9-1.1c-0.7,0.1-1.3,0.2-2,0.2
				c-1.3,0.3-2.5,1-3.5,1.9c-0.9,0.9-1.8,1.8-2.7,2.7c-0.8,0.7-1.4,1.6-1.7,2.6c-0.5,0.9-0.7,1.9-0.7,3c0,1,0.2,2,0.6,2.9
				c0.3,1,0.8,1.8,1.6,2.6l1.6,1.3c1.2,0.7,2.5,1.1,3.9,1.1c0.7-0.1,1.3-0.2,2-0.2c1.3-0.3,2.5-1,3.5-1.9c0.9-0.9,1.8-1.8,2.7-2.7
				c0.8-0.7,1.4-1.6,1.7-2.6c0.5-0.9,0.7-1.9,0.7-3C193.1,104.1,192.9,103.1,192.5,102.2z"/>
			<path class="st37" d="M238.4,218.3c-0.3-1-0.8-1.8-1.6-2.6c-0.7-0.8-1.6-1.4-2.6-1.7c-0.9-0.5-1.9-0.7-3-0.7
				c-2,0.1-4.1,0.7-5.5,2.2l-1.3,1.6c-0.7,1.2-1.1,2.5-1.1,3.9v8.1c0,1,0.2,2,0.6,2.9c0.3,1,0.8,1.8,1.6,2.6
				c0.7,0.8,1.6,1.4,2.6,1.7c0.9,0.5,1.9,0.7,3,0.7c2-0.1,4.1-0.7,5.5-2.2l1.3-1.6c0.7-1.2,1.1-2.5,1.1-3.9v-8.1
				C239,220.2,238.8,219.2,238.4,218.3z"/>
			<path class="st37" d="M740.6,258.8c-0.3-1-0.8-1.8-1.6-2.6c-0.7-0.8-1.6-1.4-2.6-1.7c-0.9-0.5-1.9-0.7-3-0.7
				c-0.7,0.1-1.3,0.2-2,0.2c-1.3,0.3-2.5,1-3.5,1.9l-1.3,1.6c-0.7,1.2-1.1,2.5-1.1,3.9v2.7c0,1,0.2,2,0.6,2.9c0.3,1,0.8,1.8,1.6,2.6
				c0.7,0.8,1.6,1.4,2.6,1.7c0.9,0.5,1.9,0.7,3,0.7c0.7-0.1,1.3-0.2,2-0.2c1.3-0.3,2.5-1,3.5-1.9l1.3-1.6c0.7-1.2,1.1-2.5,1.1-3.9
				v-2.7C741.2,260.7,741,259.7,740.6,258.8z"/>
			<path class="st37" d="M359.9,104.9c-0.3-1-0.8-1.8-1.6-2.6c-0.7-0.8-1.6-1.4-2.6-1.7c-0.9-0.5-1.9-0.7-3-0.7
				c-0.7,0.1-1.3,0.2-2,0.2c-1.3,0.3-2.5,1-3.5,1.9l-1.3,1.6c-0.7,1.2-1.1,2.5-1.1,3.9v2.7c0,1,0.2,2,0.6,2.9c0.3,1,0.8,1.8,1.6,2.6
				c0.7,0.8,1.6,1.4,2.6,1.7c0.9,0.5,1.9,0.7,3,0.7c0.7-0.1,1.3-0.2,2-0.2c1.3-0.3,2.5-1,3.5-1.9l1.3-1.6c0.7-1.2,1.1-2.5,1.1-3.9
				v-2.7C360.5,106.8,360.3,105.8,359.9,104.9z"/>
			<path class="st37" d="M-3.7,126.8c-10.1,0-10.3,15.7-0.2,15.7C6.2,142.5,6.5,126.8-3.7,126.8z"/>
			<path class="st37" d="M681.1,31.1h-1.7c-15.1,0-15.5,23.6-0.3,23.6h1.7C696,54.7,696.3,31.1,681.1,31.1z"/>
			<path class="st37" d="M477.1,138.7c-0.3-1-0.7-1.9-1.4-2.6c-0.9-0.9-1.8-1.8-2.7-2.7c-0.5-0.6-1.2-1-2-1.3
				c-0.7-0.4-1.4-0.5-2.2-0.5c-0.8,0-1.5,0.1-2.2,0.4c-0.7,0.2-1.4,0.6-1.9,1.2c-0.3,0.4-0.7,0.8-1,1.2c-0.5,0.9-0.8,1.9-0.8,3
				l0.2,1.5c0.3,1,0.7,1.9,1.4,2.6c0.9,0.9,1.8,1.8,2.7,2.7c0.5,0.6,1.2,1,2,1.3c0.7,0.4,1.4,0.5,2.2,0.5c0.8,0,1.5-0.1,2.2-0.4
				c0.7-0.2,1.4-0.6,1.9-1.2c0.3-0.4,0.7-0.8,1-1.2c0.5-0.9,0.8-1.9,0.8-3C477.2,139.7,477.2,139.2,477.1,138.7z"/>
			<path class="st37" d="M401.7,203.2c-0.2-0.5-0.4-0.9-0.5-1.4c-0.5-0.9-1.2-1.7-2.1-2.2c-1.8-0.9-3.6-1.8-5.4-2.7
				c-0.7-0.4-1.4-0.7-2.2-0.7c-0.7-0.2-1.5-0.2-2.3,0.1c-0.8,0.2-1.4,0.5-2,1c-0.7,0.4-1.2,1-1.6,1.7c-0.2,0.5-0.4,1-0.6,1.4
				c-0.3,1-0.3,2,0,3c0.2,0.5,0.4,0.9,0.5,1.4c0.5,0.9,1.2,1.7,2.1,2.2c1.8,0.9,3.6,1.8,5.4,2.7c0.7,0.4,1.4,0.7,2.2,0.7
				c0.7,0.2,1.5,0.1,2.3-0.1c0.8-0.2,1.4-0.5,2-1c0.7-0.4,1.2-1,1.6-1.7c0.2-0.5,0.4-1,0.6-1.4C401.9,205.2,401.9,204.2,401.7,203.2
				z"/>
			<path class="st37" d="M625.6,144.7c0-0.8-0.2-1.5-0.6-2.2c-0.8-1.3-2-2.5-3.6-2.8c-1.4-0.3-3.1-0.3-4.4,0.5
				c-2.7,1.7-5.5,3.5-8.2,5.2c-0.7,0.4-1.3,0.9-1.7,1.5c-0.6,0.6-0.9,1.3-1.1,2.1c-0.2,0.8-0.3,1.5-0.1,2.3c0,0.8,0.2,1.5,0.6,2.2
				c0.8,1.3,2,2.5,3.6,2.8c1.4,0.3,3.1,0.3,4.4-0.5c2.7-1.7,5.5-3.5,8.2-5.2c0.7-0.4,1.3-0.9,1.7-1.5c0.6-0.6,0.9-1.3,1.1-2.1
				C625.7,146.2,625.8,145.4,625.6,144.7z"/>
		</g>
		<g class="st40">
			<path class="st41" d="M1062.3,1210.3c-1-27.3-6.6-54.2-14.5-80.2c-9-29.7-20.9-58.4-32.8-87c-1.3-3-5.7-0.6-4.5,2.4
				c20.9,50.1,42.4,101.7,46.2,156.5c3.8,53.6-10.7,105.9-28,156.1c-9.8,28.6-20.6,56.9-30,85.6c-1,3.1,3.9,4.5,4.9,1.4
				c16.9-51.7,38.6-102.1,50.5-155.3C1060,1263.7,1063.3,1237,1062.3,1210.3z"/>
			<path class="st41" d="M1033.1,1146.3c-3.2-13.5-7.6-26.7-13.2-39.4c-1.3-3-5.8-0.5-4.5,2.4c19.3,43.5,23.6,93.3,12.8,139.6
				c-3.1,13.1-7.3,25.8-12.8,38.1c-1.3,3,3,5.6,4.4,2.6C1039.7,1245,1044.3,1194.1,1033.1,1146.3z"/>
			<path class="st41" d="M1018.3,1159c-0.8-3.2-5.7-2-4.9,1.2c4.3,17.4,5.5,35.4,3.5,53.3c-0.4,3.3,4.7,3.3,5.1,0.1
				C1023.9,1195.3,1022.7,1176.8,1018.3,1159z"/>
			<path class="st41" d="M1140.1,824.2c-3.5-7.5-7.2-14.9-11-22.2c-1-2-3.8-1.5-4.5,0.5c-19.6,63.2,0,129.7,6,193.4
				c3.2,34.2,3.6,68.8,1.3,103.1c-2.2,32.6-8,64.6-11.8,96.9c-4.1,34.8-5.2,71,7.2,104.2c1.1,3,5.9,1.8,4.7-1.2
				c-11-29.5-11.2-61.4-8.2-92.5c3.1-32.2,9.3-63.9,12.1-96.2c2.9-33.4,3.1-67.1,0.7-100.6c-2.4-32.8-8.1-65.1-12.1-97.7
				c-4.1-33.9-5.8-68.8,3.1-102c28.9,57.2,49.4,120.3,52.7,185.2c0.8,16.5,0.6,33.1-0.9,49.6c-1.6,17.8-5,35.4-8.5,52.9
				c-7,35.4-11.9,71.1-14.9,107.1c-3,35.9-4.7,71.8-7.1,107.7c-0.6,9.1-1.3,18.1-2,27.2c-0.6,7-1.1,13.7-3.5,20.3
				c-1.8,4.8-4.7,10.7-9.6,12.6c-6.6,2.6-11.5-4.1-14.5-9.3c-15.6-27.4-20.6-59.7-23.4-91.1c-2.8-32.1-4.3-64.2-9.7-96.1
				c-10.8-64.4-32.4-126.8-63.5-183.4c-3.9-7.1-8-14.2-12.2-21.1c-1.7-2.8-5.9-0.3-4.3,2.4c34.8,57.4,59.4,121.3,72.4,187.8
				c3.3,16.7,5.8,33.5,7.6,50.4c1.7,16.3,2.6,32.7,3.9,49c2.4,31.7,6,64.1,19.2,93.1c4.6,10.1,12.6,28.3,26.3,22.9
				c10.2-4.1,14.2-18.3,15.4-28.5c2.1-18.1,2.9-36.5,4-54.7c1.2-18.6,2.2-37.2,3.5-55.7c2.5-37.3,5.7-74.5,12-111.3
				c3.1-18.4,7.3-36.7,10.4-55.1c2.9-17.1,4.6-34.4,4.9-51.7C1186.8,952,1168.4,884.9,1140.1,824.2z"/>
			<path class="st41" d="M563.9,619.6c-3.3,0-3.4,5.1-0.1,5.1C567.1,624.7,567.1,619.6,563.9,619.6z"/>
			<path class="st41" d="M428.3,591.6c-3.3,0-3.4,5.1-0.1,5.1C431.5,596.7,431.6,591.6,428.3,591.6z"/>
			<path class="st41" d="M1112.1,978c-8.8-44.8-19.3-89.8-20.5-135.6c-0.1-5.6-0.1-11.2,0-16.9c0.1-3.3-5-3.3-5.1-0.1
				c-1.2,44.5,7.5,88.5,16.3,132c8.7,43.4,18,87.5,16.5,132c-0.4,12.3-1.6,24.5-4,36.6c-1.1,5.6-1.9,12-4.2,17.2
				c-1.2,2.7-5.5,9.7-9.2,7.6c-1.5-23.3-2.9-46.7-4.5-70c-0.8-11.3-1.7-22.7-4.3-33.8c-2.4-10.6-6.6-20.6-11.8-30.1
				c-10.3-18.7-23.2-36-34.4-54.2c-11.1-18.1-21.3-36.9-28.7-56.9c-8.1-22-12.4-45.3-10.2-68.7c0.3-3.3-4.8-3.3-5.1-0.1
				c-4.3,44.3,14.4,86.2,36.6,123.3c11.5,19.3,25,37.5,36.1,57c6,10.4,10.5,21.4,13,33.2c2.5,11.9,3.2,24.1,4,36.2
				c0.8,12.6,1.6,25.2,2.4,37.8c0.4,6.3,0.8,12.6,1.2,18.9c0.2,2.9,0.1,6,0.6,8.8c0.3,1.9,1.9,3.1,3.7,3.7c7.8,2.7,14.2-7,16.1-13.1
				c3.3-10.2,4.8-21.3,6.1-32C1128,1066.4,1120.6,1021.6,1112.1,978z"/>
			<path class="st41" d="M1100.5,629.2c1.9-2.7-2.5-5.3-4.4-2.6c-25.9,36.5-40.3,80-45.5,124.2c-5.6,47.6-0.1,95.9,11.3,142.2
				c6.7,27.4,15.5,54.3,25.4,80.8c1.1,3,6.1,1.8,4.9-1.2c-17.2-46-31.3-93.6-36.5-142.6c-4.8-45-2-91.1,11.9-134.3
				C1075.2,672,1086.2,649.5,1100.5,629.2z"/>
			<path class="st41" d="M1048.2,903.7c-15.6-54.6-23.1-111.4-22.1-168.2c0.5-28.4,3.3-56.7,7.8-84.7c4.6-28,10.3-56.3,9.1-84.8
				c-1.1-26.7-8.4-53.8-25.9-74.6c-2.1-2.5-5.8,1-3.7,3.5c35.6,42.3,24.3,101.8,16.1,151.5c-9.2,55.2-11.2,111-4.7,166.6
				c3.6,31.1,9.8,61.9,18.4,92C1044.2,908.1,1049.1,906.9,1048.2,903.7z"/>
			<path class="st41" d="M1013.6,581.5c-8.6,55.7-14.1,111.8-16.4,168.2c-0.6,15.9-1,31.8-1.2,47.7c0,3.3,5.1,3.4,5.1,0.1
				c0.5-55.7,4-111.4,10.8-166.7c1.9-16,4.2-32,6.6-47.9C1019,579.7,1014.1,578.3,1013.6,581.5z"/>
			<path class="st41" d="M1166.8,616.5c-10.9-2.5-20.3,8.2-26.5,15.5c-14.5,17-24.5,37.2-31.7,58.2c-8.4,24.6-13.1,50.4-17.5,76
				c-0.6,3.2,4.4,4.6,4.9,1.4c7.2-41.8,15-85.9,39.8-121.5c3.1-4.4,6.4-8.6,10-12.6c3.6-4,7.5-8.3,12.4-10.7
				c4.9-2.4,10.5-1.8,13.1,3.4c2.1,4.3,2.1,9.4,2.1,14c0,27-0.5,53.9-1.4,80.9c-1,28.2-2.6,56.4-4.6,84.6
				c-13.1-15.5-21.7-34.4-25.1-54.4c-1.9-11-2.1-22.2-0.8-33.2c0.7-5.6,1.8-11.2,3.4-16.7c0.7-2.5,1.5-4.9,2.4-7.3
				c0.9-2.3,2.6-6.8,4.8-2.9c1.5,2.8,1.9,6.7,2.4,9.8c0.6,3.8,0.8,7.6,0.8,11.4c0,7.9-1.2,15.7-3.5,23.3c-0.9,3.1,4,4.5,4.9,1.4
				c4.3-14.2,5.5-31.1,1-45.4c-1.4-4.5-5.5-9.6-10.6-6.4c-2.3,1.4-3.4,4.2-4.3,6.6c-1.3,3.3-2.3,6.6-3.2,10
				c-6.6,24.7-4.6,51.5,4.8,75.2c5.4,13.6,13.3,26.1,23.4,36.6c1.6,1.7,4.2,0.4,4.4-1.7c4.3-57.3,6.6-114.9,6.5-172.4
				C1178.5,630.9,1177.2,618.9,1166.8,616.5z"/>
			<path class="st41" d="M1162.5,415.7c-0.2-15.7-0.9-31.3-3.1-46.8c-3-21.5-8.9-51.6-32.1-60.3c-12.5-4.7-26.3-0.1-36.5,7.5
				c-10.2,7.6-17.5,18.3-22.4,29.9c-11.6,27.8-7.4,58.5-3.4,87.4c4.6,32.6,9.2,65.1,13.8,97.7c1.1,7.9,2.2,15.9,3.4,23.8
				c0.2,1.2,1.4,1.8,2.4,1.9c10.5,1.2,16.8-9.5,20-17.9c4.9-12.9,8.3-26.6,11.4-40c6.2-27.3,9.6-55.4,10-83.4
				c0.2-16.1-0.5-32.2-2.2-48.2c-0.1-1.3-1-2.6-2.5-2.6c-6.9,0.2-12.3,5.4-12.7,12.3c-0.2,3.3,4.9,3.3,5.1,0.1
				c0.2-3.2,2.4-5.8,5.3-6.7c5.1,51.8,0.1,104.5-15,154.4c-2.5,8.1-6.2,26.3-17.1,27.2l-12.6-89.5c-2.1-15-4.4-29.9-6.2-44.9
				c-1.9-15-3-30.3-1.1-45.3c2.9-23.7,15.7-51.4,40.5-58.7c11.7-3.5,23,0.1,30.8,9.4c7,8.3,10.7,19.1,13.1,29.6
				c6.6,29.2,6.4,59.4,6.2,89.1c-0.1,14.8-0.4,29.7-2.7,44.3c-2.1,13.1-6.1,25.9-11.6,38c-10.9,24.1-26.9,45.5-43.5,65.9
				c-4.1,5-8.1,10-12.3,14.9c-3.2,3.8-9,9.9-14.4,6.2c-3.8-2.7-4.6-8.6-4.8-12.9c-0.3-6.4,0.1-12.9,0.1-19.3
				c0.1-27.4-1-55.5-11.2-81.2c-9.1-23.1-25.7-43.7-29.9-68.5c-1-6.1-1.1-12.3,0-18.4c0.6-3.2-4.3-4.6-4.9-1.4
				c-4.8,26.8,10.6,50.6,22.3,73.4c6.6,12.9,11.8,26.2,14.6,40.6c2.9,14.7,3.7,29.6,3.9,44.5c0.1,7.5,0,15-0.1,22.6
				c-0.1,5.5-0.3,11.1,1.4,16.4c1.4,4.4,4.1,8.6,8.7,10c5.7,1.7,11-1.4,15-5.3c4.7-4.6,8.7-10.2,12.9-15.3c4.5-5.5,9-11,13.3-16.7
				c8.5-11,16.5-22.3,23.5-34.3c6.8-11.7,12.7-24.1,16.8-37c4.6-14.4,6.6-29.4,7.4-44.4C1162.8,447.4,1162.7,431.5,1162.5,415.7z"/>
			<path class="st41" d="M1098.9,409.4v77.1c0,3.3,5.1,3.4,5.1,0.1v-77.1C1104,406.2,1098.9,406.1,1098.9,409.4z"/>
			<path class="st41" d="M1074.2,205.7c-9.8-24.6-27.1-45.3-40.9-67.7c-14.7-23.9-26.7-49.4-35.8-75.9
				c-10.2-29.7-16.7-60.6-19.3-91.8c-0.3-3.2-5.4-3.3-5.1-0.1c4.6,55.1,21,109,48.1,157.3c13.1,23.4,30.3,44.3,42.7,68
				c6,11.5,10.7,23.9,11.6,37c1,14.1-3,27.4-8.1,40.4c-6,15.1-12.5,29.7-16.4,45.6c-3.7,15.3-5.6,30.9-5.6,46.6
				c-10.6,1.8-16.9-13.1-19.2-21.5c-4.3-16-7.1-32.7-10.3-49c-6.5-33.2-12.2-66.5-17.1-100c-2.4-16.6-4.6-33.2-6.6-49.8
				c22.5,25.3,42.7,52.4,60.2,81.3c1.7,2.8,6.2,0.4,4.5-2.4c-19.2-31.6-41.4-61.3-66.4-88.5c-1.4-1.5-4.7-0.6-4.4,1.7
				c4.2,35.9,9.2,71.6,15.3,107.3c3,17.9,6.3,35.8,9.8,53.6c1.7,8.8,3.5,17.6,5.4,26.4c1.7,8,2.9,16.3,5.5,24
				c3.6,10.8,12.6,26.1,26.2,21.5c1.1-0.4,1.9-1.2,1.9-2.4c-0.1-15,1.5-29.9,4.8-44.5c3.3-14.2,8.5-27.7,14.1-41.1
				c5.3-12.6,10.3-25.5,11.3-39.2C1081.5,229.7,1078.8,217.3,1074.2,205.7z"/>
			<path class="st41" d="M1021.9,221.2c-1.2-3-5.7-0.6-4.5,2.4c10.1,24.9,15.6,51.4,16.5,78.2c0.1,3.3,5.2,3.4,5.1,0.1
				C1038.1,274.2,1032.3,246.9,1021.9,221.2z"/>
			<path class="st41" d="M1054.7,240.9c-1.4,0-2.6,1.1-2.6,2.5v16.4c0,1.4,1.1,2.6,2.5,2.6c1.4,0,2.6-1.1,2.6-2.5v-16.4
				C1057.3,242.1,1056.1,240.9,1054.7,240.9z"/>
			<path class="st41" d="M1161.9,306.1c-3.2-8.8-10-15.6-18.7-19.1c-4.3-1.7-9-2.5-13.7-2.2c-5.7,0.4-10.8,2.8-16.1,4.4
				c-4.7,1.4-10.5,2.4-14.9-0.6c-5.3-3.6-3.2-10.6-1.7-15.7c3.3-11.3,5.1-23,5.2-34.8c0.6-49.1-23.1-93.8-44.9-136.3
				c-12.6-24.5-24.9-49.3-32.2-76c-0.9-3.2-5.8-1.9-4.9,1.2c13,47.2,41.1,87.9,59.6,132.8c9.3,22.7,16.4,46.8,17.3,71.4
				c0.4,12.1-0.7,24.2-3.7,35.9c-2.4,9.1-6.6,21.2,4.3,26.5c11.7,5.7,22.3-3.9,33.9-4c11-0.2,21.9,7,25.7,17.4
				C1158.1,310.4,1163,309.2,1161.9,306.1z"/>
			<path class="st41" d="M1145.9,257.4c-7.9-0.1-15.7-0.3-23.6-0.4c1.1-31.3,1.9-62.9-3.7-93.8c-5-27.3-15.3-53.7-30-77.2
				c-8.3-13.3-18.1-25.6-29-36.9c-2.3-2.4-6,1.2-3.7,3.5c19,19.5,34.2,42.4,44.7,67.5c11.4,27.2,16.2,56.3,17.2,85.7
				c0.6,17.9,0,35.7-0.6,53.6c0,1.4,1.2,2.6,2.5,2.6l26.2,0.5C1149.1,262.5,1149.2,257.4,1145.9,257.4z"/>
			<path class="st41" d="M1060.6,1322.4c-18.7,63.8-34.5,128.4-47.5,193.6c-12.9,65-23,130.6-30.1,196.4c-4,37-7.1,74.1-9.3,111.2
				c-0.2,3.3,4.9,3.3,5.1,0.1c3.9-66.3,10.7-132.5,20.5-198.2c9.7-65.1,22.2-129.8,37.5-193.9c8.7-36.2,18.2-72.2,28.7-107.9
				C1066.4,1320.7,1061.5,1319.3,1060.6,1322.4z"/>
			<path class="st41" d="M1128.1,1516.8c-2.6-17.9-5.3-35.7-8-53.5c-1.3-8.7-2.6-17.4-3.9-26.2c-1.3-8.5-2-17.3-4-25.7
				c-2.1-9.2-8.6-24-20.3-22.6c-6.6,0.8-10.3,6.3-13.3,11.6c-4.2,7.4-8.1,15.1-11.6,22.9c-13.9,30.8-22.9,63.6-30.4,96.4
				c-15.5,68.1-22.3,138.2-20,208c0.3,8.5,0.7,17.1,1.3,25.6c0.2,3.3,5.3,3.3,5.1,0.1c-4.3-66.4-0.5-133.4,11.6-198.8
				c5.9-31.9,13.4-63.7,23.6-94.4c5-15.1,10.8-30,17.9-44.3c1.6-3.3,3.4-6.6,5.1-9.8c1.8-3.3,3.6-7.2,6.4-9.8
				c4.6-4.3,9.7-2.2,13.2,2.1c3.6,4.5,5.7,10.3,6.8,15.9c1.6,8.1,2.5,16.4,3.7,24.6c2.5,16.8,5,33.6,7.6,50.4
				c4.8,32.3,11.5,65.2,7.1,97.9c-3.6,27.1-14.1,53.1-29.8,75.4c-7.8,11.1-17,21.2-27.2,30.1c-3.3,2.9-12.4,12.8-16.4,6.8
				c-1.5-2.3-1.8-5.4-2-8.1c-0.3-4.4-0.3-8.8-0.4-13.1c-1.5-64.7,7.6-129.7,26.8-191.5c1.3-4.3,2.9-8.6,4.3-12.9
				c3.8,22.1,6.8,44.3,9,66.6c2.4,24.9,4.3,50.2,4,75.3c-0.1,8-1.1,18-7.5,23.3c-1.9-21.8-2.3-43.7-1.3-65.5
				c0.2-3.3-4.9-3.3-5.1-0.1c-1.1,23.3-0.6,46.7,1.6,69.9c0.2,2,1.9,3.1,3.8,2.3c8.4-3.8,11.8-12.7,13-21.3
				c1.6-11.6,0.4-23.8-0.1-35.4c-1.1-27-3.5-53.9-7-80.7c-2-15.2-4.4-30.4-7.2-45.5c-0.5-2.7-4.1-2.3-4.9-0.1
				c-22.9,64.7-34.7,133.2-34.7,201.8c0,8.6,0.2,17.1,0.5,25.7c0.2,5.3,0.9,12,5.8,15.1c6,3.8,12.1-1.4,16.6-5.1
				c5.6-4.5,10.8-9.3,15.8-14.5c19.6-20.5,34.2-45.8,42.1-73c4-13.9,6.3-28.4,6.7-42.9C1132.9,1552.1,1130.7,1534.4,1128.1,1516.8z"
				/>
			<path class="st41" d="M1117.3,1803.7l-1.7-15.8c-2.2-21.2-4.5-42.5-6.7-63.7c-1.3-12-2.5-24-3.8-36c-0.3-3.2-5.4-3.3-5.1-0.1
				c2.2,20.6,4.3,41.2,6.5,61.8c1.1,10.1,2.1,20.2,3.2,30.3l1.6,15.1c0.3,2.7,0.6,5.5,0.9,8.2c0.1,1.3,0.3,2.5,0.4,3.8
				c0,0.4,0.1,0.8,0.1,1.1c-1.1,0.5-1.9,1.8-1.9,3.1c0.1,2.7,2.9,4.3,5.1,2.7C1119.2,1812.2,1117.6,1806.9,1117.3,1803.7z"/>
			<path class="st41" d="M1141.4,1761.5c-6.1-10.6-10.2-22.2-12.3-34.2c-0.6-3.2-5.5-2-4.9,1.2c2.2,12.4,6.6,24.4,12.8,35.4
				C1138.5,1766.8,1143,1764.4,1141.4,1761.5z"/>
			<path class="st41" d="M1075.5,1713.8v67.8c0,3.3,5.1,3.4,5.1,0.1v-67.8C1080.6,1710.5,1075.5,1710.5,1075.5,1713.8z"/>
			<path class="st41" d="M1046.8,1737.1c-0.4-3.2-5.5-3.3-5.1-0.1c2.1,18.7,2.1,37.6,0,56.4c-0.4,3.3,4.7,3.3,5.1,0.1
				C1048.9,1774.7,1048.9,1755.8,1046.8,1737.1z"/>
			<path class="st41" d="M778.7,35.4v137.9c0,3.3,5.1,3.4,5.1,0.1V35.5C783.8,32.2,778.7,32.1,778.7,35.4z"/>
			<path class="st41" d="M798.6,106.2c1-22.1,2.5-44.2,4.5-66.3c0.3-3.3-4.8-3.3-5.1-0.1c-7.2,79-7.7,158.7-1.5,237.8
				c1.8,22.3,4.1,44.5,6.9,66.7c0.4,3.3,5.4,2,4.9-1.2C798.4,264.7,795.2,185.3,798.6,106.2z"/>
			<path class="st41" d="M822.2,16.7c-1.3,55.2-2.6,110.4-3.9,165.5c-0.4,15.7-0.7,31.4-1.1,47.1c-0.1,3.3,5,3.3,5.1,0.1l3.9-165.5
				c0.4-15.7,0.7-31.4,1.1-47.1C827.4,13.5,822.3,13.4,822.2,16.7z"/>
			<path class="st41" d="M839.6,77.5c-0.1-3.3-5.2-3.4-5.1-0.1c1.1,25.7,0.8,51.5-0.9,77.2c-0.2,3.3,4.9,3.3,5.1,0.1
				C840.4,129,840.7,103.3,839.6,77.5z"/>
			<path class="st41" d="M782.3,280.4c-0.2-15.4-0.4-30.8-0.6-46.3c0-3.3-5.1-3.4-5.1-0.1c0.8,54.7,1.5,109.4,2.3,164.1l0.6,46.3
				c0,3.3,5.1,3.4,5.1,0.1C783.8,389.8,783,335.1,782.3,280.4z"/>
			<path class="st41" d="M824.9,323.2c-0.9-15.1-1.3-30.2-0.6-45.3c0.1-3.3-4.9-3.3-5.1-0.1c-2.4,53.3,8.4,105.9,10.7,159
				c0.7,15.1,0.6,30.2-0.6,45.2c-0.3,3.3,4.8,3.3,5.1,0.1C838.6,428.9,828.2,376.1,824.9,323.2z"/>
			<path class="st41" d="M841.2,201.4c0.2-3.3-4.9-3.3-5.1-0.1c-3.3,46-2.8,92.2,1.6,138.2c0.3,3.2,5.4,3.3,5.1,0.1
				C838.5,293.6,837.9,247.4,841.2,201.4z"/>
			<path class="st41" d="M808.2,446.6c-0.3-13.9-0.5-27.8-0.6-41.8c0-3.3-5.1-3.4-5.1-0.1c0.4,48.5,1.9,97,4.7,145.4
				c0.8,13.9,1.7,27.8,2.7,41.7c0.2,3.2,5.3,3.3,5.1,0.1C811.5,543.5,809.2,495.1,808.2,446.6z"/>
			<path class="st41" d="M803.2,695.2c-0.5-7.2-1-14.4-1.5-21.6c-1-14.4-1.9-28.8-2.9-43.2c-1.9-28.6-3.8-57.1-5.8-85.7
				c-1.1-16.3-2.2-32.6-3.3-48.9c-0.2-3.3-5.3-3.3-5.1-0.1c3.9,58,7.8,115.9,11.7,173.9c0.5,8,1.1,16.1,1.6,24.1
				c0.5,7.9,0.8,15.8,2.4,23.6c0.6,3.2,5.6,2,4.9-1.2C804,709.3,803.7,702.2,803.2,695.2z"/>
			<path class="st41" d="M842.2,524c-0.1-3.3-5.2-3.4-5.1-0.1c1,49.1,2.1,98.2,3.1,147.2c0.1,3.3,5.2,3.4,5.1,0.1
				C844.3,622.2,843.2,573.1,842.2,524z"/>
			<path class="st41" d="M826.8,692.1c-0.5-16.3-0.8-32.6-0.7-48.9c0-3.3-5.1-3.4-5.1-0.1c-0.2,58.1,3.4,116.2,10.8,173.8
				c2.1,16.4,4.6,32.7,7.3,49c0.5,3.2,5.5,2,4.9-1.2C834.5,807.6,828.7,750,826.8,692.1z"/>
			<path class="st41" d="M817.4,842.6c-3-21.6-6.2-43.1-9.8-64.6c-0.5-3.2-5.5-2-4.9,1.2c12.5,75.8,21.5,152.2,26.7,228.8
				c1.5,21.7,2.7,43.5,3.6,65.2c0.1,3.3,5.2,3.4,5.1,0.1C834.9,996.2,828,919.2,817.4,842.6z"/>
			<path class="st41" d="M851.8,715.7c0.2-3.3-4.9-3.3-5.1-0.1c-1.8,29.1-0.1,58.3,5.1,87c0.6,3.2,5.5,2,4.9-1.2
				C851.6,773.2,850,744.4,851.8,715.7z"/>
			<path class="st41" d="M864.7,851.3c-0.3-3.2-5.4-3.3-5.1-0.1c2.9,37.4,5.8,74.7,8.7,112.1c0.3,3.2,5.4,3.3,5.1,0.1
				C870.5,926,867.6,888.7,864.7,851.3z"/>
			<path class="st41" d="M851.6,961.9c-1.5-16.9-3.4-33.9-5.5-50.8c-0.4-3.3-5.3-2-4.9,1.2c7.5,60.2,11.2,120.9,11.1,181.6
				c0,17.2-0.4,34.4-1,51.6c-0.1,3.3,5,3.3,5.1,0.1C858.6,1084.4,857.1,1023,851.6,961.9z"/>
			<path class="st41" d="M902,1238.3c-12.6-56-20.6-113-23.9-170.3c-0.9-16.1-1.4-32.3-1.6-48.5c0-3.3-5.1-3.4-5.1-0.1
				c0.6,57.6,6,115.2,16,171.9c2.8,16.1,6.1,32.2,9.7,48.1C897.8,1242.8,902.7,1241.5,902,1238.3z"/>
			<path class="st41" d="M839.6,1122.4c-0.1-3.3-5.2-3.4-5.1-0.1c2.1,53,4.2,105.9,6.3,158.9c0.1,3.3,5.2,3.4,5.1,0.1L839.6,1122.4z
				"/>
			<path class="st41" d="M883.9,1329.9c-10.2-49-15.9-98.9-17-149c-0.1-3.3-5.2-3.4-5.1-0.1c1.1,50.5,6.8,100.9,17.2,150.3
				C879.6,1334.3,884.6,1333.1,883.9,1329.9z"/>
			<path class="st41" d="M936.2,1425.5l-36.3-149.3c-0.8-3.2-5.7-2-4.9,1.2c12.1,49.8,24.2,99.5,36.3,149.3
				C932.1,1429.9,937,1428.7,936.2,1425.5z"/>
			<path class="st41" d="M862.6,1418.8c-0.9-1.8-2.8-1.6-3.9-0.5l-6.5-106.5c-0.2-3.3-5.3-3.3-5.1-0.1c2.3,38.2,4.7,76.5,7,114.7
				c0.1,1.3,1.1,2.7,2.5,2.6C861.8,1428.6,864.9,1423.4,862.6,1418.8z"/>
			<path class="st41" d="M895.3,1409.5c-3.8-14-7.6-28.1-11.4-42.1c-0.9-3.2-5.8-1.9-4.9,1.2c3.8,14,7.6,28.1,11.4,42.1
				C891.2,1413.9,896.2,1412.6,895.3,1409.5z"/>
			<path class="st41" d="M874.5,4.9c-2.6-15.7-5.4-31.3-8.4-46.9c-0.6-3.2-5.6-2-4.9,1.2c10.3,54.6,18.6,109.7,24.6,165
				c1.7,15.6,3.2,31.2,4.6,46.8c0.3,3.2,5.4,3.3,5.1,0.1C890.7,115.4,883.7,60,874.5,4.9z"/>
			<path class="st41" d="M890.3-28.1c-0.7-3.2-5.6-2-4.9,1.2c5.8,28.3,10.2,56.9,13.1,85.6c0.3,3.2,5.4,3.3,5.1,0.1
				C900.6,29.6,896.2,0.6,890.3-28.1z"/>
			<path class="st41" d="M928.7,40.7c-3.9-23-8.2-45.9-12.7-68.8c-0.6-3.2-5.6-2-4.9,1.2c16,80.6,28.2,162,36.4,243.8
				c2.3,22.8,4.2,45.6,5.9,68.4c0.2,3.2,5.3,3.3,5.1,0.1C952.5,203.4,942.6,121.7,928.7,40.7z"/>
			<path class="st41" d="M930-35c-1.1-3.1-6.1-1.9-4.9,1.2c8.6,23.7,13.8,48.6,15.4,73.8c0.2,3.3,5.3,3.3,5.1,0.1
				C943.9,14.5,938.7-10.8,930-35z"/>
			<path class="st41" d="M922.9,156c-3.2-23.2-6.8-46.3-10.8-69.3c-0.6-3.2-5.5-2-4.9,1.2c14.1,81.2,23.1,163.3,26.9,245.6
				c1.1,22.9,1.7,45.9,2,68.8c0,3.3,5.1,3.4,5.1,0.1C940.2,320,934.1,237.6,922.9,156z"/>
			<path class="st41" d="M906.5,305.9c-1.8-12.3-3.6-24.6-5.4-36.9c-0.9-6.3-1.8-12.5-2.8-18.8c-0.3-1.9-2.9-14.4-0.2-14.1
				c3.3,0.4,3.3-4.7,0.1-5.1c-8.6-1-6,12.2-5.3,16.6c1.6,10.8,3.2,21.7,4.8,32.5c3.2,21.5,6.3,42.9,9.5,64.4
				c1.8,12.3,3.6,24.6,5.4,36.9c0.5,3.2,5.4,2,4.9-1.2C913.8,355.6,910.2,330.7,906.5,305.9z"/>
			<path class="st41" d="M963.2,144.1c-2.2-16.9-4.8-33.8-7.8-50.6c-0.6-3.2-5.5-2-4.9,1.2c10.3,58.7,16.2,118.1,17.6,177.6
				c0.4,16.9,0.4,33.7,0.1,50.6c-0.1,3.3,5,3.4,5.1,0.1C974.4,263.2,971,203.4,963.2,144.1z"/>
			<path class="st41" d="M977.4,416.1c-1.3-20.1-3-40.2-5-60.3c-0.3-3.2-5.4-3.3-5.1-0.1c7.4,71.5,9.7,143.5,6.8,215.3
				c-0.8,20.2-2,40.3-3.7,60.4c-0.3,3.3,4.8,3.3,5.1,0.1C981.3,559.9,982,487.8,977.4,416.1z"/>
			<path class="st41" d="M952,425.8c-0.1-3.3-5.2-3.4-5.1-0.1c1,53.8,2.1,107.5,3.1,161.3c0.1,3.3,5.2,3.4,5.1,0.1L952,425.8z"/>
			<path class="st41" d="M920.8,423.6c-0.3-3.2-5.4-3.3-5.1-0.1c2.3,28.1,4.7,56.1,7,84.2c0.3,3.2,5.4,3.3,5.1,0.1
				C925.5,479.7,923.2,451.6,920.8,423.6z"/>
			<path class="st41" d="M939.3,624.6c-2-20.2-4-40.4-6-60.7c-0.3-3.2-5.4-3.3-5.1-0.1c7,71.6,14.1,143.2,21.1,214.8
				c2,20.2,4,40.4,6,60.7c0.3,3.2,5.4,3.3,5.1,0.1C953.4,767.8,946.3,696.2,939.3,624.6z"/>
			<path class="st41" d="M972.9,673.6c0-3.3-5.1-3.4-5.1-0.1c0.5,59,0.5,118.1,0.1,177.1c-0.1,16.6-0.3,33.1-0.5,49.7
				c0,3.3,5.1,3.4,5.1,0.1c0.7-59,1-118.1,0.7-177.1C973.2,706.7,973.1,690.2,972.9,673.6z"/>
			<path class="st41" d="M956.4,633.9c-0.1-3.3-5.2-3.4-5.1-0.1c0.6,18.2,2.6,36.3,5.8,54.3c0.6,3.2,5.5,2,4.9-1.2
				C958.9,669.4,957,651.7,956.4,633.9z"/>
			<path class="st41" d="M960.4,902.7c0-3.3-5.1-3.4-5.1-0.1c0.1,53.8,2.3,107.6,6.8,161.2c0.3,3.2,5.4,3.3,5.1,0.1
				C962.7,1010.3,960.4,956.5,960.4,902.7z"/>
			<path class="st41" d="M975,933v65.5c0,3.3,5.1,3.4,5.1,0.1v-65.5C980.1,929.8,975,929.7,975,933z"/>
			<path class="st41" d="M977.4,1040.5v149.6c0,3.3,5.1,3.4,5.1,0.1v-149.6C982.5,1037.3,977.4,1037.3,977.4,1040.5z"/>
			<path class="st41" d="M956.6,1155c-0.2-14-0.5-28-0.7-41.9c-0.1-3.3-5.2-3.4-5.1-0.1c0.8,49.1,1.6,98.3,2.4,147.4l0.7,41.9
				c0.1,3.3,5.2,3.4,5.1,0.1C958.2,1253.3,957.4,1204.2,956.6,1155z"/>
			<path class="st41" d="M979.7,1215.9v119.2c0,3.3,5.1,3.4,5.1,0.1v-119.2C984.8,1212.6,979.7,1212.6,979.7,1215.9z"/>
			<path class="st41" d="M961.6,1342.1c-1,24.9-2,49.9-2.9,74.8c-0.1,3.3,5,3.3,5.1,0.1c1-24.9,2-49.9,2.9-74.8
				C966.9,1338.9,961.8,1338.8,961.6,1342.1z"/>
			<path class="st41" d="M982.3,1377.2c-0.2-3.2-5.3-3.3-5.1-0.1c1,14.6,0.4,29.3-1.9,43.8c-0.5,3.2,4.4,4.6,4.9,1.4
				C982.6,1407.4,983.4,1392.3,982.3,1377.2z"/>
			<path class="st41" d="M668.2,102.4c0,46.6-1,93.3-3,139.8c-0.5,13.1-1.2,26.3-1.9,39.4c-0.2,3.3,4.9,3.3,5.1,0.1
				c2.5-46.6,4-93.2,4.6-139.8c0.2-13.1,0.2-26.3,0.3-39.4C673.3,99.2,668.2,99.1,668.2,102.4z"/>
			<path class="st41" d="M690,107.1c-1.8,34.3-3.6,68.5-5.5,102.8c-0.2,3.3,4.9,3.3,5.1,0.1c1.8-34.3,3.6-68.5,5.5-102.8
				C695.3,103.9,690.2,103.8,690,107.1z"/>
			<path class="st41" d="M683.7,233.3c-0.5,66.5-1.1,133.1-1.6,199.6c-0.1,18.6-0.3,37.3-0.4,55.9c0,3.3,5.1,3.4,5.1,0.1
				c0.5-66.5,1.1-133.1,1.6-199.6c0.1-18.6,0.3-37.3,0.4-55.9C688.9,230.1,683.8,230,683.7,233.3z"/>
			<path class="st41" d="M663.4,312.8v56.1c0,3.3,5.1,3.4,5.1,0.1v-56.1C668.4,309.6,663.4,309.5,663.4,312.8z"/>
			<path class="st41" d="M665.4,403.2c-0.4,53.3-0.8,106.7-1.3,160l-0.4,45.7c0,3.3,5.1,3.4,5.1,0.1c0.4-53.3,0.8-106.7,1.3-160
				l0.4-45.7C670.6,400,665.5,399.9,665.4,403.2z"/>
			<path class="st41" d="M694.4,515.5c-0.3-3.2-5.4-3.3-5.1-0.1c2.1,23.3,3.4,46.7,4,70.1c0.1,3.3,5.2,3.4,5.1,0.1
				C697.8,562.2,696.4,538.8,694.4,515.5z"/>
			<path class="st41" d="M685.4,568.4c-0.1-3.3-5.2-3.4-5.1-0.1c1,49.3,0.6,98.7-1.4,148c-0.1,3.3,5,3.3,5.1,0.1
				C685.9,667.1,686.4,617.8,685.4,568.4z"/>
			<path class="st41" d="M655.9,638.5c-2.2,42.5-4.4,85-6.6,127.4l-1.9,36.1c-0.2,3.3,4.9,3.3,5.1,0.1c2.2-42.5,4.4-85,6.6-127.5
				c0.6-12,1.3-24.1,1.9-36.1C661.1,635.3,656,635.2,655.9,638.5z"/>
			<path class="st41" d="M696,613.5c-0.7,17.7-1.3,35.3-2,53c-0.1,3.3,5,3.3,5.1,0.1c0.7-17.7,1.3-35.3,2-53
				C701.3,610.3,696.2,610.3,696,613.5z"/>
			<path class="st41" d="M670,741.3c-1,51.4-2,102.9-3.1,154.3c-0.1,3.3,5,3.3,5.1,0.1c1-51.4,2-102.9,3.1-154.3
				C675.2,738.1,670.1,738.1,670,741.3z"/>
			<path class="st41" d="M685.2,746v120c0,3.3,5.1,3.4,5.1,0.1v-120C690.3,742.8,685.2,742.7,685.2,746z"/>
			<path class="st41" d="M696.1,690.8c-2.4,10.4-3.5,21.1-3.2,31.8c0.1,3.3,5.2,3.4,5.1,0.1c-0.3-10.3,0.7-20.5,3-30.5
				C701.8,689,696.9,687.6,696.1,690.8z"/>
			<path class="st41" d="M651.5,838c-1.2,52.7-4.1,105.4-8.8,157.9c-1.3,14.9-2.8,29.7-4.4,44.5c-0.4,3.3,4.7,3.3,5.1,0.1
				c5.6-52.4,9.6-105,11.8-157.7c0.6-14.9,1.1-29.8,1.4-44.7C656.7,834.8,651.6,834.7,651.5,838z"/>
			<path class="st41" d="M668.9,925.2l-2,62.4c-0.1,3.3,5,3.3,5.1,0.1l2-62.4C674.1,922,669,921.9,668.9,925.2z"/>
			<path class="st41" d="M664.3,1012.5c-0.5,47.3-2.6,94.6-6.5,141.7c-0.3,3.3,4.8,3.3,5.1,0.1c3.9-47.2,6.1-94.4,6.5-141.7
				C669.4,1009.3,664.3,1009.2,664.3,1012.5z"/>
			<path class="st41" d="M685.2,897.2V1067c0,3.3,5.1,3.4,5.1,0.1V897.2C690.3,894,685.2,893.9,685.2,897.2z"/>
			<path class="st41" d="M689,1141.4c-0.2-15.4-0.5-30.8-0.7-46.3c-0.1-3.3-5.1-3.4-5.1-0.1l2.6,164.1c0.2,15.4,0.5,30.8,0.7,46.3
				c0.1,3.3,5.1,3.4,5.1,0.1C690.7,1250.8,689.8,1196.1,689,1141.4z"/>
			<path class="st41" d="M663.4,1173v53c0,3.3,5.1,3.4,5.1,0.1v-53C668.4,1169.8,663.4,1169.7,663.4,1173z"/>
			<path class="st41" d="M695,1339.8c0.1-3.3-5-3.3-5.1-0.1c-0.7,26,0.2,52,2.7,78c0.3,3.2,5.4,3.3,5.1,0.1
				C695.2,1391.9,694.3,1365.8,695,1339.8z"/>
			<path class="st41" d="M644.7,1060.8v28.1c0,3.3,5.1,3.4,5.1,0.1v-28.1C649.7,1057.6,644.7,1057.5,644.7,1060.8z"/>
			<path class="st41" d="M386.8,700.4c-9.5-34.4-12.5-70.1-14.8-105.5c-2.4-35.5-4.6-71-11.7-105.9c-3.8-18.4-8.4-36.5-12-54.9
				c-3.5-17.6-6-35.5-7.9-53.3c-3.9-35.8-5.4-71.9-7.9-107.8c-2.7-40.1-6.5-80.3-15.5-119.5c-0.7-3.2-5.7-2-4.9,1.2
				c16.2,70.6,15.2,143.4,22.1,215.2c1.7,17.9,3.9,35.8,7,53.5c3.1,18,7.4,35.7,11.3,53.4c4,17.9,7.3,35.9,9.4,54.1
				c2,17.7,3.2,35.4,4.4,53.1c2.6,39.5,5.1,79.3,15.7,117.6C382.7,704.8,387.7,703.6,386.8,700.4z"/>
			<path class="st41" d="M373.1,491.2c-12.4-40.5-15-82.9-16.5-125c-0.7-21-1.2-42-2.6-63c-1.4-21.7-3.8-43.3-6.7-64.8
				c-3.4-24.7-7.5-49.3-11.6-73.9c-0.5-3.2-5.5-2-4.9,1.2c7.3,43.8,14.7,87.6,17.9,132c3,41.9,2.2,83.9,6.4,125.7
				c2.4,23.3,6.3,46.5,13.2,68.9C369.1,495.5,374,494.3,373.1,491.2z"/>
			<path class="st41" d="M347.3,162.6c-1.1-3.1-6-1.9-4.9,1.2c6.5,18.8,9.7,38.6,9.4,58.6c-0.1,3.3,5,3.4,5.1,0.1
				C357.2,202.1,354,181.8,347.3,162.6z"/>
			<path class="st41" d="M410.3,574.8c-10.5-38.4-22.9-76.3-30.9-115.4c-4.6-22.1-7.6-44.6-8.1-67.2c-0.1-3.3-5.2-3.4-5.1-0.1
				c0.8,39.7,9.6,78.6,20.1,116.8c10.6,38.4,22.9,76.3,30.8,115.4c4.5,22.1,7.5,44.6,7.8,67.2c0.1,3.3,5.1,3.4,5.1,0.1
				C429.4,651.9,420.8,612.9,410.3,574.8z"/>
			<path class="st41" d="M418,745.6c-4.9-46.4-11.2-92.7-19-138.7c-4.4-26.1-9.3-52.1-14.7-78c-0.7-3.2-5.6-2-4.9,1.2
				c9.4,45.7,17.4,91.7,24,137.9c6.6,46.4,11.7,93,15.3,139.7c2,26.2,3.6,52.4,4.7,78.6c0.1,3.3,5.2,3.4,5.1,0.1
				C426.4,839.4,423,792.4,418,745.6z"/>
			<path class="st41" d="M393.5,664.6c-2-15.1-4.4-30.1-7.1-45.1c-0.6-3.2-5.5-2-4.9,1.2c9.5,52.7,14.8,106.2,15.7,159.8
				c0.3,15,0.2,30-0.3,45c-0.1,3.3,5,3.3,5.1,0.1C403.5,771.8,400.7,717.9,393.5,664.6z"/>
			<path class="st41" d="M385.2,729.8c-0.7-3.2-5.6-2-4.9,1.2c2.7,13.2,4.3,26.5,4.9,40c0.1,3.3,5.2,3.4,5.1,0.1
				C389.7,757.2,388,743.4,385.2,729.8z"/>
			<path class="st41" d="M444.9,783.7c-2.5-19.5-5.2-39-8.2-58.4c-0.5-3.2-5.4-2-4.9,1.2c10.6,68.2,17.8,136.9,21.3,205.8
				c1,19.4,1.7,38.9,2.2,58.3c0.1,3.3,5.2,3.4,5.1,0.1C458.7,921.5,453.6,852.4,444.9,783.7z"/>
			<path class="st41" d="M444.2,963.4c-0.9-15.8-1.8-31.6-2.7-47.5c-0.2-3.3-5.3-3.3-5.1-0.1c3.2,55.9,6.3,111.8,9.5,167.7
				c0.9,15.8,1.8,31.6,2.7,47.5c0.2,3.3,5.3,3.3,5.1,0.1C450.5,1075.2,447.4,1019.3,444.2,963.4z"/>
			<path class="st41" d="M415.3,909.6c-2.7-20.9-5.5-41.8-8.5-62.6c-0.5-3.2-5.4-2-4.9,1.2c10.5,74.1,19.4,148.4,26.4,222.8
				c2,21,3.8,42,5.5,63c0.3,3.2,5.4,3.3,5.1,0.1C432.7,1059,424.9,984.2,415.3,909.6z"/>
			<path class="st41" d="M470.1,1064.3c-0.8-13.1-1.6-26.2-2.4-39.3c-0.2-3.3-5.3-3.3-5.1-0.1c2.8,46.1,5.7,92.2,8.5,138.3
				c0.8,13.1,1.6,26.2,2.4,39.3c0.2,3.3,5.3,3.3,5.1,0.1C475.7,1156.6,472.9,1110.5,470.1,1064.3z"/>
			<path class="st41" d="M434.8,1198.3c-1.2-16.2-2.5-32.4-3.8-48.5c-0.3-3.2-5.4-3.3-5.1-0.1c4.9,56.9,8.5,113.9,10.8,171
				c0.7,16.2,1.2,32.4,1.7,48.7c0.1,3.3,5.2,3.4,5.1,0.1C441.8,1312.3,438.9,1255.3,434.8,1198.3z"/>
			<path class="st41" d="M457.8,1159.1c-0.2-3.3-5.3-3.3-5.1-0.1c2.5,42.1,5,84.2,7.5,126.2c0.2,3.3,5.3,3.3,5.1,0.1
				C462.8,1243.2,460.3,1201.1,457.8,1159.1z"/>
			<path class="st41" d="M481.1,1277.8c-1.2-15.1-2.4-30.3-3.4-45.4c-0.2-3.2-5.3-3.3-5.1-0.1c3.7,53,8.4,106,14,158.9
				c1.6,15.1,3.3,30.2,5,45.3c0.4,3.2,5.5,3.3,5.1,0.1C490.6,1383.7,485.4,1330.8,481.1,1277.8z"/>
			<path class="st41" d="M468.8,1327.3c0-3.3-5.1-3.4-5.1-0.1c-0.2,38.9,3.6,77.8,11.3,115.9c0.6,3.2,5.6,2,4.9-1.2
				C472.4,1404.3,468.6,1365.8,468.8,1327.3z"/>
			<path class="st41" d="M454.4,1462.9c-1.7-25-3.4-49.9-5.1-74.9c-0.2-3.2-5.3-3.3-5.1-0.1c1.8,26.9,3.7,53.7,5.5,80.6
				c0.2,3.2,5,3.4,5.1,0.1l0.1-4.2C455,1463.8,454.7,1463.3,454.4,1462.9z"/>
			<path class="st41" d="M483.6,1461.9c-1.5,0-2.2,1-2.4,2.1c0-0.2,0-0.3,0-0.5c0-0.5,0.1-1.1,0.1-1.6c0-0.3,0.1-0.5,0.1-0.8
				c0,0,0-0.1,0-0.1c0-0.2,0.1-0.3,0.1-0.5c0.2-1.2-0.3-2.5-1.4-3c-0.1,0-0.1-0.1-0.2-0.1c-0.1,0-0.1-0.1-0.2-0.1
				c-0.1,0-0.2,0-0.3,0c-0.2,0-0.3-0.1-0.5-0.1c-1.8,0-2.6,1.5-2.4,2.9c-0.7,4.8-0.5,9.8,0.9,14.5c0.4,1.3,1.7,2.3,3.1,1.9
				c1.3-0.4,2.2-1.7,1.9-3.1c-0.6-2.2-1-4.4-1.1-6.4c0-0.7,0-1.3,0-2c0.2,1.1,0.9,2.1,2.4,2.1C486.8,1467,486.9,1461.9,483.6,1461.9
				z"/>
			<path class="st41" d="M50.7,190.5c-9.2,43.4-10.4,87.9-11.9,132.1c-1.5,45.3-4.5,90.5-9.6,135.5c-2.9,25.6-6.4,51.1-10.6,76.5
				c-0.5,3.2,4.4,4.6,4.9,1.4c7.3-44.7,12.7-89.6,16.2-134.7c3.4-44.8,3.7-89.7,6.5-134.5c1.5-25.1,4.2-50.2,9.4-74.8
				C56.2,188.7,51.3,187.3,50.7,190.5z"/>
			<path class="st41" d="M75.6,170.3c-7.1,3.2-6.6,14-7.4,20.5c-1.2,10.7-2.4,21.3-3.5,32c-2.1,21.1-3.9,42.3-5.3,63.5
				c-0.2,3.3,4.9,3.3,5.1,0.1c1.3-19.5,2.9-39,4.8-58.5c0.9-9.6,1.9-19.3,3-28.9c0.5-4.8,1.1-9.6,1.7-14.4c0.4-3.3,0.4-8.2,4-9.8
				C81,173.4,78.6,168.9,75.6,170.3z"/>
			<path class="st41" d="M58.8,320.6c-2.4,43.9-5.5,87.7-9.3,131.4c-3.8,43.8-8.3,87.4-13.4,131.1c-2.9,24.6-6.1,49.2-9.4,73.8
				c-0.4,3.2,4.7,3.3,5.1,0.1c6-43.5,11.2-87.1,15.8-130.8c4.6-43.7,8.4-87.4,11.6-131.2c1.8-24.7,3.4-49.5,4.7-74.2
				C64.1,317.4,59,317.3,58.8,320.6z"/>
			<path class="st41" d="M14.1,574.6c-0.4,45.6-0.9,91.2-1.3,136.8c-0.1,13.1-0.2,26.2-0.4,39.3c0,3.3,5.1,3.4,5.1,0.1l1.3-136.8
				c0.1-13.1,0.2-26.2,0.4-39.3C19.2,571.4,14.1,571.3,14.1,574.6z"/>
			<path class="st41" d="M37.9,736.4c-0.6-16.5-1.1-33-1.5-49.5c-0.1-3.3-5.2-3.4-5.1-0.1c1.6,58.8,4,117.6,7.1,176.4
				c0.9,16.5,1.8,33,2.8,49.5c0.2,3.3,5.3,3.3,5.1,0.1C42.7,854,39.9,795.2,37.9,736.4z"/>
			<path class="st41" d="M25.9,916.8c-0.8-23.6-1.6-47.3-2.4-70.9c-0.1-3.3-5.2-3.4-5.1-0.1c1.4,40.6,3.1,81.3,3.9,121.9
				c0.8,39.5,0.4,79.1-4.4,118.4c-2.7,22.1-6.9,44-12.9,65.4c-0.9,3.2,4,4.5,4.9,1.4C31.4,1076.1,28.6,995.6,25.9,916.8z"/>
			<path class="st41" d="M97.8,135.1l-6.2,62.3c-0.3,3.3,4.8,3.3,5.1,0.1c2.1-20.8,4.1-41.6,6.2-62.3
				C103.3,131.9,98.2,131.9,97.8,135.1z"/>
			<path class="st41" d="M115.1,111.8c-0.5,35.9-2.2,71.7-5.2,107.5c-0.3,3.3,4.8,3.3,5.1,0.1c3-35.8,4.8-71.6,5.2-107.5
				C120.3,108.5,115.2,108.5,115.1,111.8z"/>
			<path class="st41" d="M136.2,153.8c-0.9,10.9-2.5,21.6-4.9,32.3c-0.7,3.2,4.2,4.6,4.9,1.4c2.5-11.1,4.2-22.3,5.1-33.6
				C141.5,150.6,136.4,150.5,136.2,153.8z"/>
			<path class="st41" d="M93.4,223.4C81.3,293.7,73,364.8,68.7,436c-1.2,20.2-2.1,40.4-2.7,60.7c-0.1,3.3,5,3.3,5.1,0.1
				C73.2,425.8,79.1,355,89,284.7c2.8-20,5.9-40,9.4-60C98.9,221.5,94,220.1,93.4,223.4z"/>
			<path class="st41" d="M106,297.7c0.1-3.3-5-3.3-5.1-0.1c-1.4,44.1-3.2,88.3-5.6,132.4c-2.3,44.1-5.2,88.2-8.5,132.2
				c-1.9,24.9-3.9,49.7-6,74.6c-0.3,3.3,4.8,3.3,5.1,0.1c3.8-44,7.2-88,10.1-132.1c2.9-44.1,5.3-88.2,7.2-132.3c1-24,1.9-48,2.7-72
				c0,0,0-0.1,0-0.1L106,297.7z"/>
			<path class="st41" d="M124.5,283.2c-0.7,37.9-2,75.8-3.9,113.7c-0.2,3.3,4.9,3.3,5.1,0.1c1.9-37.9,3.2-75.8,3.9-113.7
				C129.6,280,124.5,279.9,124.5,283.2z"/>
			<path class="st41" d="M110.1,471.9c-8.5,69.3-14.4,138.9-17.6,208.6c-0.9,19.7-1.6,39.5-2.1,59.2c-0.1,3.3,5,3.3,5.1,0.1
				c1.7-69.8,6.1-139.5,13.1-208.9c2-19.7,4.2-39.3,6.6-58.9C115.6,468.7,110.5,468.7,110.1,471.9z"/>
			<path class="st41" d="M68.4,593.6c-0.1-15.7-0.3-31.3-0.4-47c0-3.3-5.1-3.4-5.1-0.1c0.5,55.5,1,111,1.5,166.5
				c0.1,15.7,0.3,31.3,0.4,47c0,3.3,5.1,3.4,5.1,0.1C69.4,704.6,68.9,649.1,68.4,593.6z"/>
			<path class="st41" d="M73.5,867.9c-0.2-22.4-0.4-44.9-0.8-67.3c-0.1-3.3-5.1-3.4-5.1-0.1c1.3,80.4,1.2,160.9-0.1,241.3
				c-0.4,22.4-0.8,44.9-1.4,67.3c-0.1,3.3,5,3.3,5.1,0.1C73.4,1028.8,74.1,948.4,73.5,867.9z"/>
			<path class="st41" d="M100.8,767.5c0.3-0.5,0.5-1.1,0.3-1.8l-0.8-4.1c-0.5-2.8-5.2-2.3-5,0.6c2.6,39.8,5.3,79.6,7.9,119.4
				c0.2,3.3,5.3,3.3,5.1,0.1C105.8,843.6,103.3,805.5,100.8,767.5z"/>
			<path class="st41" d="M94.6,920.5c-2.2,67.2-4.5,134.5-6.7,201.7c-0.6,19-1.3,38.1-1.9,57.1c-0.1,3.3,5,3.3,5.1,0.1
				c2.2-67.2,4.5-134.5,6.7-201.7c0.6-19,1.3-38.1,1.9-57.1C99.9,917.3,94.8,917.2,94.6,920.5z"/>
			<path class="st41" d="M52.6,1021.8c-0.3-19.2-1-38.3-2.2-57.5c-0.2-3.3-5.3-3.3-5.1-0.1c4,66.6,2.8,133.5-3.8,199.9
				c-1.9,18.9-4.1,37.7-6.9,56.5c-0.5,3.2,4.4,4.6,4.9,1.4C49.2,1155.7,53.6,1088.7,52.6,1021.8z"/>
			<path class="st41" d="M71.6,1195.4c0.6-19.4,1.5-38.8,2.6-58.1c0.2-3.3-4.9-3.3-5.1-0.1c-3.9,67.8-4.8,135.8-2.8,203.6
				c0.6,19.4,1.4,38.8,2.5,58.1c0.2,3.3,5.3,3.3,5.1,0.1C70.2,1331.3,69.4,1263.3,71.6,1195.4z"/>
			<path class="st41" d="M92.9,1425.2C92,1378.5,92,1331.8,93,1285c0.6-26.4,1.5-52.8,2.7-79.2c0.1-3.3-4.9-3.3-5.1-0.1
				c-2.1,46.9-3.3,93.8-3.4,140.7c-0.2,46.7,0.7,93.4,2.4,140.1c1,26.4,2.3,52.8,4,79.2c0.2,3.3,5.3,3.3,5.1,0.1
				C95.8,1519,93.8,1472.1,92.9,1425.2z"/>
			<path class="st41" d="M41.6,1315.4c0.6-23.6,1.5-47.2,2.8-70.7c0.2-3.3-4.9-3.3-5.1-0.1c-4.5,82.9-4.7,166-0.6,248.9
				c1.2,23.6,2.7,47.1,4.6,70.6c0.3,3.2,5.4,3.3,5.1,0.1C41.8,1481.5,39.5,1398.4,41.6,1315.4z"/>
			<path class="st41" d="M19,1160.4c-6.7,50.4-11.8,101-15.3,151.7c-3.5,50.7-5.4,101.5-5.8,152.3c-0.2,28.6,0.1,57.1,0.9,85.7
				c0.1,3.3,5.2,3.4,5.1,0.1c-1.4-50.8-1.3-101.6,0.4-152.4c1.7-50.8,5.1-101.5,10-152.1c2.8-28.4,6-56.8,9.8-85.1
				C24.6,1157.3,19.5,1157.2,19,1160.4z"/>
			<path class="st41" d="M28.3,1529.5c-3.3-42.3-5.9-84.6-7.7-127c-1-24-1.8-48.1-2.3-72.1c-0.1-3.3-5.2-3.4-5.1-0.1
				c0.9,42.4,2.6,84.8,5,127.1c2.5,42.3,5.7,84.6,9.7,126.8c2.3,23.9,4.8,47.9,7.6,71.7c0.4,3.2,5.5,3.3,5.1,0.1
				C35.8,1614,31.7,1571.8,28.3,1529.5z"/>
			<path class="st41" d="M70.4,1494c-0.4-19.2-0.4-38.4-0.1-57.6c0.1-3.3-5-3.4-5.1-0.1c-1.3,68.4,2.3,136.9,10.5,204.8
				c2.3,19.3,5.1,38.5,8.2,57.6c0.5,3.2,5.5,2,4.9-1.2C78,1630.2,71.8,1562.2,70.4,1494z"/>
			<path class="st41" d="M106.2,1674.3c-4.7-30.7-6.9-61.8-6.6-92.9c0-3.3-5.1-3.4-5.1-0.1c-0.4,34,2.3,68,7.8,101.5
				c0.5,2.9,4.9,2.2,5-0.6c0.1-1.9,0.1-3.9,0.2-5.8C107.5,1675.3,106.9,1674.6,106.2,1674.3z"/>
			<path class="st41" d="M77.4,1702.4c-8.8-38.7-16.2-77.6-22.2-116.8c-0.5-3.2-5.4-2-4.9,1.2c6,39.2,13.4,78.2,22.2,116.8
				C73.1,1706.8,78.1,1705.6,77.4,1702.4z"/>
			<path class="st41" d="M23,1681.4c-13.9-34.1-20.1-71.1-18.3-107.8c0.2-3.3-4.9-3.3-5.1-0.1c-1.8,37.7,4.7,75.4,19,110.3
				C19.8,1686.9,24.2,1684.4,23,1681.4z"/>
		</g>
		<g class="st38">
			<path class="st42" d="M201.9,1495.6c-25.1-6.9-50.8-11-76.7-12.3c-3.3-0.2-3.3,4.9-0.1,5.1c25.5,1.3,50.8,5.4,75.4,12.1
				C203.7,1501.4,205.1,1496.5,201.9,1495.6z"/>
			<path class="st42" d="M166.4,1506.7c-9.5-1.8-19.2-2.4-28.8-1.8c-1.4,0.1-2.6,1.1-2.6,2.5c0,1.3,1.1,2.7,2.5,2.6
				c9.2-0.6,18.5-0.1,27.5,1.6c1.4,0.2,2.7-0.4,3.1-1.8C168.6,1508.6,167.8,1506.9,166.4,1506.7z"/>
			<path class="st42" d="M52.5,1942.9c-2.8-5.6-6.9-11.7-12.6-14.7c-5.2-2.7-11.2-1.8-14.9,2.9c-3.4,4.3-3.6,10.3-7,14.6
				c-4.5,5.7-13.2,0.7-19.1,2.8c-5.2,1.8-10.8,9.3-5.3,13.9c2.5,2.1,6.2-1.4,3.7-3.5c-2.3-1.9,1.3-4.8,3.1-5.6
				c3.3-1.3,7.6,0.2,11.1,0.2c6.7,0,10.8-3.8,13.2-9.7c1.8-4.3,3.2-12.4,9.4-12.2c6.5,0.1,11.5,8.5,14,13.6
				C49.5,1948.3,53.9,1945.9,52.5,1942.9z"/>
			<path class="st42" d="M137.9,2020.8c-4.9-5.3-11.5-5.4-18.3-5.1c-4,0.2-8,0.3-11.8-1.3c-3-1.3-5.8-2.8-9.2-2.5
				c-5,0.4-8.3,4.4-10,8.8c-2.2,5.7-2.2,12.4-1.1,18.4c0.6,3.2,5.5,2,4.9-1.2c-0.9-5.1-0.8-10.9,1.1-15.7c0.7-1.9,2-3.9,3.9-4.8
				c2.7-1.1,5.3,0.4,7.7,1.5c3.4,1.5,6.9,2.1,10.6,2.1c4.1,0,8.4-0.7,12.5,0c3.7,0.7,11.2,6.6,7,10.6c-2.4,2.3,1.1,5.9,3.5,3.7
				C143.2,2031,141.6,2024.8,137.9,2020.8z"/>
			<path class="st42" d="M-6.7,1858.9c-3.7-3.1-8.5-4.9-13.3-3.8c-3.7,0.8-6.8,3.8-8.4,7.2c-1.8,4.1-1.7,9.1,1.7,12.3
				c2.4,2.3,6.1-1.2,3.7-3.5c-2.4-2.3-1.7-5.9,0.2-8.3c2.3-3.1,6.1-3.5,9.5-2.1c10.5,4.5,9.8,17.9,8.7,27.2
				c-0.2,1.4,1.2,2.6,2.5,2.6c1.5,0,2.4-1.1,2.6-2.5C1.6,1877.9,1.8,1866-6.7,1858.9z"/>
			<path class="st42" d="M154.4,1867.5c-6.2-3.9-14.2-2.4-19.4,2.6c-2.9,2.9-4.7,6.7-4.9,10.8c-0.2,3.3,4.9,3.3,5.1,0.1
				c0.3-6.2,6.7-11.7,12.9-10.6c5.9,1,10.3,7.5,9.1,13.4c-0.7,3.2,4.2,4.6,4.9,1.4C163.5,1878.3,160.3,1871.2,154.4,1867.5z"/>
			<path class="st42" d="M247.3,1970.3c-4.9-12.5-23.6-16-32.9-6.5c-2.3,2.3,1.2,6,3.5,3.7c7.3-7.4,21.2-4.2,24.9,5.3
				c0.5,1.3,2.4,1.6,3.5,1C247.6,1973,247.8,1971.6,247.3,1970.3z"/>
			<path class="st42" d="M-12.2,1761.9c-9.5-4.4-20.1,0.1-25.2,9c-2.8,4.8-3.8,10.7-2,16c1,3.1,5.9,1.9,4.9-1.2
				c-2.3-7.3,1.7-15.4,8.2-18.9c7-3.7,15-0.3,19,6.1c2.3,3.7,3.2,8.1,1.9,12.3c-0.9,3.1,4,4.5,4.9,1.4
				C2.5,1777-3.2,1766-12.2,1761.9z"/>
			<path class="st42" d="M24.5,1716.4c-7.4-0.8-14.6,2.7-19.4,8.2c-1.3-8.3-5.6-16.4-14-18.9c-9.3-2.7-21.3,3.4-21.2,13.8
				c0,3.3,5.1,3.4,5.1,0.1c0-7.7,9.9-11.3,16.2-8.4c8.3,3.9,10.1,14.7,9,22.8c-0.4,2.9,4.2,3.4,5,0.7c2.3-7.9,10-13.8,18.4-13.3
				c8.3,0.5,15.5,7.6,16.5,15.8c0.4,3.2,5.5,3.3,5.1,0.1C43.9,1726.6,35.4,1717.5,24.5,1716.4z"/>
			<path class="st42" d="M191,1757.9c-8.7-3.8-18.1-0.1-23.4,7.4c-3,4.2-4.2,9.4-3.4,14.5c0.5,3.2,5.5,2,4.9-1.2
				c-1.3-8.3,6.1-17.1,14.5-17.1c8.4,0,16,8.6,14.7,17c-0.2,1.4,0.3,2.7,1.8,3.1c1.2,0.3,2.9-0.4,3.1-1.8
				C204.7,1770.7,199.5,1761.6,191,1757.9z"/>
			<path class="st42" d="M212.9,1661.2c-7.2-13.1-26.6-13.7-37.2-4.6c-3.1,2.6-5.3,6.2-6.3,10.2c-0.8,3.2,4.1,4.6,4.9,1.4
				c3.5-14.3,26.9-17.5,34.1-4.5C210,1666.5,214.4,1664.1,212.9,1661.2z"/>
			<path class="st42" d="M240,1599.7c-2.5-8.6-11.6-13.1-20.1-12.5c-10.8,0.7-19.2,8.5-26.6,15.5c-2.4,2.3,1.1,6,3.5,3.7
				c6.1-5.9,13.2-12.8,22-14c6.3-0.8,14.3,1.9,16.2,8.6C235.9,1604.1,240.9,1602.9,240,1599.7z"/>
			<path class="st42" d="M174.1,1566.4c-12.3-2-25.4,6.8-27.3,19.4c-0.2,1.4,0.3,2.7,1.8,3.1c1.2,0.3,2.9-0.4,3.1-1.8
				c1.4-9.5,11.1-17.4,21-15.9c1.4,0.2,2.7-0.3,3.1-1.8C176.3,1568.3,175.5,1566.6,174.1,1566.4z"/>
			<path class="st42" d="M361.5,1632.8c-7.4-2.1-14.4,2.7-17.2,9.4c-1.5,3.7-1.4,7.7,0.1,11.4c0.5,1.3,2.3,1.6,3.5,1
				c1.3-0.7,1.6-2.2,1-3.5c-1.8-4.1,0.3-9.3,3.8-12c4-3,9.5-1.7,12.8,2.2c1.7,2.1,2.8,5,2.3,7.7c-0.2,1.4,0.4,2.7,1.8,3.1
				c1.2,0.3,2.9-0.4,3.1-1.8C374.2,1642.6,369,1634.8,361.5,1632.8z"/>
			<path class="st42" d="M409.4,1608.4c-1.7-0.4-3.5-0.4-5.1,0.3c-0.7,0.3-1.2,0.5-1.6,1.2c-0.3,0.5-0.5,1.3-0.3,1.9
				c0.4,1.2,1.8,2.4,3.1,1.9c0.2-0.1,0.5-0.2,0.7-0.2c0.1,0,0.3-0.1,0.4-0.1c0,0,0,0,0,0c0.2,0,0.4,0,0.6,0c0.1,0,0.3,0,0.4,0
				c0,0,0,0,0,0c0.2,0,0.5,0.1,0.6,0.1c0.3,0.1,0.5,0.2,0.8,0.3c0.1,0,0.2,0.1,0.2,0.1c0.3,0.1,0.5,0.3,0.8,0.4
				c0.2,0.1,0.4,0.2,0.5,0.4c0.1,0.1,0.2,0.2,0.3,0.3c0.2,0.2,0.4,0.4,0.6,0.6c0.1,0.1,0.2,0.2,0.2,0.3c0,0,0.1,0.1,0.1,0.2
				c0,0,0.1,0.1,0.1,0.1c0.1,0.1,0.1,0.2,0.2,0.3c0.1,0.2,0.3,0.5,0.4,0.7c0,0.1,0.1,0.2,0.1,0.3c0.1,0.3,0.2,0.5,0.2,0.8
				c0,0.1,0.1,0.3,0.1,0.4c0,0.3,0,0.6,0,0.8c0,0.1,0,0.2,0,0.3c0,0,0,0.1,0,0.1c-0.1,0.3-0.2,0.7-0.3,1c-0.5,1.2,0.5,2.8,1.8,3.1
				c1.4,0.3,2.6-0.4,3.1-1.8C419.9,1616.3,415.2,1609.6,409.4,1608.4z"/>
			<path class="st42" d="M338.8,1563.2c-8.6-2.9-19,3-20.8,11.9c-0.3,1.3,0.4,2.8,1.8,3.1c1.3,0.4,2.9-0.4,3.1-1.8
				c0.1-0.5,0.2-0.9,0.3-1.3c0.1-0.2,0.2-0.4,0.2-0.6c0-0.1,0-0.1,0-0.1c0,0,0,0,0.1-0.1c0.4-0.8,0.8-1.5,1.4-2.2
				c0-0.1,0.1-0.1,0.1-0.2c0.2-0.2,0.3-0.3,0.5-0.5c0.3-0.3,0.6-0.6,0.9-0.9c0.2-0.2,0.3-0.3,0.5-0.4c0,0,0.2-0.2,0.3-0.2
				c0.3-0.2,0.7-0.5,1.1-0.7c0.4-0.2,0.8-0.4,1.2-0.6c0.2-0.1,0.3-0.1,0.5-0.2c0.1,0,0.2-0.1,0.3-0.1c0.8-0.3,1.7-0.5,2.6-0.6
				c0.1,0,0.1,0,0.1,0c0,0,0,0,0.1,0c0.2,0,0.5,0,0.7,0c0.5,0,0.9,0,1.4,0c0.1,0,0.3,0,0.4,0c0.2,0,0.3,0.1,0.5,0.1
				c0.4,0.1,0.9,0.2,1.3,0.4c1.3,0.4,2.8-0.5,3.1-1.8C341,1565,340.1,1563.7,338.8,1563.2z"/>
			<path class="st42" d="M530.9,1582c-4.5-13.3-25.5-15.9-32.6-3.4c-1.6,2.8,2.7,5.5,4.4,2.6c2.4-4.3,7.4-6,12.4-5.5
				c4.6,0.4,9.4,3.1,10.9,7.6c0.4,1.3,1.7,2.2,3.1,1.9C530.3,1584.8,531.3,1583.3,530.9,1582z"/>
			<path class="st42" d="M493,1522.3c-13.6-2.2-27.2,8.2-28.4,21.9c-0.1,1.4,1.2,2.6,2.5,2.6c1.5,0,2.5-1.1,2.6-2.5
				c0.9-10.2,11.7-18.8,21.9-17.1c1.4,0.2,2.7-0.3,3.1-1.8C495.1,1524.2,494.3,1522.5,493,1522.3z"/>
			<g>
				<path class="st42" d="M578.6,1525.8c-1.6-2.5-4.3-3.9-7.2-3.9c-2.9-0.1-5.7,1.3-7.3,3.7c-0.8,1.1-0.3,2.9,0.9,3.5
					c1.2,0.7,2.6,0.3,3.4-0.8c0.1-0.1,0.1-0.1,0.2-0.2c0.1-0.1,0.1-0.1,0.1-0.1c0.1-0.1,0.3-0.3,0.4-0.4c0,0,0.1,0,0.1-0.1
					c0.2-0.1,0.4-0.2,0.6-0.3c0,0-0.1,0-0.1,0c0.1,0,0.1,0,0.2-0.1c0,0,0,0,0,0c0.1,0,0.2-0.1,0.2-0.1c0.2-0.1,0.4-0.1,0.5-0.1
					c0.1,0,0.1,0,0.2,0c0.2,0,0.4,0,0.6,0c0.2,0,0.4,0,0.6,0c0.1,0,0.1,0,0.2,0c0.2,0.1,0.5,0.1,0.7,0.2c0,0,0.1,0,0.1,0
					c0,0,0,0,0,0c0.2,0.1,0.4,0.2,0.6,0.3c0.1,0,0.1,0.1,0.2,0.1c0.1,0.1,0.3,0.3,0.4,0.4c0,0,0.1,0.1,0.1,0.1c0,0,0,0,0,0
					c0,0,0,0,0,0c0,0,0.1,0.1,0.1,0.1c0,0,0,0,0,0c0.7,1,2.2,1.6,3.4,0.9C578.7,1528.6,579.4,1527,578.6,1525.8z"/>
				<path class="st42" d="M569.7,1527.2C569.7,1527.2,569.6,1527.2,569.7,1527.2c0.2,0,0.3-0.1,0.3-0.1c0,0-0.1,0-0.1,0
					C569.8,1527.2,569.7,1527.2,569.7,1527.2z"/>
				<path class="st42" d="M568.4,1528.1C568.4,1528.1,568.4,1528.1,568.4,1528.1C568.4,1528.1,568.4,1528.2,568.4,1528.1
					C568.4,1528.2,568.4,1528.1,568.4,1528.1z"/>
				<path class="st42" d="M568.5,1528C568.5,1528.1,568.4,1528.1,568.5,1528C568.5,1528,568.5,1528,568.5,1528
					C568.5,1528,568.5,1528,568.5,1528C568.5,1528,568.5,1528,568.5,1528z"/>
				<path class="st42" d="M568.3,1528.3c0.1-0.1,0.1-0.1,0.1-0.1C568.3,1528.2,568.3,1528.2,568.3,1528.3
					C568.3,1528.2,568.3,1528.3,568.3,1528.3z"/>
			</g>
			<path class="st42" d="M547,1698.2c-8.6,1.5-13.4,10.5-16.8,17.6c-0.6,1.2-0.4,2.7,0.9,3.5c1.1,0.7,2.9,0.4,3.5-0.9
				c2.7-5.5,6.1-12.9,12.4-14.9c2.3-0.7,5.1-0.5,7.2,0.5c2.1,1,3.7,2.6,3.7,4.9c0,3.3,5.1,3.4,5.1,0.1
				C562.8,1700.9,554,1696.9,547,1698.2z"/>
			<path class="st42" d="M459.6,1676.1c-0.6-1.1-2.3-1.8-3.5-1c-4.8,3.4-9.6,6.7-14.3,10.1c-1.1,0.8-1.8,2.2-1,3.5
				c0.6,1.1,2.3,1.8,3.5,1c4.8-3.4,9.6-6.7,14.3-10.1C459.6,1678.8,460.3,1677.4,459.6,1676.1z"/>
			<path class="st42" d="M614.2,1827.2c-0.6-1.7-1.6-3.3-3-4.5c-2.8-2.4-6.6-3.8-10.3-2.9c-2.2,0.5-4,1.9-5.1,3.8
				c-0.7,1.2-0.4,2.8,0.9,3.5c1.2,0.6,2.8,0.4,3.5-0.9c0.1-0.1,0.2-0.3,0.3-0.4c0,0,0,0,0-0.1c0.2-0.2,0.4-0.4,0.6-0.6
				c0.1-0.1,0.2-0.1,0.3-0.2c0.1-0.1,0.2-0.1,0.3-0.2c0,0,0,0,0,0c0.3-0.1,0.6-0.1,0.9-0.2c0.2,0,0.3,0,0.5,0c0.3,0,0.6,0,0.9,0
				c0.2,0,0.3,0.1,0.5,0.1c0.3,0.1,0.6,0.2,1,0.3c0.1,0.1,0.3,0.1,0.4,0.2c0.6,0.3,1.2,0.6,1.7,1c0,0,0,0,0,0
				c0.1,0.1,0.2,0.1,0.2,0.2c0.2,0.2,0.5,0.5,0.7,0.7c0.1,0.1,0.2,0.2,0.2,0.3c0.2,0.3,0.3,0.6,0.5,0.9c0,0,0,0,0,0.1
				c0,0.1,0.1,0.2,0.1,0.4c0,0.1,0,0.3,0.1,0.4c0,0,0,0.1,0,0.1c0,0.2,0,0.3,0,0.5c0,0,0,0,0,0c0,0.2-0.1,0.3-0.1,0.5
				c-0.1,0.2-0.3,0.9,0,0.1c-0.5,1.2-0.4,2.8,0.9,3.5c1.1,0.6,2.9,0.4,3.5-0.9C614.5,1831.2,614.8,1829.2,614.2,1827.2z"/>
			<path class="st42" d="M505.4,1941.5c-4-6.5-12.1-8.9-19.2-6.4c-4,1.4-7.5,4.1-9.4,7.9c-0.6,1.2-0.4,2.7,0.9,3.5
				c1.1,0.7,2.9,0.4,3.5-0.9c1.2-2.5,3-4.1,5.5-5.3c1-0.5,2.5-0.9,3.9-1.1c0.8-0.1,2.7-0.1,3.5,0.1c2.7,0.5,4.9,1.8,6.3,3.8
				c1.6,2.2,2.3,4.7,2.4,7.2c0,1.7-0.2,2.8-0.7,4.5c0,0.1-0.1,0.3-0.1,0.4c0,0.1,0,0.1-0.1,0.2c0,0,0,0-0.1,0.1
				c-0.2,0.4-0.4,0.8-0.6,1.1c-0.5,0.8-0.7,1.1-1.3,1.7c-2.3,2.4,1.2,6.1,3.5,3.7C508.5,1956.6,509.3,1947.9,505.4,1941.5z"/>
			<path class="st42" d="M413.4,1969.6c-1.6-1.8-4-3-6.3-3.5c-2.6-0.5-5.2-0.3-7.6,1c-2.6,1.3-4.7,3.5-6.3,5.9
				c-1.9,2.7-3.1,5.8-4.4,8.9c-0.5,1.3,0.6,2.8,1.8,3.1c1.4,0.4,2.6-0.5,3.1-1.8c1-2.6,2.2-5.2,3.8-7.5c0.7-1.1,1.5-2,2.6-2.9
				c0.5-0.4,0.8-0.7,1.4-1c0.3-0.2,0.6-0.4,1-0.5c0.2-0.1,0.2-0.1,0,0c0.2-0.1,0.3-0.1,0.5-0.2c1-0.3,1.7-0.3,2.9-0.2
				c-0.4-0.1,0.5,0.1,0.6,0.1c0.2,0.1,0.5,0.1,0.7,0.2c0.1,0,0.4,0.1,0.4,0.2c0.3,0.1,0.5,0.3,0.8,0.4c0.2,0.1,0.4,0.3,0.6,0.4
				c0.1,0.1,0.1,0.1,0.1,0.1c0,0,0,0,0.1,0.1c0.2,0.2,0.5,0.4,0.7,0.7c0.1,0.1,0.1,0.1,0.1,0.1c0,0,0,0,0.1,0.1
				c0.1,0.2,0.2,0.4,0.4,0.7c0,0.1,0.1,0.3,0.1,0.4c0,0.1,0,0.1,0,0.1c0,0,0,0,0,0.1c0,0.1-0.1,1,0,0.6c-0.2,1.4,0.3,2.7,1.8,3.1
				c1.2,0.3,2.9-0.4,3.1-1.8C415.8,1974.1,415.1,1971.6,413.4,1969.6z"/>
			<path class="st42" d="M556.3,1987.1c-11.6-1.7-23.2,5-27.3,16c-0.5,1.3,0.5,2.8,1.8,3.1c1.4,0.4,2.7-0.5,3.1-1.8
				c3.1-8.1,12.4-13.8,21.1-12.5c1.4,0.2,2.7-0.3,3.1-1.8C558.5,1989,557.7,1987.3,556.3,1987.1z"/>
			<path class="st42" d="M183.1,2056.5c-6.2-0.2-11.7,4.3-14.9,9.2c-3.7,5.7-5.2,12.6-5.2,19.2c-0.1,8.5,2.1,17,7.6,23.7
				c2.1,2.5,5.8-1,3.7-3.5c-4.9-6-6.5-14-6.1-21.7c0.3-6.2,2-12.9,6.3-17.6c3.8-4.1,9.4-5.9,14.1-2c3.4,2.8,6.1,8.4,1.8,11.6
				c-2.6,2,0.9,5.6,3.5,3.7C203.8,2071.6,193,2056.7,183.1,2056.5z"/>
			<path class="st42" d="M49.3,2127.9c-5.6-6-16.1-6.1-21.7-0.1c-0.9,1-1.1,2.6-0.1,3.6c0.9,1,2.7,1.1,3.6,0.1
				c0.3-0.3,0.6-0.6,0.9-0.8c0.1-0.1,0.3-0.3,0.5-0.4c0,0,0,0,0,0c0,0,0,0,0.1-0.1c0.7-0.4,1.3-0.8,2-1.1c0,0,0.1,0,0.1,0
				c0.2-0.1,0.4-0.1,0.6-0.2c0.4-0.1,0.8-0.2,1.2-0.3c0.2,0,0.4-0.1,0.6-0.1c0.1,0,0.1,0,0.1,0c0,0,0,0,0.1,0c0.4,0,0.8,0,1.2,0
				c0.4,0,0.7,0,1.1,0c0,0,0.3,0,0.4,0c0.1,0,0.3,0.1,0.4,0.1c0.8,0.1,1.5,0.4,2.3,0.6c0.1,0,0.1,0,0.1,0c0,0,0,0,0,0
				c0.2,0.1,0.4,0.2,0.5,0.3c0.3,0.2,0.7,0.4,1,0.6c0.1,0.1,0.3,0.2,0.4,0.3c0.1,0,0.1,0,0.1,0.1c0,0,0,0,0,0
				c0.3,0.3,0.6,0.6,0.9,0.9C47.9,2133.8,51.6,2130.3,49.3,2127.9z"/>
			<path class="st42" d="M23.8,2347.7c-15.7,0.6-25.7,16.3-27.2,30.6c-1.2,11.2,1.6,22.5,4.3,33.3c0.8,3.2,5.7,2,4.9-1.2
				c-4.3-17-9.2-38.6,5.6-52c5.5-5,13.3-7.3,20.1-3.5c6,3.4,11,11,7.5,17.8c-1.5,2.9,2.9,5.6,4.4,2.6
				C49.9,2362.4,37.3,2347.2,23.8,2347.7z"/>
			<path class="st42" d="M84.6,2381.8c-2.5,0.3-4.8,1.5-6.8,3.1c-1,0.9-1,2.6-0.1,3.6c1,1,2.6,1,3.6,0.1c0.1-0.1,0.8-0.6,0.4-0.3
				c0.2-0.1,0.4-0.3,0.6-0.4c0.3-0.2,0.5-0.3,0.8-0.4c0,0,0.3-0.1,0.4-0.1c0.5-0.2,0.9-0.3,1.4-0.4c0.3-0.1,0.5-0.1,0.8-0.1
				c0.1,0,0.3,0,0.4,0c0.5,0,1.1,0,1.6,0c0.1,0,1,0.1,0.5,0c0.2,0,0.5,0.1,0.7,0.1c0.5,0.1,1.1,0.3,1.6,0.4c0.3,0.1,0.5,0.2,0.8,0.3
				c0.1,0,0.2,0.1,0.2,0.1c0,0,0,0,0.1,0.1c1,0.5,1.9,1,2.8,1.7c0.1,0.1,0.2,0.2,0.3,0.2c0.2,0.2,0.5,0.4,0.7,0.6
				c0.4,0.4,0.7,0.7,1,1.1c0.1,0.1,0.2,0.3,0.2,0.3c0.2,0.3,0.3,0.5,0.5,0.8c0.1,0.2,0.2,0.4,0.3,0.6c0.1,0.1,0.1,0.3,0.2,0.4
				c0,0,0,0,0,0.1c0.4,1.2,0.5,1.8,0.5,2.8c0,3.3,5.1,3.4,5.1,0.1C103.1,2387,93.3,2380.6,84.6,2381.8z"/>
			<path class="st42" d="M80.4,2305.9c-7-4-15.5-5.1-23.2-2.9c-3.1,0.9-1.9,5.9,1.2,4.9c6.5-1.9,13.5-1.1,19.4,2.3
				C80.7,2311.9,83.3,2307.6,80.4,2305.9z"/>
			<path class="st42" d="M678.6,2127.2c-2.3-3.6-5.8-6.4-10-7.3c-5.2-1.1-10.6,0-15.1,2.6c-5.2,3-9.5,7.7-12.1,13.1
				c-0.6,1.2-0.4,2.7,0.9,3.5c1.1,0.7,2.9,0.4,3.5-0.9c3.5-7.3,10.8-14.1,19.3-13.7c6.3,0.2,11.1,5.7,11.4,12
				c0.2,3.2-0.8,6.1-3.4,7.8c-2.8,1.7-0.3,6.2,2.4,4.5C682.9,2144.1,683,2134.1,678.6,2127.2z"/>
			<path class="st42" d="M633.7,2059.8c-8.2-3.8-17.4,0-21.8,7.6c-2.4,4.1-3.3,9.1-1.8,13.7c1,3.1,5.9,1.9,4.9-1.2
				c-1.8-5.9,1.4-12.4,6.7-15.3c5.7-3,12.2-0.3,15.5,4.9c1.9,3,2.7,6.5,1.7,10c-0.9,3.2,4,4.5,4.9,1.4
				C646.2,2072.6,641.4,2063.4,633.7,2059.8z"/>
			<path class="st42" d="M769.5,2033.1c-3.4-8.8-12.7-13-21.8-11.1c-5,1-9.5,3.9-12.2,8.2c-1.8,2.7,2.6,5.4,4.4,2.6
				c3.6-5.4,11.2-7.4,17.3-5.3c6.3,2.1,9.5,9,8.3,15.5c-0.6,3.6-2.4,7.1-5.4,9.2c-1.1,0.8-1.7,2.2-1,3.5c0.6,1.1,2.3,1.8,3.5,1
				C769.9,2051.5,772.7,2041.5,769.5,2033.1z"/>
			<path class="st42" d="M645.2,2233.3c-5.9-4.9-15-5-20.7,0.4c-1,0.9-1,2.6-0.1,3.6c1,1,2.6,1,3.6,0.1c0.3-0.2,0.5-0.5,0.8-0.7
				c0,0,0.1,0,0.1,0c0,0,0,0,0.1-0.1c0.1-0.1,0.3-0.2,0.4-0.3c0.6-0.4,1.2-0.7,1.8-0.9c0.1,0,0.2-0.1,0.2-0.1
				c0.1-0.1,0.3-0.1,0.5-0.1c0.3-0.1,0.7-0.2,1-0.3c0.2,0,0.4-0.1,0.6-0.1c0,0,0.2,0,0.3,0c0.3,0,0.6-0.1,0.9-0.1c0.4,0,0.7,0,1.1,0
				c0.2,0,0.3,0,0.5,0c0,0,0.3,0,0.4,0c0.1,0,0.2,0,0.2,0c0.2,0,0.4,0.1,0.6,0.1c0.3,0.1,0.7,0.2,1,0.3c0.3,0.1,0.7,0.2,1,0.4
				c-0.5-0.2,0.4,0.2,0.5,0.3c0.3,0.2,0.6,0.3,0.9,0.5c0.1,0.1,0.3,0.2,0.4,0.3c0.1,0.1,0.1,0,0.1,0.1c0,0,0,0,0.1,0.1
				c1.1,0.9,2.5,1.1,3.6,0.1C646,2236,646.2,2234.2,645.2,2233.3z"/>
			<path class="st42" d="M735.5,1845.1c-15.8-5.5-32.5,5.8-39.2,19.7c-4.6,9.4-6,19.8-6,30.2c0,3.3,5.1,3.4,5.1,0.1
				c0-14.4,3-30.6,15-40c10-7.8,25.6-9.2,33.1,2.7c3.3,5.3,4.3,12,0.8,17.5c-1.8,2.8,2.6,5.4,4.4,2.6
				C756.2,1865.9,748.1,1849.5,735.5,1845.1z"/>
			<path class="st42" d="M795.1,1827.7c-5.5-5.1-14.2-5.9-20.6-1.8c-3.5,2.2-5.8,5.8-5.8,10c0,3.3,5.1,3.4,5.1,0.1
				c0-2.4,1-4.1,2.8-5.4c2.2-1.5,4.9-2.2,7.5-2.1c6.6,0.2,10.8,5.9,12.7,11.8c1.3,4.1,1.9,8.5,2.1,12.8c0.2,3.3,5.3,3.3,5.1,0.1
				C803.6,1844.1,802,1834,795.1,1827.7z"/>
			<path class="st42" d="M804.6,1913.4c-3.3,0-3.4,5.1-0.1,5.1C807.8,1918.5,807.9,1913.4,804.6,1913.4z"/>
			<path class="st42" d="M674.9,1959h-21c-3.3,0-3.4,5.1-0.1,5.1h21C678.1,1964.1,678.2,1959,674.9,1959z"/>
			<path class="st42" d="M789,1744.7c-6.7-7.2-17.4-6.6-24.6-0.5c-4,3.4-6.7,8.5-6.6,13.9c0.1,3.3,5.1,3.4,5.1,0.1
				c-0.1-7,6.1-13.1,12.9-13.7c7-0.6,12.1,5.1,13.2,11.6c0.6,3.6-0.2,7.1-2.3,10c-0.8,1.1-0.2,2.8,0.9,3.5c1.3,0.8,2.7,0.2,3.5-0.9
				C796.3,1761.6,794.8,1751,789,1744.7z"/>
			<path class="st42" d="M851.2,1628c-8.4-5.3-18-0.6-23.3,6.7c-3.2,4.4-4.9,9.6-5.7,14.9c-0.2,1.4,1.3,2.6,2.5,2.6
				c1.5,0,2.4-1.1,2.6-2.5c0.9-6.8,4.5-14.2,10.8-17.5c2.8-1.5,6-2,9-0.7c2.6,1.1,4.7,3.3,6,5.8c1.3,2.6,1.5,5.7-0.5,7.8
				c-2.2,2.4,1.3,6.1,3.5,3.7C862.2,1642.2,858,1632.4,851.2,1628z"/>
			<path class="st42" d="M833.8,1566.3c-4.6-8.1-14.5-12.6-23.6-10.4c-9.1,2.2-15.8,10.8-16.2,20c-0.1,3.3,5,3.3,5.1,0.1
				c0.3-7,5.5-13.5,12.3-15.1c6.9-1.7,14.4,1.8,17.9,7.9C830.9,1571.6,835.4,1569.2,833.8,1566.3z"/>
			<path class="st42" d="M914.2,1522.6c-2-2.5-4.7-4.7-7.6-6.1c-1.7-0.8-3.9-2-5.7-1c-1.6,0.9-3.1,2.1-4.4,3.4
				c-3.1,3-5.3,6.7-6.6,10.7c-1,3.1,3.9,4.5,4.9,1.4c1.4-4.3,4.2-8.1,8-10.6c7.6,2.9,13,11.5,11.6,19.7c-0.2,1.4,0.3,2.7,1.8,3.1
				c1.2,0.3,2.9-0.4,3.1-1.8C920.5,1534.7,918.5,1527.9,914.2,1522.6z"/>
			<path class="st42" d="M815.3,1528.3c-4.6-8-14.3-12.5-23.4-10.4c-9.1,2.1-15.8,10.3-16.6,19.5c-0.3,3.3,4.8,3.3,5.1,0.1
				c0.6-6.9,5.9-13.1,12.7-14.6c6.8-1.5,14.2,2,17.7,7.9C812.4,1533.6,816.9,1531.1,815.3,1528.3z"/>
			<g>
				<path class="st42" d="M701,1692.1C700.8,1692,700.6,1692,701,1692.1L701,1692.1z"/>
				<path class="st42" d="M705,1688.9c-1.8-1.7-4.1-3.1-6.6-3.5c-1.4-0.2-2.7-0.2-4.1,0c-0.7,0.1-1.3,0.4-2,0.7
					c-0.3,0.1-0.6,0.3-0.9,0.5c-0.9,0.7-1,1.6-1.1,2.7c-0.2,4.2-0.4,8.5-0.6,12.7c-0.1,1.3,1.2,2.6,2.5,2.6c1.4,0,2.5-1.1,2.6-2.5
					c0.2-3.9,0.3-7.8,0.5-11.7c0.1,0,0.2-0.1,0.3-0.1c0.1,0,0.7-0.1,0.3,0c-0.4,0.1,0.1,0,0.3,0c0.3,0,0.7,0,1,0c0,0,0,0,0,0
					c0.2,0,0.3,0.1,0.5,0.1c0.4,0.1,0.7,0.2,1.1,0.3c0,0,0,0,0.1,0c0,0,0,0-0.1,0c0,0,0.1,0,0.1,0.1c0,0,0.1,0,0.1,0c0,0,0,0,0,0
					c0.1,0,0.1,0.1,0.2,0.1c0.3,0.2,0.7,0.4,1,0.6c0.3,0.2,0.5,0.4,0.8,0.6c0,0,0,0-0.1,0c0,0,0.1,0,0.1,0.1
					c0.2,0.1,0.3,0.3,0.5,0.4c0.3,0.3,0.5,0.5,0.7,0.8c0.1,0.1,0.2,0.3,0.3,0.4c0,0,0,0,0,0.1c0.4,0.6,0.8,1.2,1.1,1.9l0,0
					c0,0.1,0.1,0.3,0.1,0.4c0.1,0.4,0.2,0.7,0.3,1.1c0,0,0,0.1,0,0.1c0,0.2,0,0.4,0,0.5c0,0.2,0,0.4,0,0.6c0,0,0,0.1,0,0.1
					c0,0-0.1,0.4-0.1,0.5c0,0.2-0.1,0.4-0.2,0.6c0,0.1-0.3,0.8-0.1,0.3c0.1-0.4,0.1-0.1,0,0c-0.1,0.1-0.1,0.3-0.2,0.4
					c-0.7,1.2-0.4,2.8,0.9,3.5c1.2,0.6,2.8,0.4,3.5-0.9C710.6,1698.3,708.9,1692.5,705,1688.9z"/>
				<path class="st42" d="M698.9,1690.9c0.2,0.2,0.3,0.2,0.2,0.1C699,1690.9,699,1690.9,698.9,1690.9
					C698.9,1690.9,698.9,1690.9,698.9,1690.9z"/>
			</g>
			<path class="st42" d="M990,1911.6c-2.4-3.2-6-5.3-10-5.5c-5.1-0.3-10,2-13.8,5.3c-4.4,3.9-7.5,9.2-9.4,14.7
				c-1.1,3.1,3.9,4.5,4.9,1.4c2.4-7.1,8-15.3,16.1-16.2c1.6-0.2,2.8-0.1,4.2,0.5c0.1,0.1,0.6,0.3,0.7,0.3c0.3,0.2,0.5,0.3,0.8,0.5
				c0.6,0.4,0.8,0.6,1.5,1.2c1.8,1.8,3.1,4.6,3.3,6.9c0.1,0.7,0,1.7,0,2.1c0-0.2,0,0.2,0,0.2c-0.1,0.2-0.1,0.5-0.2,0.7
				c0,0.2-0.1,0.3-0.2,0.5c0,0.1,0,0.1,0,0.1c0,0,0,0,0,0c-0.2,0.3-0.3,0.6-0.5,0.9c0,0,0,0.1-0.1,0.1c-0.1,0.1-0.2,0.3-0.4,0.4
				c-0.5,0.5-0.9,0.7-1.8,1.1c-1.3,0.5-1.6,2.3-1,3.5c0.7,1.3,2.2,1.6,3.5,1C995.6,1927.7,994.4,1917.4,990,1911.6z"/>
			<path class="st42" d="M1057.7,1924.3c-6.6-1.8-13.9-0.6-19.5,3.3c-1.1,0.8-1.7,2.2-1,3.5c0.6,1.1,2.3,1.8,3.5,1
				c4.7-3.3,10.3-4.4,15.7-2.9C1059.5,1930,1060.9,1925.1,1057.7,1924.3z"/>
			<path class="st42" d="M999.7,1976.5c0-1.4-1.1-2.6-2.5-2.6c-8.9,0.1-17.7,2.3-25.4,6.6c-2.9,1.6-0.4,6.1,2.4,4.5
				c6.3-3.5,13.3-5.4,20.5-5.8c0.1,2.3,0.1,4.6,0.2,6.9c0.1,3.3,5.2,3.4,5.1,0.1C999.9,1982.9,999.8,1979.7,999.7,1976.5z"/>
			<path class="st42" d="M1147,2225.9c-5.8-5.9-15.1-8-22.9-5.3c-8.1,2.8-13.3,10.2-14,18.7c-0.4,4.5,0.7,9.2,3.1,13.1
				c1.7,2.8,6.2,0.3,4.5-2.4c-4.4-6.9-2.9-16.7,3.4-22c6.3-5.3,16.7-4.4,22.3,1.4C1145.6,2231.7,1149.3,2228.2,1147,2225.9z"/>
			<path class="st42" d="M1043.9,2232.5c-11,1.8-17.7,12.9-21.9,22.2c-1.4,2.9,3,5.6,4.4,2.6c3.5-7.5,8.4-17,17-19.4
				c5.8-1.7,15.1,0.8,15.9,7.8c0.1,1.4,1,2.5,2.5,2.6c1.3,0,2.7-1.2,2.6-2.5C1063.3,2235.9,1052.9,2231,1043.9,2232.5z"/>
			<path class="st42" d="M996.1,2216.1c-0.4-1.2-1.7-2.3-3.1-1.9c-3.5,1.2-7,2.3-10.5,3.5c-1.3,0.4-2.3,1.7-1.9,3.1
				c0.4,1.2,1.7,2.3,3.1,1.9c3.5-1.2,7-2.3,10.5-3.5C995.6,2218.8,996.6,2217.5,996.1,2216.1z"/>
			<path class="st42" d="M1108.5,2327.5c-5.7-5.6-15.6-3.3-19.8,3.1c-1.2,1.8-1.8,4-1.7,6.1c0.1,1.4,1.1,2.6,2.5,2.6
				c1.3,0,2.6-1.1,2.6-2.5c0-0.3,0-0.5,0-0.8c0-0.1,0-0.4,0.1-0.5c0.1-0.3,0.1-0.7,0.3-1c0.1-0.2,0.4-0.9,0.1-0.2
				c0.1-0.2,0.2-0.3,0.2-0.5c0.2-0.4,0.4-0.7,0.7-1.1c0,0,0,0,0,0c0,0,0.1-0.1,0.1-0.1c0.2-0.2,0.3-0.4,0.5-0.5
				c0.3-0.3,0.6-0.6,1-0.8c0.1-0.1,0.1-0.1,0.2-0.2c0.2-0.1,0.3-0.2,0.5-0.3c0.4-0.2,0.8-0.5,1.2-0.6c0.1,0,0.5-0.2,0.4-0.2
				c0.2-0.1,0.3-0.1,0.5-0.2c0.4-0.1,0.8-0.2,1.3-0.3c0.1,0,1-0.1,0.3-0.1c0.2,0,0.4,0,0.6,0c0.5,0,0.9,0,1.4,0c0.2,0,0.8,0.1,0.2,0
				c0.2,0,0.5,0.1,0.7,0.1c0.2,0,0.3,0.1,0.5,0.1c0.1,0,0.3,0.1,0.4,0.2c0.3,0.2,0.6,0.3,0.9,0.5c0.1,0.1,0.4,0.3,0.4,0.3
				c0.1,0.1,0.2,0.2,0.3,0.3c0.9,0.9,2.6,1.1,3.6,0.1C1109.4,2330.1,1109.5,2328.5,1108.5,2327.5z"/>
			<path class="st42" d="M884.8,2069.7c-0.9-4-3.4-7.6-6.8-9.8c-3.6-2.3-8.1-2.5-12-0.7c-3.7,1.8-6.4,5.3-7.7,9.1
				c-1.5,4.5-0.9,9.4,2,13.1c0.9,1.1,2.7,1,3.6,0.1c1.1-1,0.9-2.5,0.1-3.6c-0.1-0.1-0.1-0.1-0.1-0.1c0,0,0,0,0-0.1
				c-0.1-0.2-0.2-0.3-0.3-0.5c-0.2-0.3-0.4-0.7-0.5-1.1c0.2,0.5-0.1-0.4-0.2-0.6c-0.1-0.4-0.2-0.8-0.3-1.2c0,0,0,0,0,0
				c0-0.2,0-0.4,0-0.6c0-0.4,0-0.7,0-1.1c0-0.1,0.1-0.7,0.1-0.8c0.1-0.4,0.1-0.8,0.2-1.1c0.1-0.4,0.2-0.7,0.3-1.1
				c0.1-0.2,0.2-0.4,0.2-0.6c0,0,0,0,0-0.1c0,0,0,0,0,0c0.3-0.7,0.7-1.4,1.2-2.1c0.1-0.2,0.2-0.3,0.3-0.4c0-0.1,0-0.1,0.1-0.1
				c0,0,0,0,0.1-0.1c0.2-0.3,0.5-0.5,0.7-0.8c0.3-0.3,0.5-0.5,0.8-0.7c0,0,0.1-0.1,0.2-0.2c0.1-0.1,0.4-0.3,0.4-0.3
				c0.3-0.2,0.6-0.4,0.9-0.5c0.2-0.1,0.4-0.2,0.6-0.3c0,0,0,0,0,0c0.3-0.1,0.7-0.2,1-0.3c0.2,0,0.4-0.1,0.6-0.1c0.1,0,0.1,0,0.1,0
				c0,0,0,0,0.1,0c0.4,0,0.8,0,1.2,0c0.1,0,0.2,0,0.3,0c0,0,0.3,0.1,0.4,0.1c0.3,0.1,0.7,0.2,1,0.3c0.1,0,0.3,0.1,0.4,0.1
				c0,0,0,0,0,0c0.1,0,0.2,0.1,0.3,0.1c0.6,0.3,1.2,0.7,1.7,1.1c0.1,0.1,0.5,0.4,0.5,0.5c0.3,0.3,0.6,0.6,0.9,1
				c0.1,0.1,0.2,0.3,0.4,0.5c0,0,0,0,0,0.1c0.2,0.3,0.4,0.7,0.6,1c0.2,0.3,0.4,0.6,0.5,1c0.1,0.2,0.1,0.3,0.2,0.5
				c0,0.1,0,0.1,0.1,0.1c0,0,0,0.1,0.1,0.2c0.3,0.8,0.5,1.7,0.6,2.5c0,0,0,0,0,0c0,0,0,0,0,0.1c0,0.3,0,0.5,0,0.8c0,0.4,0,0.9,0,1.3
				c0,0.1,0,0.1,0,0.2c0,0.2-0.1,0.4-0.1,0.6c-0.1,0.4-0.2,0.8-0.4,1.2c0,0,0,0.1-0.1,0.2c-0.1,0.2-0.2,0.4-0.3,0.6
				c-0.1,0.2-0.2,0.3-0.3,0.5c-0.1,0.1-0.6,0.8-0.2,0.4c-0.9,1.1-1.1,2.5-0.1,3.6c0.8,0.9,2.7,1.2,3.6,0.1
				C884.9,2078.2,885.8,2074,884.8,2069.7z"/>
			<path class="st42" d="M891.3,1859c-0.5-1.6-1.5-3.1-2.8-4.2c-2.7-2.3-6.4-3.7-10-2.8c-2,0.5-3.8,1.9-4.8,3.7
				c-0.6,1.2-0.4,2.8,0.9,3.5c1.2,0.6,2.8,0.4,3.5-0.9c0.1-0.2,0.3-0.4,0.4-0.6c0,0,0,0,0,0c0.1-0.1,0.2-0.2,0.3-0.3
				c0.1,0,0.2-0.1,0.2-0.1c0.1-0.1,0.2-0.1,0.3-0.2c0.3-0.1,0.5-0.1,0.8-0.2c0.1,0,0.3,0,0.4,0c0.3,0,0.6,0,0.8,0l0,0
				c0.1,0,0.3,0.1,0.4,0.1c0.3,0.1,0.6,0.1,0.8,0.2c0.2,0.1,0.3,0.1,0.4,0.2c0.6,0.3,1.1,0.6,1.6,0.9c0,0,0,0,0,0
				c0.1,0.1,0.2,0.1,0.2,0.2c0.2,0.2,0.5,0.5,0.7,0.7c0.1,0.1,0.1,0.2,0.2,0.2c0.2,0.3,0.3,0.5,0.4,0.8c0,0,0,0,0,0
				c0,0.1,0.1,0.3,0.1,0.4c0,0.1,0,0.2,0.1,0.3c0,0,0,0.1,0,0.1c0,0.1,0,0.3,0,0.4c0,0.2-0.1,0.3-0.1,0.5c-0.1,0.2-0.3,0.8,0,0
				c-0.5,1.2-0.4,2.8,0.9,3.5c1.1,0.6,2.9,0.4,3.5-0.9C891.6,1862.9,891.9,1860.9,891.3,1859z"/>
			<path class="st42" d="M464.7,1758.4c-5.7-4.7-13.4-4.4-19.1-0.1c-3,2.3-5.3,5.7-5.9,9.5c-0.2,1.4,0.3,2.7,1.8,3.1
				c1.2,0.3,2.9-0.4,3.1-1.8c0.9-6,7.5-10.8,13.6-8.8c5.5,1.8,8.5,8.8,6.4,14.2c-0.5,1.3,0.5,2.8,1.8,3.1c1.4,0.4,2.6-0.5,3.1-1.8
				C471.9,1770,469.6,1762.5,464.7,1758.4z"/>
			<path class="st42" d="M909.1,1707.1c-0.5-0.9-1.8-1.6-2.9-1.2c-8.7,3.2-16.6,8.4-22.9,15.3c-0.9,1-1.1,2.6-0.1,3.6
				c0.9,0.9,2.7,1.1,3.6,0.1c5.2-5.7,11.6-10.2,18.6-13.1c2.3,5.6,2.9,11.8,1.4,17.6c-0.8,3.2,4.1,4.6,4.9,1.4
				C913.8,1722.8,912.9,1714.4,909.1,1707.1z"/>
			<g>
				<path class="st42" d="M973.1,1472.6c0.1,0.1,0.1,0.2,0.1,0.1C973.1,1472.7,973.1,1472.6,973.1,1472.6
					C973.1,1472.6,973.1,1472.6,973.1,1472.6z"/>
				<path class="st42" d="M977,1469.4c-2.9-3.8-9.2-4.5-13.2-2c-2.7,1.6-4,4.3-3.5,7.4c0.2,1.4,1.8,2.2,3.1,1.9c1.4-0.3,2-1.7,1.9-3
					c0,0,0,0.1,0,0.1c0-0.1,0-0.2,0-0.3c0,0,0-0.1,0-0.2c0-0.1,0-0.3,0.1-0.3c0,0,0,0,0,0c0,0-0.1,0,0-0.1c0,0,0,0,0-0.1
					c0-0.1,0-0.1,0-0.1c0,0,0,0.1,0,0.1c0.1-0.1,0.2-0.2,0.2-0.4c0,0,0,0,0,0c0.1-0.1,0.3-0.2,0.4-0.4c0,0,0.1,0,0.1-0.1
					c0.3-0.2,0.6-0.3,1-0.5c0,0,0.1,0,0.1,0c0.2-0.1,0.5-0.1,0.7-0.2c0.2,0,0.4-0.1,0.6-0.1c0.1,0,0.1,0,0.2,0c0.4,0,0.9,0,1.3,0
					c0.1,0,0.1,0,0.2,0c0.2,0,0.4,0.1,0.5,0.1c0.2,0,0.4,0.1,0.6,0.2c0.1,0,0.2,0.1,0.3,0.1c0.3,0.2,0.7,0.4,1,0.6c0,0,0,0,0,0
					c0.2,0.2,0.3,0.3,0.5,0.5c0,0,0,0-0.1-0.1c0,0,0,0.1,0.1,0.1l0,0c0,0,0,0.1,0.1,0.1c0,0,0,0,0,0c0.2,0.3,0.4,0.6,0.5,0.9
					c0.1,0.1,0.1,0.2,0.2,0.4c-0.1-0.3,0,0.1,0,0.1c0.1,0.4,0.2,0.7,0.3,1.1c0,0.1,0.1,0.9,0.1,0.5c0,0.3,0.1,0.7,0.1,1
					c0,0.3,0,0.6,0,0.9c0,0.2,0,0.4,0,0.5c0,0,0,0.2,0,0.3c-0.2,1.5-0.7,3-1.3,4.4c-0.1,0.2-0.1,0.1-0.1,0.2
					c-0.1,0.2-0.2,0.4-0.3,0.6c-0.2,0.4-0.4,0.8-0.6,1.1c-0.4,0.7-0.8,1.4-1.2,2.1c-0.7,1.1-0.3,2.8,0.9,3.5
					c1.2,0.7,2.7,0.3,3.5-0.9C978.8,1483.8,981.6,1475.4,977,1469.4z"/>
				<path class="st42" d="M965.4,1472.8c0,0,0,0,0-0.1c0,0,0,0,0,0C965.4,1472.8,965.4,1472.8,965.4,1472.8z"/>
			</g>
			<path class="st42" d="M861.8,1461.3c-0.5-0.5-1.1-0.8-1.8-0.8c-0.6,0-1.4,0.2-1.8,0.7c-2.2,2.5-4.3,5-6.5,7.5
				c-0.5,0.5-0.8,1.1-0.8,1.8c0,0.6,0.3,1.4,0.7,1.8c0.5,0.5,1.1,0.8,1.8,0.8c0.6,0,1.4-0.2,1.8-0.7c2.2-2.5,4.3-5,6.5-7.5
				c0.5-0.5,0.8-1.1,0.8-1.8C862.5,1462.5,862.3,1461.7,861.8,1461.3z"/>
			<path class="st42" d="M371.3,1749.5c-6.3-8.7-13.3-16.8-21-24.3c-2.4-2.3-6.1,1.2-3.7,3.5c26.6,25.7,44.7,59.6,51.6,95.9
				c2,10.4,3,21,3,31.7c0,3.3,5.1,3.4,5.1,0.1C406.1,1818.3,393.6,1780.4,371.3,1749.5z"/>
			<path class="st42" d="M494.6,1823.3c-20.7,8.6-38,24.7-48.1,44.7c-1.5,2.9,2.9,5.6,4.4,2.6c9.7-19.3,26.2-34.6,46.2-42.9
				C500.1,1826.5,497.6,1822.1,494.6,1823.3z"/>
			<path class="st42" d="M360.1,1899.3c-17.6-35.5-52-61.9-90.9-69.6c-3.2-0.6-4.6,4.3-1.4,4.9c37.7,7.4,70.7,32.7,87.8,67.1
				C357.1,1904.7,361.5,1902.3,360.1,1899.3z"/>
			<path class="st42" d="M1061.5,1991.3c-18.7,12.2-34.9,27.7-48.9,45.1c-14.2,17.6-26.8,37-37.1,57.1c-6.1,11.9-10.9,24.5-12,37.9
				c-0.3,3.3,4.8,3.3,5.1,0.1c1.9-22.9,15.1-43.8,27.1-62.7c11.5-18,24.4-35.2,39.8-50.1c8.7-8.5,18.2-16.2,28.4-22.9
				C1066.7,1994,1064.3,1989.5,1061.5,1991.3z"/>
			<path class="st42" d="M950.2,2059.4c-2.5-9.3-5.6-18.4-9.1-27.4c-3.1-7.8-5.9-17.2-13.3-21.9c-2.8-1.8-5.4,2.6-2.6,4.4
				c3.6,2.3,5.5,6.1,7.3,9.9c1.8,4,3.5,8.1,5,12.3c3.3,8.6,6.1,17.4,8.4,26.3c4.7,17.8,7.4,36.1,8.3,54.4c0.2,3.3,5.2,3.4,5.1,0.1
				C958.3,2097.9,955.3,2078.4,950.2,2059.4z"/>
			<path class="st42" d="M1072.3,2125.7c-11.7-10.1-27.4-11.8-42.2-9.5c-8.5,1.4-16.8,3.9-25,6.5c-7.2,2.2-14.3,4.8-19.9,10
				c-2.4,2.2,1.1,5.9,3.5,3.7c5.1-4.7,11.6-6.9,18.1-8.9c7.3-2.2,14.7-4.5,22.2-5.9c13.5-2.5,28.8-1.8,39.6,7.6
				C1071,2131.4,1074.8,2127.9,1072.3,2125.7z"/>
			<path class="st42" d="M396.2,1524.5c-9.6-31.3-29.4-58.9-56-78.1c-2.7-1.9-5.3,2.5-2.6,4.4c25.4,18.3,44.5,45,53.7,74.9
				C392.2,1528.8,397.1,1527.6,396.2,1524.5z"/>
			<path class="st42" d="M382.3,1514.7c-8.5-4-17.8-5.4-27.1-4.2c-1.4,0.2-2.2,1.9-1.9,3.1c0.4,1.5,1.7,2,3.1,1.9
				c7.9-1,16.1,0.3,23.3,3.6c1.2,0.6,2.7,0.4,3.5-0.9C383.8,1517.1,383.6,1515.3,382.3,1514.7z"/>
		</g>
		<g class="st45">
			<path class="st41" d="M528.6,129c0.4-3.2-4.7-3.3-5.1-0.1c-6.1,47-7.3,94.5-3.5,141.8c0.3,3.2,5.4,3.3,5.1,0.1
				C521.3,223.5,522.5,176,528.6,129z"/>
			<path class="st41" d="M548,136.7v24.9c0,3.3,5.1,3.4,5.1,0.1v-24.9C553.1,133.5,548,133.4,548,136.7z"/>
			<path class="st41" d="M550.1,189.7c0.1-3.3-5-3.3-5.1-0.1c-0.8,21.8-0.2,43.7,1.6,65.4c0.3,3.2,5.4,3.3,5.1,0.1
				C549.9,233.4,549.4,211.6,550.1,189.7z"/>
			<path class="st41" d="M571.8,136.8c0.1-3.3-5-3.4-5.1-0.1c-0.8,42.6,1.1,85.3,5.5,127.7c0.3,3.2,5.4,3.3,5.1,0.1
				C572.9,222,571,179.4,571.8,136.8z"/>
			<path class="st41" d="M580.7,416.7c-7.9-35.1-10.7-71.1-8.5-107c0.2-3.3-4.9-3.3-5.1-0.1c-2.2,36.3,0.7,72.8,8.7,108.3
				C576.5,421.1,581.4,419.9,580.7,416.7z"/>
			<path class="st41" d="M555.1,366.4c-0.5-12.1-0.7-24.2-0.9-36.4c0-3.3-5.1-3.4-5.1-0.1c0.5,42.9,3,85.7,7.5,128.3
				c1.3,12.1,2.7,24.1,4.4,36.1c0.4,3.3,5.4,2,4.9-1.2C560.3,451.1,556.7,408.8,555.1,366.4z"/>
			<path class="st41" d="M530,354.9c0.3-3.3-4.8-3.3-5.1-0.1c-1.5,18.5-0.9,37,1.9,55.3c0.5,3.2,5.4,2,4.9-1.2
				C529.1,391.1,528.5,373,530,354.9z"/>
			<path class="st41" d="M543.5,443.8c-0.1-3.3-5.2-3.4-5.1-0.1c1.3,51.8,5.3,103.6,12,155c0.4,3.3,5.4,2,4.9-1.2
				C548.7,546.5,544.8,495.2,543.5,443.8z"/>
			<path class="st41" d="M581,450c0-3.3-5.1-3.4-5.1-0.1c0,25,1.3,49.9,3.9,74.7c0.3,3.2,5.4,3.3,5.1,0.1
				C582.3,499.9,581,474.9,581,450z"/>
			<path class="st41" d="M572.8,526.4c-0.3-3.2-5.4-3.3-5.1-0.1c3.8,47.8,8.3,95.6,13.5,143.3c0.3,3.2,5.5,3.3,5.1,0.1
				C581.1,622,576.6,574.2,572.8,526.4z"/>
			<path class="st41" d="M546.8,635.4c0-3.3-5.1-3.4-5.1-0.1c0.1,43.2,2,86.4,5.7,129.4c0.3,3.2,5.4,3.3,5.1,0.1
				C548.9,721.8,546.9,678.6,546.8,635.4z"/>
			<path class="st41" d="M568.5,690c-1.3-13-2.7-25.9-4.1-38.9c-0.4-3.2-5.5-3.3-5.1-0.1c5.1,45.6,9.2,91.2,12.2,137
				c0.9,13,1.6,26,2.3,39c0.2,3.3,5.3,3.3,5.1,0.1C576.5,781.4,573.1,735.7,568.5,690z"/>
			<path class="st41" d="M598.8,747.2c-1.5-15.9-2.8-31.9-4.1-47.8c-0.3-3.2-5.4-3.3-5.1-0.1c4.5,57.1,10.3,114,17.6,170.8
				c2.1,16.1,4.2,32.1,6.5,48.2c0.5,3.2,5.4,2,4.9-1.2C610.6,860.6,604,803.9,598.8,747.2z"/>
			<path class="st41" d="M560.9,848.9c-1.3-12.4-2.7-24.9-4-37.3c-0.3-3.2-5.5-3.3-5.1-0.1c4.7,43.6,9.4,87.3,14.1,130.9
				c1.3,12.4,2.7,24.9,4,37.3c0.3,3.2,5.5,3.3,5.1,0.1C570.4,936.2,565.7,892.6,560.9,848.9z"/>
			<path class="st41" d="M585.2,852.1c-0.4-3.2-5.5-3.3-5.1-0.1c5.7,51.4,11.4,102.9,17.1,154.3c0.4,3.2,5.5,3.3,5.1,0.1
				C596.6,955,590.9,903.5,585.2,852.1z"/>
			<path class="st41" d="M637,1147.5c-11.8-50.7-18.9-102.4-20.9-154.4c-0.6-14.8-0.7-29.6-0.5-44.4c0.1-3.3-5-3.4-5.1-0.1
				c-0.8,52.5,3.4,105,12.5,156.6c2.6,14.6,5.6,29.1,9,43.5C632.8,1152,637.8,1150.7,637,1147.5z"/>
			<path class="st41" d="M578,1050.4c-0.2-13.1-0.1-26.3,0.3-39.4c0.1-3.3-5-3.3-5.1-0.1c-1.3,46.9,0.8,93.9,6.5,140.5
				c1.6,13.2,3.5,26.5,5.7,39.6c0.5,3.2,5.5,2,4.9-1.2C582.7,1143.8,578.6,1097.1,578,1050.4z"/>
			<path class="st41" d="M602.8,1094.3c-2-17.4-3.9-34.8-5.8-52.1c-0.3-3.2-5.4-3.3-5.1-0.1c6.6,61.8,14.2,123.5,22.8,185.1
				c2.5,17.5,5,35,7.6,52.5c0.5,3.2,5.4,2,4.9-1.2C618.1,1217.2,609.9,1155.8,602.8,1094.3z"/>
			<path class="st41" d="M666.9,1354.7c-10.7-44.1-18.6-88.8-23.5-133.9c-1.4-12.8-2.6-25.6-3.5-38.4c-0.2-3.2-5.3-3.3-5.1-0.1
				c3.4,45.5,9.6,90.7,18.7,135.4c2.6,12.8,5.5,25.5,8.5,38.2C662.8,1359.1,667.7,1357.9,666.9,1354.7z"/>
			<path class="st41" d="M600.9,1268.7c-0.8-15.2-1.5-30.5-2.2-45.7c-0.1-3.3-5.2-3.4-5.1-0.1c2.4,53.4,5.5,106.7,9.3,160
				c1.1,15.2,2.2,30.4,3.4,45.7c0.3,3.2,5.4,3.3,5.1,0.1C607.2,1375.4,603.7,1322.1,600.9,1268.7z"/>
			<path class="st41" d="M646.9,1459.5c-12.4-49.8-18.2-101.1-17.3-152.4c0.1-3.3-5-3.4-5.1-0.1c-0.9,51.7,5,103.5,17.5,153.7
				C642.7,1463.9,647.7,1462.7,646.9,1459.5z"/>
			<path class="st41" d="M717.6,1553.9c-11.4-18.7-17.2-40-23.7-60.7c-7-22.3-14.6-44.4-20.7-67c-3.3-12.4-5.6-25.1-5-38
				c0.2-3.3-4.9-3.3-5.1-0.1c-1.1,23.1,6.7,45.3,13.5,67c7.1,22.6,13.7,45.4,21.4,67.8c4,11.6,8.6,23,15.1,33.5
				C714.9,1559.1,719.3,1556.7,717.6,1553.9z"/>
			<path class="st41" d="M617.6,1452c0-3.3-5.1-3.4-5.1-0.1c0.3,44.2,1.3,88.4,3.2,132.5c0.1,3.3,5.2,3.4,5.1,0.1
				C619,1540.4,617.9,1496.2,617.6,1452z"/>
			<path class="st41" d="M657.3,1568.3c-6.7-25.8-10.3-52.2-10.9-78.9c-0.1-3.3-5.2-3.4-5.1-0.1c0.6,27,4.3,54,11,80.2
				C653.2,1572.7,658.1,1571.5,657.3,1568.3z"/>
			<path class="st41" d="M694.6,1585.5c-10.9-34.1-19.4-69-25.3-104.4c-0.5-3.2-5.5-2-4.9,1.2c5.9,35.4,14.3,70.3,25.3,104.4
				C690.6,1589.8,695.6,1588.6,694.6,1585.5z"/>
			<path class="st41" d="M730.5,1611.2c-4-8.3-7-16.9-9.1-25.9c-0.7-3.2-5.7-2-4.9,1.2c2.1,9.4,5.4,18.5,9.5,27.1
				C727.5,1616.6,732,1614.2,730.5,1611.2z"/>
			<path class="st41" d="M692.2,1628.9c-5.4-14.5-10.8-29-16.1-43.4c-1.1-3-6.1-1.8-4.9,1.2c5.4,14.5,10.8,29,16.1,43.4
				C688.4,1633.1,693.3,1631.9,692.2,1628.9z"/>
			<path class="st41" d="M654.7,1628.1c-6.3-13-10.8-26.8-13.3-41.1c-0.6-3.2-5.5-2-4.9,1.2c2.6,14.7,7.2,28.9,13.8,42.3
				C651.7,1633.5,656.2,1631.1,654.7,1628.1z"/>
			<path class="st41" d="M618.2,1606.2v35.8c0,3.3,5.1,3.4,5.1,0.1v-35.8C623.3,1603,618.2,1602.9,618.2,1606.2z"/>
		</g>
	</g>
</g>
</svg>
