<?xml version="1.0" encoding="utf-8"?>
<!-- Generator: Adobe Illustrator 27.2.0, SVG Export Plug-In . SVG Version: 6.00 Build 0)  -->
<svg version="1.1" xmlns="http://www.w3.org/2000/svg" xmlns:xlink="http://www.w3.org/1999/xlink" x="0px" y="0px"
	 viewBox="0 0 1125 2436" style="enable-background:new 0 0 1125 2436;" xml:space="preserve">
<style type="text/css">
	.st0{clip-path:url(#SVGID_00000181793920423581830700000017302333319156084396_);}
	.st1{fill:#FFDAAA;}
	.st2{fill:#DF8AA7;}
	.st3{fill:#FFB6B6;}
	.st4{fill:#B08097;}
	.st5{fill:#DA7EA6;}
	.st6{fill:#905975;}
	.st7{fill:#A27489;}
	.st8{fill:#FF8F9F;}
	.st9{fill:#7D395C;}
	.st10{opacity:0.13;fill:#606060;}
	.st11{fill:#D1538D;}
	.st12{fill:#DF6A8C;}
	.st13{fill:#E2518D;}
	.st14{fill:#AC518D;}
	.st15{fill:#BA518D;}
	.st16{fill:#E2517A;}
	.st17{fill:#C4518D;}
	.st18{fill:#ED6A8C;}
	.st19{opacity:0.3;}
	.st20{fill:#B0518D;}
	.st21{fill:#E25170;}
	.st22{opacity:0.26;fill:#B0518D;}
	.st23{fill:#AE778D;}
	.st24{opacity:0.26;fill:#606060;}
	.st25{opacity:0.55;fill:#FFECDB;}
	.st26{fill:#FFAAB5;}
	.st27{fill:#CF628D;}
	.st28{display:none;}
	.st29{display:inline;}
	.st30{display:inline;clip-path:url(#SVGID_00000030453557710696048500000010177676125459107239_);fill:#98518D;}
	.st31{display:inline;clip-path:url(#SVGID_00000030453557710696048500000010177676125459107239_);fill:#BC518D;}
	.st32{display:inline;clip-path:url(#SVGID_00000030453557710696048500000010177676125459107239_);fill:#E2518D;}
	.st33{display:inline;opacity:0.46;clip-path:url(#SVGID_00000030453557710696048500000010177676125459107239_);}
	.st34{fill:#FFB2BF;}
	.st35{fill:#C65EA7;}
	.st36{opacity:9.000000e-02;}
	.st37{fill:#040404;}
	.st38{opacity:0.31;}
	.st39{fill:#E06181;}
	.st40{opacity:0.38;}
	.st41{fill:#313534;}
	.st42{fill:#F3EEEA;}
	.st43{opacity:0.17;}
	.st44{fill:#73355F;}
	.st45{opacity:0.4;}
	.st46{clip-path:url(#SVGID_00000079456797571857051100000002426564008031831977_);}
	.st47{fill:#F7D0CB;}
	.st48{opacity:0.34;fill:#FFFDF9;}
	.st49{opacity:0.59;fill:#FFFDF9;}
	.st50{clip-path:url(#SVGID_00000053519731797543726880000008225526908044411069_);}
</style>
<g id="Capa_1">
	<g>
		<defs>
			<rect id="SVGID_00000169518618904190849200000003903695906977309058_" x="-1729.4" y="-36.7" width="1240.6" height="2509.5"/>
		</defs>
		<clipPath id="SVGID_00000138532542032683807110000013055918117047774359_">
			<use xlink:href="#SVGID_00000169518618904190849200000003903695906977309058_"  style="overflow:visible;"/>
		</clipPath>
		<g style="clip-path:url(#SVGID_00000138532542032683807110000013055918117047774359_);">
			<rect x="-3593.5" y="-82.5" class="st47" width="4318.9" height="2600.9"/>
			<path class="st48" d="M-3593.8,815.7c10-5.8,20.2-7.9,30.5-5.7c219.1,45.7,282.9,256.1,282.9,256.1s-15.5-509,504.8-463.2
				c520.2,45.7,526.6,463.2,526.6,463.2c237.3-365.9,529.4,0,529.4,0c27.4-173.8,173.4-100.6,173.4-100.6
				c-45.6-173.8,270.9-437.5,626.9-272.9c356,164.6,276.7,364.3,358.9,364.3c82.1,0,92-305.2,516.4-422.8
				c357.7-99.1,629.5,72.8,773.4,210.7v1673.5h-4323.1V815.7z"/>
			<path class="st49" d="M729.3,1151.3c-175.4,9.2-297.2,202.3-297.2,202.3c-179.1-228.5-341.9-326.4-545.7-274.2
				c-203.8,52.2-358,331.3-358,331.3c-40.7-138.7-309.4-326.4-512.9-228.5c-203.5,97.9-252.4,310.1-252.4,310.1
				s-48.8-179.5-293.1-269.3c-244.2-89.8-423.4,163.2-423.4,163.2c-203.5-408-561.8-138.7-561.8-138.7s-81.4-212.1-260.5-171.3
				c-179.1,40.8-208.6,223.4-208.6,223.4l-609.6,972.1v246.8H729.3V1151.3z"/>
		</g>
	</g>
</g>
<g id="Capa_2">
	<g>
		<path class="st8" d="M-113-63.5c459.7,0,902.8,0,1359.9,0c-81,70.7-71.1,157-67.6,243.6c1.5,36.9-6.1,75.5-17,111.1
			c-11.3,37-42,56.9-81.6,60.2c-40.3,3.3-62-20-76.8-53.6c-5.1-11.5-11-22.9-18.1-33.3c-26.2-38.1-71.9-47.2-102.2-12.2
			c-21.7,25.1-37.6,61.5-41.3,94.6c-9.1,79.6-8.8,160.3-13.8,240.4c-2.5,60.8-21.5,138.5-94.8,143.5c-41.9,3.1-77.1-15.2-95.3-50.6
			c-15.8-30.7-25.2-67.2-27.5-101.8c-3.8-56.7,2.8-114.1,0.6-171c-2.3-60.5-24.8-111.3-86-135.7c-41.8-16.7-72.5-8.6-101,26.4
			c-8,9.8-13.7,21.5-21.9,31c-30.6,35.3-56,33.7-79.9-4.9c-6.6-10.7-10.3-23.3-17-33.9c-26.1-40.9-66.3-46.6-99.8-10.5
			c-43.2,42.6-56.7,137.5-133.5,127c-59.2-8.8-86-71-84.4-125C-6.8,160.6-25.3,45.9-113-63.5z"/>
	</g>
</g>
</svg>
